{
.appVersion = "3343";
.formatVersion = 3;
DisplayStrings = (
"Δ",
"Θ",
"Ξ",
"Π",
"/_vbar-v-caps-xtall Φ",
"Ψ"
);
axes = (
{
name = Weight;
tag = wght;
}
);
customParameters = (
{
name = vendorID;
value = dmol;
},
{
name = fsType;
value = (
);
},
{
name = unicodeRanges;
value = (
0,
1,
2,
3,
6,
7,
29,
31,
32,
33,
35,
36,
37
);
},
{
name = "Keep Kerning in one Lookup";
value = 1;
}
);
date = "2025-03-02 15:40:11 +0000";
familyName = "Gyrotrope Text";
fontMaster = (
{
axesValues = (
400
);
id = m01;
metricValues = (
{
over = 30;
pos = 1536;
},
{
over = -30;
},
{
over = -30;
pos = -480;
},
{
over = 30;
pos = 1408;
},
{
over = 22;
pos = 1072;
},
{
},
{
over = 22;
pos = 536;
},
{
pos = 704;
},
{
}
);
name = Regular;
stemValues = (
176,
144,
160,
128,
112,
112,
96
);
userData = {
GSCornerRadius = 80;
};
visible = 1;
},
{
axesValues = (
900
);
iconName = Bold;
id = m002;
metricValues = (
{
over = 30;
pos = 1536;
},
{
over = -30;
},
{
over = -30;
pos = -480;
},
{
over = 30;
pos = 1408;
},
{
over = 22;
pos = 1072;
},
{
},
{
over = 22;
pos = 536;
},
{
pos = 704;
},
{
}
);
name = Black;
stemValues = (
396,
324,
360,
288,
252,
252,
216
);
userData = {
GSCornerRadius = 60;
};
visible = 1;
}
);
glyphs = (
{
glyphname = A;
kernLeft = A;
kernRight = A;
lastChange = "2025-03-03 03:28:40 +0000";
layers = (
{
anchors = (
{
name = bottom;
pos = (988,0);
},
{
name = ogonek;
pos = (1778,10);
},
{
name = top;
pos = (988,1408);
}
);
layerId = m01;
shapes = (
{
closed = 1;
nodes = (
(165,0,ls),
(206,0,o),
(234,15,o),
(255,51,cs),
(455,392,l),
(1520,392,l),
(1721,51,ls),
(1742,15,o),
(1769,0,o),
(1810,0,cs),
(1852,0,ls),
(1910,0,o),
(1933,37,o),
(1903,89,cs),
(1159,1357,ls),
(1138,1393,o),
(1111,1408,o),
(1070,1408,cs),
(906,1408,ls),
(865,1408,o),
(838,1393,o),
(817,1357,cs),
(73,89,ls),
(43,37,o),
(66,0,o),
(125,0,cs)
);
},
{
closed = 1;
nodes = (
(966,1264,l),
(1010,1264,l),
(1435,536,l),
(540,536,l)
);
}
);
width = 1976;
},
{
anchors = (
{
name = bottom;
pos = (988,0);
},
{
name = ogonek;
pos = (1853,9);
},
{
name = top;
pos = (988,1429);
}
);
layerId = m002;
shapes = (
{
closed = 1;
nodes = (
(406,0,ls),
(447,0,o),
(478,14,o),
(495,51,cs),
(564,201,l),
(1412,201,l),
(1481,51,ls),
(1498,14,o),
(1530,0,o),
(1571,0,cs),
(1854,0,ls),
(1913,0,o),
(1931,37,o),
(1907,89,cs),
(1313,1357,ls),
(1296,1393,o),
(1265,1408,o),
(1224,1408,cs),
(753,1408,ls),
(712,1408,o),
(680,1393,o),
(663,1357,cs),
(70,89,ls),
(46,37,o),
(63,0,o),
(122,0,cs)
);
},
{
closed = 1;
nodes = (
(975,1073,l),
(1001,1073,l),
(1258,536,l),
(718,536,l)
);
}
);
width = 1976;
}
);
unicode = 65;
},
{
glyphname = AE;
kernLeft = A;
kernRight = E;
lastChange = "2025-03-03 01:46:26 +0000";
layers = (
{
anchors = (
{
name = bottom;
pos = (1098,0);
},
{
name = top;
pos = (1098,1408);
}
);
layerId = m01;
shapes = (
{
closed = 1;
nodes = (
(130,0,ls),
(171,0,o),
(199,15,o),
(220,50,cs),
(422,392,l),
(995,392,l),
(995,73,ls),
(995,26,o),
(1022,0,o),
(1070,0,cs),
(2060,0,ls),
(2109,0,o),
(2135,16,o),
(2135,64,cs),
(2135,80,ls),
(2135,128,o),
(2109,144,o),
(2060,144,cs),
(1171,144,l),
(1171,632,l),
(1884,632,ls),
(1933,632,o),
(1959,649,o),
(1959,697,cs),
(1959,711,ls),
(1959,759,o),
(1933,776,o),
(1884,776,cs),
(1171,776,l),
(1171,1264,l),
(2060,1264,ls),
(2109,1264,o),
(2135,1280,o),
(2135,1328,cs),
(2135,1344,ls),
(2135,1392,o),
(2109,1408,o),
(2060,1408,cs),
(883,1408,ls),
(842,1408,o),
(813,1393,o),
(793,1358,cs),
(43,88,ls),
(13,37,o),
(36,0,o),
(95,0,cs)
);
},
{
closed = 1;
nodes = (
(937,1264,l),
(995,1264,l),
(995,536,l),
(507,536,l)
);
}
);
width = 2195;
},
{
anchors = (
{
name = bottom;
pos = (1195,0);
},
{
name = top;
pos = (1195,1429);
}
);
layerId = m002;
shapes = (
{
closed = 1;
nodes = (
(377,0,ls),
(418,0,o),
(449,14,o),
(466,51,cs),
(535,201,l),
(972,201,l),
(972,74,ls),
(972,26,o),
(998,0,o),
(1047,0,cs),
(2148,0,ls),
(2196,0,o),
(2222,26,o),
(2222,74,cs),
(2222,294,ls),
(2222,342,o),
(2196,368,o),
(2148,368,cs),
(1374,368,l),
(1374,530,l),
(1973,530,ls),
(2021,530,o),
(2047,556,o),
(2047,605,cs),
(2047,824,ls),
(2047,873,o),
(2021,899,o),
(1973,899,cs),
(1374,899,l),
(1374,1061,l),
(2148,1061,ls),
(2196,1061,o),
(2222,1087,o),
(2222,1135,cs),
(2222,1355,ls),
(2222,1403,o),
(2196,1429,o),
(2148,1429,cs),
(724,1429,ls),
(683,1429,o),
(652,1415,o),
(635,1378,cs),
(41,89,ls),
(16,35,o),
(34,0,o),
(93,0,cs)
);
},
{
closed = 1;
nodes = (
(946,1094,l),
(972,1094,l),
(972,536,l),
(689,536,l)
);
}
);
width = 2282;
}
);
unicode = 198;
},
{
glyphname = B;
kernLeft = H;
kernRight = H;
lastChange = "2025-03-02 22:39:42 +0000";
layers = (
{
anchors = (
{
name = bottom;
pos = (1028,0);
},
{
name = center;
pos = (514,352);
},
{
name = top;
pos = (1028,1408);
}
);
layerId = m01;
shapes = (
{
closed = 1;
nodes = (
(1453,0,ls),
(1789,0,o),
(1936,117,o),
(1936,383,cs),
(1936,413,ls),
(1936,577,o),
(1861,666,o),
(1690,705,c),
(1820,749,o),
(1877,840,o),
(1877,1006,cs),
(1877,1036,ls),
(1877,1295,o),
(1730,1408,o),
(1393,1408,cs),
(254,1408,ls),
(206,1408,o),
(180,1382,o),
(180,1334,cs),
(180,74,ls),
(180,26,o),
(206,0,o),
(254,0,cs)
);
},
{
closed = 1;
nodes = (
(356,630,l),
(1442,630,ls),
(1681,630,o),
(1760,575,o),
(1760,410,cs),
(1760,386,ls),
(1760,205,o),
(1681,144,o),
(1442,144,cs),
(356,144,l)
);
},
{
closed = 1;
nodes = (
(356,1264,l),
(1383,1264,ls),
(1622,1264,o),
(1701,1206,o),
(1701,1033,cs),
(1701,1009,ls),
(1701,837,o),
(1622,779,o),
(1383,779,cs),
(356,779,l)
);
}
);
width = 2056;
},
{
anchors = (
{
name = bottom;
pos = (944,0);
},
{
name = center;
pos = (430,357);
},
{
name = top;
pos = (944,1429);
}
);
layerId = m002;
shapes = (
{
closed = 1;
nodes = (
(1144,0,ls),
(1695,0,o),
(1852,78,o),
(1852,383,cs),
(1852,413,ls),
(1852,576,o),
(1720,676,o),
(1549,715,c),
(1680,759,o),
(1792,855,o),
(1792,1016,cs),
(1792,1046,ls),
(1792,1351,o),
(1636,1429,o),
(1085,1429,cs),
(169,1429,ls),
(121,1429,o),
(95,1403,o),
(95,1355,cs),
(95,74,ls),
(95,26,o),
(121,0,o),
(169,0,cs)
);
},
{
closed = 1;
nodes = (
(497,564,l),
(1131,564,ls),
(1368,564,o),
(1450,529,o),
(1450,461,cs),
(1450,438,ls),
(1450,369,o),
(1368,335,o),
(1131,335,cs),
(497,335,l)
);
},
{
closed = 1;
nodes = (
(497,1094,l),
(1072,1094,ls),
(1308,1094,o),
(1390,1065,o),
(1390,997,cs),
(1390,974,ls),
(1390,905,o),
(1308,865,o),
(1072,865,cs),
(497,865,l)
);
}
);
width = 1971;
}
);
unicode = 66;
},
{
glyphname = C;
kernLeft = O;
kernRight = O;
lastChange = "2025-03-02 22:37:28 +0000";
layers = (
{
anchors = (
{
name = bottom;
pos = (997,0);
},
{
name = top;
pos = (997,1408);
}
);
layerId = m01;
shapes = (
{
closed = 1;
nodes = (
(1150,-30,ls),
(1575,-30,o),
(1789,98,o),
(1851,392,cs),
(1861,441,o),
(1827,469,o),
(1779,469,cs),
(1747,469,ls),
(1699,469,o),
(1684,443,o),
(1670,396,cs),
(1607,185,o),
(1473,114,o),
(1131,114,cs),
(865,114,ls),
(438,114,o),
(296,257,o),
(296,686,cs),
(296,722,ls),
(296,1151,o),
(438,1294,o),
(865,1294,cs),
(1131,1294,ls),
(1473,1294,o),
(1608,1224,o),
(1670,1012,cs),
(1684,965,o),
(1699,939,o),
(1747,939,cs),
(1779,939,ls),
(1827,939,o),
(1862,965,o),
(1851,1016,cs),
(1788,1310,o),
(1575,1438,o),
(1150,1438,cs),
(846,1438,ls),
(341,1438,o),
(120,1222,o),
(120,727,cs),
(120,681,ls),
(120,186,o),
(341,-30,o),
(846,-30,cs)
);
}
);
width = 1973;
},
{
anchors = (
{
name = bottom;
pos = (997,0);
},
{
name = top;
pos = (997,1459);
}
);
layerId = m002;
shapes = (
{
closed = 1;
nodes = (
(1038,-30,ls),
(1607,-30,o),
(1841,72,o),
(1872,504,cs),
(1876,554,o),
(1848,581,o),
(1800,581,cs),
(1546,581,ls),
(1499,581,o),
(1477,556,o),
(1470,508,cs),
(1448,351,o),
(1310,305,o),
(1019,305,cs),
(976,305,ls),
(644,305,o),
(521,360,o),
(521,697,cs),
(521,733,ls),
(521,1070,o),
(644,1124,o),
(976,1124,cs),
(1019,1124,ls),
(1310,1124,o),
(1448,1079,o),
(1470,921,cs),
(1477,874,o),
(1499,849,o),
(1546,849,cs),
(1800,849,ls),
(1848,849,o),
(1876,876,o),
(1872,925,cs),
(1841,1358,o),
(1607,1459,o),
(1038,1459,cs),
(957,1459,ls),
(354,1459,o),
(119,1342,o),
(119,737,cs),
(119,692,ls),
(119,87,o),
(354,-30,o),
(957,-30,cs)
);
}
);
width = 1991;
}
);
unicode = 67;
},
{
glyphname = D;
kernLeft = H;
kernRight = O;
lastChange = "2025-03-03 01:46:41 +0000";
layers = (
{
anchors = (
{
name = bottom;
pos = (1028,0);
},
{
name = center;
pos = (514,704);
},
{
name = top;
pos = (1028,1408);
}
);
layerId = m01;
shapes = (
{
closed = 1;
nodes = (
(180,74,ls),
(180,26,o),
(206,0,o),
(254,0,cs),
(1453,0,ls),
(1780,0,o),
(1936,254,o),
(1936,608,cs),
(1936,799,ls),
(1936,1153,o),
(1780,1408,o),
(1453,1408,cs),
(254,1408,ls),
(206,1408,o),
(180,1382,o),
(180,1334,cs)
);
},
{
closed = 1;
nodes = (
(1440,1264,ls),
(1676,1264,o),
(1758,1045,o),
(1758,797,cs),
(1758,611,ls),
(1758,363,o),
(1676,144,o),
(1440,144,cs),
(358,144,l),
(358,1264,l)
);
}
);
width = 2056;
},
{
anchors = (
{
name = bottom;
pos = (1027,0);
},
{
name = center;
pos = (417,715);
},
{
name = top;
pos = (1027,1429);
}
);
layerId = m002;
shapes = (
{
closed = 1;
nodes = (
(179,74,ls),
(179,26,o),
(205,0,o),
(253,0,cs),
(1228,0,ls),
(1779,0,o),
(1935,264,o),
(1935,618,cs),
(1935,811,ls),
(1935,1165,o),
(1779,1429,o),
(1228,1429,cs),
(253,1429,ls),
(205,1429,o),
(179,1403,o),
(179,1355,cs)
);
},
{
closed = 1;
nodes = (
(1215,1094,ls),
(1452,1094,o),
(1533,974,o),
(1533,809,cs),
(1533,621,ls),
(1533,464,o),
(1452,335,o),
(1215,335,cs),
(581,335,l),
(581,1094,l)
);
}
);
width = 2055;
}
);
unicode = 68;
},
{
glyphname = E;
kernLeft = H;
kernRight = Z;
lastChange = "2025-03-03 02:00:20 +0000";
layers = (
{
anchors = (
{
name = bottom;
pos = (868,0);
},
{
name = ogonek;
pos = (1512,10);
},
{
name = top;
pos = (868,1408);
},
{
name = topleft;
pos = (20,1408);
}
);
layerId = m01;
shapes = (
{
closed = 1;
nodes = (
(1553,0,ls),
(1594,0,o),
(1620,23,o),
(1620,64,cs),
(1620,80,ls),
(1620,121,o),
(1594,144,o),
(1553,144,cs),
(358,144,l),
(358,632,l),
(1378,632,ls),
(1419,632,o),
(1445,655,o),
(1445,696,cs),
(1445,712,ls),
(1445,753,o),
(1419,776,o),
(1378,776,cs),
(358,776,l),
(358,1264,l),
(1553,1264,ls),
(1594,1264,o),
(1620,1287,o),
(1620,1328,cs),
(1620,1344,ls),
(1620,1385,o),
(1594,1408,o),
(1553,1408,cs),
(254,1408,ls),
(206,1408,o),
(180,1382,o),
(180,1337,cs),
(180,74,ls),
(180,26,o),
(206,0,o),
(254,0,cs)
);
}
);
width = 1680;
},
{
anchors = (
{
name = bottom;
pos = (893,0);
},
{
name = ogonek;
pos = (1560,9);
},
{
name = top;
pos = (893,1429);
},
{
name = topleft;
pos = (19,1429);
}
);
layerId = m002;
shapes = (
{
closed = 1;
nodes = (
(1541,0,ls),
(1582,0,o),
(1608,26,o),
(1608,67,cs),
(1608,268,ls),
(1608,309,o),
(1582,335,o),
(1541,335,cs),
(581,335,l),
(581,547,l),
(1366,547,ls),
(1407,547,o),
(1433,573,o),
(1433,614,cs),
(1433,815,ls),
(1433,856,o),
(1407,882,o),
(1366,882,cs),
(581,882,l),
(581,1094,l),
(1541,1094,ls),
(1582,1094,o),
(1608,1120,o),
(1608,1161,cs),
(1608,1362,ls),
(1608,1403,o),
(1582,1429,o),
(1541,1429,cs),
(253,1429,ls),
(205,1429,o),
(179,1403,o),
(179,1355,cs),
(179,74,ls),
(179,26,o),
(205,0,o),
(253,0,cs)
);
}
);
width = 1667;
}
);
unicode = 69;
},
{
glyphname = Schwa;
kernLeft = O;
kernRight = O;
lastChange = "2025-03-03 01:51:36 +0000";
layers = (
{
anchors = (
{
name = bottom;
pos = (1022,-30);
},
{
name = center;
pos = (1607,640);
},
{
name = top;
pos = (1022,1429);
}
);
layerId = m01;
shapes = (
{
closed = 1;
nodes = (
(1178,-30,ls),
(1684,-30,o),
(1905,186,o),
(1905,681,cs),
(1905,727,ls),
(1905,1222,o),
(1684,1438,o),
(1178,1438,cs),
(874,1438,ls),
(449,1438,o),
(236,1310,o),
(173,1016,cs),
(162,966,o),
(196,939,o),
(245,939,cs),
(277,939,ls),
(325,939,o),
(340,965,o),
(354,1012,cs),
(416,1224,o),
(551,1294,o),
(893,1294,cs),
(1159,1294,ls),
(1587,1294,o),
(1729,1147,o),
(1729,704,c),
(225,704,ls),
(176,704,o),
(148,677,o),
(150,626,cs),
(164,170,o),
(385,-30,o),
(874,-30,cs)
);
},
{
closed = 1;
nodes = (
(499,114,o),
(359,226,o),
(330,560,c),
(1724,560,l),
(1696,229,o),
(1542,114,o),
(1159,114,cs),
(893,114,ls)
);
}
);
width = 2025;
},
{
anchors = (
{
name = bottom;
pos = (973,-30);
},
{
name = center;
pos = (1637.142,640.174);
},
{
name = top;
pos = (973,1429);
}
);
layerId = m002;
shapes = (
{
closed = 1;
nodes = (
(1209,-30,ls),
(1700,-30,o),
(1935,87,o),
(1935,692,cs),
(1935,737,ls),
(1935,1342,o),
(1700,1459,o),
(1209,1459,cs),
(874,1459,ls),
(420,1459,o),
(186,1342,o),
(152,1037,cs),
(147,987,o),
(176,960,o),
(225,960,cs),
(478,960,ls),
(525,960,o),
(548,980,o),
(554,1025,cs),
(560,1070,o),
(682,1124,o),
(894,1124,cs),
(1190,1124,ls),
(1397,1124,o),
(1518,1077,o),
(1532,791,c),
(224,791,ls),
(175,791,o),
(147,764,o),
(149,714,cs),
(186,87,o),
(420,-30,o),
(874,-30,cs)
);
},
{
closed = 1;
nodes = (
(682,305,o),
(560,360,o),
(556,489,c),
(1509,489,l),
(1463,335,o),
(1353,305,o),
(1190,305,cs),
(894,305,ls)
);
}
);
width = 2054;
}
);
unicode = 399;
},
{
glyphname = Ezh;
kernLeft = Z;
kernRight = Z;
lastChange = "2025-03-03 01:56:07 +0000";
layers = (
{
anchors = (
{
name = bottom;
pos = (693,0);
},
{
name = top;
pos = (693,1408);
}
);
layerId = m01;
shapes = (
{
closed = 1;
nodes = (
(727,-28,ls),
(1106,-17,o),
(1272,97,o),
(1272,346,cs),
(1272,390,ls),
(1272,650,o),
(1136,764,o),
(825,764,cs),
(800,764,l),
(1264,1211,ls),
(1290,1237,o),
(1302,1264,o),
(1302,1302,cs),
(1302,1336,ls),
(1302,1384,o),
(1276,1410,o),
(1227,1410,cs),
(158,1408,ls),
(110,1408,o),
(84,1384,o),
(84,1336,cs),
(84,1322,ls),
(84,1274,o),
(110,1248,o),
(158,1248,cs),
(1049,1248,l),
(475,693,ls),
(427,646,o),
(447,603,o),
(513,603,cs),
(806,603,ls),
(1021,603,o),
(1093,549,o),
(1093,386,cs),
(1093,350,ls),
(1093,187,o),
(1002,133,o),
(728,133,cs),
(658,133,ls),
(393,133,o),
(295,189,o),
(263,358,cs),
(250,421,o),
(216,438,o),
(172,395,cs),
(127,350,ls),
(100,323,o),
(87,296,o),
(93,258,cs),
(128,47,o),
(301,-41,o),
(659,-30,cs)
);
}
);
width = 1386;
},
{
anchors = (
{
name = bottom;
pos = (755,0);
},
{
name = top;
pos = (755,1429);
}
);
layerId = m002;
shapes = (
{
closed = 1;
nodes = (
(782,-30,ls),
(1133,-30,o),
(1368,84,o),
(1368,350,cs),
(1368,395,ls),
(1368,661,o),
(1131,739,o),
(1098,749,cs),
(1089,752,l),
(1359,1023,ls),
(1385,1049,o),
(1398,1087,o),
(1398,1135,cs),
(1398,1355,ls),
(1398,1403,o),
(1372,1429,o),
(1323,1429,cs),
(156,1429,ls),
(108,1429,o),
(82,1403,o),
(82,1355,cs),
(82,1135,ls),
(82,1087,o),
(108,1061,o),
(156,1061,cs),
(940,1061,l),
(525,646,ls),
(478,599,o),
(497,555,o),
(563,555,cs),
(716,555,ls),
(926,555,o),
(966,533,o),
(966,459,cs),
(966,435,ls),
(966,360,o),
(926,339,o),
(716,339,cs),
(641,339,ls),
(451,339,o),
(406,360,o),
(368,399,cs),
(336,434,o),
(313,434,o),
(278,399,cs),
(140,261,ls),
(113,234,o),
(100,207,o),
(107,167,cs),
(121,84,o),
(355,-30,o),
(707,-30,cs)
);
}
);
width = 1479;
}
);
unicode = 439;
},
{
glyphname = F;
kernLeft = H;
kernRight = V;
lastChange = "2025-03-03 02:00:40 +0000";
layers = (
{
anchors = (
{
name = bottom;
pos = (768,0);
},
{
name = top;
pos = (768,1408);
}
);
layerId = m01;
shapes = (
{
closed = 1;
nodes = (
(120,74,ls),
(120,26,o),
(146,0,o),
(194,0,cs),
(224,0,ls),
(272,0,o),
(298,26,o),
(298,74,cs),
(298,632,l),
(1238,632,ls),
(1279,632,o),
(1305,655,o),
(1305,696,cs),
(1305,712,ls),
(1305,753,o),
(1279,776,o),
(1238,776,cs),
(298,776,l),
(298,1264,l),
(1405,1264,ls),
(1453,1264,o),
(1480,1287,o),
(1480,1328,cs),
(1480,1344,ls),
(1480,1385,o),
(1453,1408,o),
(1405,1408,cs),
(194,1408,ls),
(146,1408,o),
(120,1382,o),
(120,1334,cs)
);
}
);
width = 1564;
},
{
anchors = (
{
name = bottom;
pos = (800,0);
},
{
name = top;
pos = (800,1429);
}
);
layerId = m002;
shapes = (
{
closed = 1;
nodes = (
(179,74,ls),
(179,26,o),
(205,0,o),
(253,0,cs),
(506,0,ls),
(555,0,o),
(581,26,o),
(581,74,cs),
(581,547,l),
(1277,547,ls),
(1318,547,o),
(1344,573,o),
(1344,614,cs),
(1344,815,ls),
(1344,856,o),
(1318,882,o),
(1277,882,cs),
(581,882,l),
(581,1094,l),
(1444,1094,ls),
(1492,1094,o),
(1519,1120,o),
(1519,1161,cs),
(1519,1362,ls),
(1519,1403,o),
(1492,1429,o),
(1444,1429,cs),
(253,1429,ls),
(205,1429,o),
(179,1403,o),
(179,1355,cs)
);
}
);
width = 1600;
}
);
unicode = 70;
},
{
glyphname = G;
kernLeft = O;
kernRight = O;
lastChange = "2025-03-03 01:57:06 +0000";
layers = (
{
anchors = (
{
name = bottom;
pos = (999,-22);
},
{
name = center;
pos = (418,632);
},
{
name = top;
pos = (999,1438);
}
);
layerId = m01;
shapes = (
{
closed = 1;
nodes = (
(1151,-30,ls),
(1640,-30,o),
(1861,170,o),
(1875,626,cs),
(1877,677,o),
(1849,704,o),
(1800,704,cs),
(1066,704,ls),
(1025,704,o),
(999,681,o),
(999,640,cs),
(999,624,ls),
(999,583,o),
(1025,560,o),
(1066,560,cs),
(1695,560,l),
(1666,226,o),
(1526,114,o),
(1132,114,cs),
(866,114,ls),
(439,114,o),
(296,257,o),
(296,686,cs),
(296,722,ls),
(296,1151,o),
(439,1294,o),
(866,1294,cs),
(1132,1294,ls),
(1474,1294,o),
(1609,1224,o),
(1671,1012,cs),
(1685,965,o),
(1700,939,o),
(1748,939,cs),
(1780,939,ls),
(1829,939,o),
(1863,966,o),
(1852,1016,cs),
(1789,1310,o),
(1576,1438,o),
(1151,1438,cs),
(847,1438,ls),
(341,1438,o),
(120,1222,o),
(120,727,cs),
(120,681,ls),
(120,186,o),
(341,-30,o),
(847,-30,cs)
);
}
);
width = 2025;
},
{
anchors = (
{
name = bottom;
pos = (1012,-30);
},
{
name = center;
pos = (417,640);
},
{
name = top;
pos = (1012,1459);
}
);
layerId = m002;
shapes = (
{
closed = 1;
nodes = (
(1180,-30,ls),
(1634,-30,o),
(1868,87,o),
(1905,714,cs),
(1907,764,o),
(1879,791,o),
(1830,791,cs),
(1050,791,ls),
(1009,791,o),
(983,765,o),
(983,724,cs),
(983,556,ls),
(983,515,o),
(1009,489,o),
(1050,489,cs),
(1498,489,l),
(1494,360,o),
(1372,305,o),
(1160,305,cs),
(864,305,ls),
(644,305,o),
(521,360,o),
(521,697,cs),
(521,733,ls),
(521,1070,o),
(644,1124,o),
(864,1124,cs),
(1160,1124,ls),
(1372,1124,o),
(1494,1070,o),
(1500,1025,cs),
(1506,980,o),
(1529,960,o),
(1576,960,cs),
(1829,960,ls),
(1878,960,o),
(1907,987,o),
(1902,1037,cs),
(1868,1342,o),
(1634,1459,o),
(1180,1459,cs),
(845,1459,ls),
(354,1459,o),
(119,1342,o),
(119,737,cs),
(119,692,ls),
(119,87,o),
(354,-30,o),
(845,-30,cs)
);
}
);
width = 2054;
}
);
unicode = 71;
},
{
glyphname = H;
kernLeft = H;
kernRight = H;
lastChange = "2025-03-03 01:59:38 +0000";
layers = (
{
anchors = (
{
name = bottom;
pos = (1028,0);
},
{
name = center;
pos = (1028,1072);
},
{
name = top;
pos = (1028,1408);
},
{
name = topleft;
pos = (20,1408);
}
);
layerId = m01;
shapes = (
{
closed = 1;
nodes = (
(180,74,ls),
(180,26,o),
(206,0,o),
(254,0,cs),
(282,0,ls),
(330,0,o),
(356,26,o),
(356,74,cs),
(356,632,l),
(1700,632,l),
(1700,74,ls),
(1700,26,o),
(1726,0,o),
(1774,0,cs),
(1802,0,ls),
(1850,0,o),
(1876,26,o),
(1876,74,cs),
(1876,1334,ls),
(1876,1382,o),
(1850,1408,o),
(1802,1408,cs),
(1774,1408,ls),
(1726,1408,o),
(1700,1382,o),
(1700,1334,cs),
(1700,776,l),
(356,776,l),
(356,1334,ls),
(356,1382,o),
(330,1408,o),
(282,1408,cs),
(254,1408,ls),
(206,1408,o),
(180,1382,o),
(180,1334,cs)
);
}
);
width = 2056;
},
{
anchors = (
{
name = bottom;
pos = (1027,0);
},
{
name = center;
pos = (1027,1072);
},
{
name = top;
pos = (1027,1429);
},
{
name = topleft;
pos = (63,1429);
}
);
layerId = m002;
shapes = (
{
closed = 1;
nodes = (
(179,74,ls),
(179,26,o),
(205,0,o),
(253,0,cs),
(506,0,ls),
(555,0,o),
(581,26,o),
(581,74,cs),
(581,547,l),
(1474,547,l),
(1474,74,ls),
(1474,26,o),
(1500,0,o),
(1548,0,cs),
(1801,0,ls),
(1850,0,o),
(1876,26,o),
(1876,74,cs),
(1876,1355,ls),
(1876,1403,o),
(1850,1429,o),
(1801,1429,cs),
(1548,1429,ls),
(1500,1429,o),
(1474,1403,o),
(1474,1355,cs),
(1474,882,l),
(581,882,l),
(581,1355,ls),
(581,1403,o),
(555,1429,o),
(506,1429,cs),
(253,1429,ls),
(205,1429,o),
(179,1403,o),
(179,1355,cs)
);
}
);
width = 2055;
}
);
unicode = 72;
},
{
glyphname = J;
kernLeft = O;
kernRight = O;
lastChange = "2025-03-02 22:38:59 +0000";
layers = (
{
anchors = (
{
name = bottom;
pos = (855,0);
},
{
name = top;
pos = (855,1408);
}
);
layerId = m01;
shapes = (
{
closed = 1;
nodes = (
(867,-30,ls),
(1344,-30,o),
(1553,186,o),
(1553,681,cs),
(1553,1328,ls),
(1553,1380,o),
(1525,1408,o),
(1473,1408,cs),
(1457,1408,ls),
(1405,1408,o),
(1377,1380,o),
(1377,1328,cs),
(1377,686,ls),
(1377,257,o),
(1245,114,o),
(848,114,cs),
(811,114,ls),
(475,114,o),
(347,201,o),
(300,460,cs),
(290,510,o),
(263,536,o),
(214,536,cs),
(196,536,ls),
(142,536,o),
(113,505,o),
(121,450,cs),
(171,116,o),
(375,-30,o),
(792,-30,cs)
);
}
);
width = 1721;
},
{
anchors = (
{
name = bottom;
pos = (833,0);
},
{
name = top;
pos = (1346,1429);
}
);
layerId = m002;
shapes = (
{
closed = 1;
nodes = (
(932,-30,ls),
(1312,-30,o),
(1547,87,o),
(1547,692,cs),
(1547,1356,ls),
(1547,1404,o),
(1520,1429,o),
(1472,1429,cs),
(1219,1429,ls),
(1172,1429,o),
(1145,1401,o),
(1145,1354,cs),
(1145,697,ls),
(1145,360,o),
(1022,305,o),
(913,305,cs),
(751,305,ls),
(668,305,o),
(540,352,o),
(521,461,cs),
(513,509,o),
(493,536,o),
(446,536,cs),
(193,536,ls),
(144,536,o),
(116,509,o),
(120,459,cs),
(146,74,o),
(375,-30,o),
(731,-30,cs)
);
}
);
width = 1711;
}
);
unicode = 74;
},
{
glyphname = K;
kernLeft = H;
kernRight = Z;
lastChange = "2025-03-02 20:45:13 +0000";
layers = (
{
anchors = (
{
name = bottom;
pos = (920,0);
},
{
name = top;
pos = (920,1408);
}
);
layerId = m01;
shapes = (
{
closed = 1;
nodes = (
(1744,0,ls),
(1817,0,o),
(1833,49,o),
(1772,90,cs),
(843,704,l),
(1734,1317,ls),
(1790,1355,o),
(1774,1408,o),
(1703,1408,cs),
(1631,1408,ls),
(1594,1408,o),
(1568,1397,o),
(1539,1377,cs),
(666,776,l),
(356,776,l),
(356,1334,ls),
(356,1382,o),
(330,1408,o),
(282,1408,cs),
(254,1408,ls),
(206,1408,o),
(180,1382,o),
(180,1334,cs),
(180,74,ls),
(180,26,o),
(206,0,o),
(254,0,cs),
(282,0,ls),
(330,0,o),
(356,26,o),
(356,74,cs),
(356,632,l),
(662,632,l),
(1576,28,ls),
(1606,8,o),
(1632,0,o),
(1668,0,cs)
);
}
);
width = 1870;
},
{
anchors = (
{
name = bottom;
pos = (912,0);
},
{
name = top;
pos = (912,1429);
}
);
layerId = m002;
shapes = (
{
closed = 1;
nodes = (
(1731,0,ls),
(1803,0,o),
(1811,37,o),
(1759,90,cs),
(1145,715,l),
(1708,1338,ls),
(1756,1390,o),
(1748,1429,o),
(1678,1429,cs),
(1313,1429,ls),
(1277,1429,o),
(1246,1426,o),
(1221,1398,cs),
(758,882,l),
(581,882,l),
(581,1355,ls),
(581,1403,o),
(555,1429,o),
(506,1429,cs),
(253,1429,ls),
(205,1429,o),
(179,1403,o),
(179,1355,cs),
(179,74,ls),
(179,26,o),
(205,0,o),
(253,0,cs),
(506,0,ls),
(555,0,o),
(581,26,o),
(581,74,cs),
(581,547,l),
(748,547,l),
(1257,28,ls),
(1282,2,o),
(1313,0,o),
(1349,0,cs)
);
}
);
width = 1852;
}
);
unicode = 75;
},
{
glyphname = L;
kernLeft = H;
kernRight = A;
lastChange = "2025-03-03 02:03:45 +0000";
layers = (
{
anchors = (
{
name = bottom;
pos = (835,0);
},
{
name = center;
pos = (268,704);
},
{
name = top;
pos = (268,1408);
},
{
name = topright;
pos = (356,1536);
}
);
layerId = m01;
shapes = (
{
closed = 1;
nodes = (
(1423,0,ls),
(1464,0,o),
(1490,23,o),
(1490,64,cs),
(1490,80,ls),
(1490,121,o),
(1464,144,o),
(1423,144,cs),
(356,144,l),
(356,1334,ls),
(356,1382,o),
(330,1408,o),
(282,1408,cs),
(254,1408,ls),
(206,1408,o),
(180,1382,o),
(180,1334,cs),
(180,74,ls),
(180,26,o),
(206,0,o),
(254,0,cs)
);
}
);
width = 1550;
},
{
anchors = (
{
name = bottom;
pos = (834,0);
},
{
name = center;
pos = (380,715);
},
{
name = top;
pos = (380,1429);
},
{
name = topright;
pos = (581,1536);
}
);
layerId = m002;
shapes = (
{
closed = 1;
nodes = (
(1422,0,ls),
(1463,0,o),
(1489,26,o),
(1489,67,cs),
(1489,268,ls),
(1489,309,o),
(1463,335,o),
(1422,335,cs),
(581,335,l),
(581,1355,ls),
(581,1403,o),
(555,1429,o),
(506,1429,cs),
(253,1429,ls),
(205,1429,o),
(179,1403,o),
(179,1355,cs),
(179,74,ls),
(179,26,o),
(205,0,o),
(253,0,cs)
);
}
);
width = 1548;
}
);
unicode = 76;
},
{
glyphname = M;
kernLeft = H;
kernRight = H;
lastChange = "2025-03-02 21:06:10 +0000";
layers = (
{
anchors = (
{
name = bottom;
pos = (1266,0);
},
{
name = top;
pos = (1266,1408);
}
);
layerId = m01;
shapes = (
{
closed = 1;
nodes = (
(180,74,ls),
(180,26,o),
(206,0,o),
(254,0,cs),
(282,0,ls),
(330,0,o),
(356,26,o),
(356,74,cs),
(356,1264,l),
(396,1264,l),
(1140,147,ls),
(1164,112,o),
(1190,97,o),
(1230,97,cs),
(1302,97,ls),
(1342,97,o),
(1368,112,o),
(1392,147,cs),
(2136,1264,l),
(2176,1264,l),
(2176,74,ls),
(2176,26,o),
(2202,0,o),
(2250,0,cs),
(2278,0,ls),
(2326,0,o),
(2352,26,o),
(2352,74,cs),
(2352,1334,ls),
(2352,1382,o),
(2326,1408,o),
(2278,1408,cs),
(2096,1408,ls),
(2056,1408,o),
(2030,1392,o),
(2007,1358,cs),
(1266,246,l),
(525,1358,ls),
(502,1392,o),
(476,1408,o),
(436,1408,cs),
(254,1408,ls),
(206,1408,o),
(180,1382,o),
(180,1334,cs)
);
}
);
width = 2532;
},
{
anchors = (
{
name = bottom;
pos = (1265,0);
},
{
name = top;
pos = (1265,1429);
}
);
layerId = m002;
shapes = (
{
closed = 1;
nodes = (
(179,74,ls),
(179,26,o),
(205,0,o),
(253,0,cs),
(506,0,ls),
(555,0,o),
(581,26,o),
(581,74,cs),
(581,1094,l),
(599,1094,l),
(941,147,ls),
(954,110,o),
(990,97,o),
(1030,97,cs),
(1501,97,ls),
(1541,97,o),
(1577,110,o),
(1590,147,cs),
(1932,1094,l),
(1950,1094,l),
(1950,74,ls),
(1950,26,o),
(1976,0,o),
(2025,0,cs),
(2278,0,ls),
(2326,0,o),
(2352,26,o),
(2352,74,cs),
(2352,1355,ls),
(2352,1403,o),
(2326,1429,o),
(2278,1429,cs),
(1696,1429,ls),
(1656,1429,o),
(1620,1416,o),
(1607,1379,cs),
(1265,432,l),
(924,1379,ls),
(911,1416,o),
(875,1429,o),
(835,1429,cs),
(253,1429,ls),
(205,1429,o),
(179,1403,o),
(179,1355,cs)
);
}
);
width = 2531;
}
);
unicode = 77;
},
{
glyphname = N;
kernLeft = H;
kernRight = H;
lastChange = "2025-03-02 21:11:22 +0000";
layers = (
{
anchors = (
{
name = bottom;
pos = (1016,0);
},
{
name = top;
pos = (1016,1408);
}
);
layerId = m01;
shapes = (
{
closed = 1;
nodes = (
(252,0,ls),
(300,0,o),
(326,26,o),
(326,74,cs),
(326,1264,l),
(366,1264,l),
(1546,38,ls),
(1572,11,o),
(1600,0,o),
(1638,0,cs),
(1808,0,ls),
(1856,0,o),
(1882,26,o),
(1882,74,cs),
(1882,1334,ls),
(1882,1382,o),
(1856,1408,o),
(1808,1408,cs),
(1780,1408,ls),
(1731,1408,o),
(1706,1382,o),
(1706,1334,cs),
(1706,144,l),
(1666,144,l),
(486,1370,ls),
(460,1397,o),
(432,1408,o),
(394,1408,cs),
(224,1408,ls),
(176,1408,o),
(150,1382,o),
(150,1334,cs),
(150,74,ls),
(150,26,o),
(176,0,o),
(224,0,cs)
);
}
);
width = 2032;
},
{
anchors = (
{
name = bottom;
pos = (1005,0);
},
{
name = top;
pos = (1005,1429);
}
);
layerId = m002;
shapes = (
{
closed = 1;
nodes = (
(476,0,ls),
(525,0,o),
(551,26,o),
(551,74,cs),
(551,1094,l),
(571,1094,l),
(1142,38,ls),
(1159,6,o),
(1196,0,o),
(1234,0,cs),
(1787,0,ls),
(1835,0,o),
(1861,26,o),
(1861,74,cs),
(1861,1355,ls),
(1861,1403,o),
(1835,1429,o),
(1787,1429,cs),
(1533,1429,ls),
(1485,1429,o),
(1459,1403,o),
(1459,1355,cs),
(1459,335,l),
(1439,335,l),
(868,1391,ls),
(850,1424,o),
(814,1429,o),
(776,1429,cs),
(223,1429,ls),
(175,1429,o),
(149,1403,o),
(149,1355,cs),
(149,74,ls),
(149,26,o),
(175,0,o),
(223,0,cs)
);
}
);
width = 2010;
}
);
unicode = 78;
},
{
glyphname = O;
kernLeft = O;
kernRight = O;
lastChange = "2025-03-02 22:36:47 +0000";
layers = (
{
anchors = (
{
name = bottom;
pos = (998,0);
},
{
name = center;
pos = (998,704);
},
{
name = ogonek;
pos = (1796,10);
},
{
name = top;
pos = (998,1408);
},
{
name = topleft;
pos = (20,1408);
},
{
name = topright;
pos = (1976,1408);
}
);
layerId = m01;
shapes = (
{
closed = 1;
nodes = (
(120,682,ls),
(120,187,o),
(341,-30,o),
(845,-30,cs),
(1151,-30,ls),
(1655,-30,o),
(1876,187,o),
(1876,682,cs),
(1876,726,ls),
(1876,1221,o),
(1655,1438,o),
(1151,1438,cs),
(845,1438,ls),
(341,1438,o),
(120,1221,o),
(120,726,cs)
);
},
{
closed = 1;
nodes = (
(296,1151,o),
(438,1294,o),
(865,1294,cs),
(1131,1294,ls),
(1558,1294,o),
(1700,1151,o),
(1700,722,cs),
(1700,686,ls),
(1700,257,o),
(1558,114,o),
(1131,114,cs),
(865,114,ls),
(438,114,o),
(296,257,o),
(296,686,cs),
(296,722,ls)
);
}
);
width = 1996;
},
{
anchors = (
{
name = bottom;
pos = (997,0);
},
{
name = center;
pos = (997,715);
},
{
name = ogonek;
pos = (1710,9);
},
{
name = top;
pos = (997,1459);
},
{
name = topleft;
pos = (56,1429);
},
{
name = topright;
pos = (1704,1286);
}
);
layerId = m002;
shapes = (
{
closed = 1;
nodes = (
(119,692,ls),
(119,87,o),
(354,-30,o),
(845,-30,cs),
(1150,-30,ls),
(1641,-30,o),
(1876,87,o),
(1876,692,cs),
(1876,737,ls),
(1876,1342,o),
(1641,1459,o),
(1150,1459,cs),
(845,1459,ls),
(354,1459,o),
(119,1342,o),
(119,737,cs)
);
},
{
closed = 1;
nodes = (
(521,1070,o),
(644,1124,o),
(864,1124,cs),
(1131,1124,ls),
(1351,1124,o),
(1474,1070,o),
(1474,733,cs),
(1474,697,ls),
(1474,360,o),
(1351,305,o),
(1131,305,cs),
(864,305,ls),
(644,305,o),
(521,360,o),
(521,697,cs),
(521,733,ls)
);
}
);
width = 1995;
}
);
unicode = 79;
},
{
glyphname = OE;
kernLeft = O;
kernRight = Z;
lastChange = "2025-03-03 02:12:17 +0000";
layers = (
{
anchors = (
{
name = bottom;
pos = (1221,0);
},
{
name = top;
pos = (1221,1408);
}
);
layerId = m01;
shapes = (
{
closed = 1;
nodes = (
(120,682,ls),
(120,187,o),
(284,-30,o),
(660,-30,cs),
(890,-30,ls),
(1265,-30,o),
(1429,187,o),
(1429,682,cs),
(1429,726,ls),
(1429,1221,o),
(1265,1438,o),
(890,1438,cs),
(660,1438,ls),
(284,1438,o),
(120,1221,o),
(120,726,cs)
);
},
{
closed = 1;
nodes = (
(296,1151,o),
(391,1294,o),
(676,1294,cs),
(872,1294,ls),
(1158,1294,o),
(1253,1151,o),
(1253,722,cs),
(1253,686,ls),
(1253,257,o),
(1158,114,o),
(872,114,cs),
(676,114,ls),
(391,114,o),
(296,257,o),
(296,686,cs),
(296,722,ls)
);
},
{
closed = 1;
nodes = (
(2315,0,ls),
(2356,0,o),
(2382,23,o),
(2382,64,cs),
(2382,80,ls),
(2382,121,o),
(2356,144,o),
(2315,144,cs),
(1429,144,l),
(1429,632,l),
(2140,632,ls),
(2181,632,o),
(2207,655,o),
(2207,696,cs),
(2207,712,ls),
(2207,753,o),
(2181,776,o),
(2140,776,cs),
(1429,776,l),
(1429,1264,l),
(2315,1264,ls),
(2356,1264,o),
(2382,1287,o),
(2382,1328,cs),
(2382,1344,ls),
(2382,1385,o),
(2356,1408,o),
(2315,1408,cs),
(1327,1408,ls),
(1279,1408,o),
(1253,1382,o),
(1253,1334,cs),
(1253,74,ls),
(1253,26,o),
(1279,0,o),
(1327,0,cs)
);
}
);
width = 2442;
},
{
anchors = (
{
name = bottom;
pos = (1333,0);
},
{
name = top;
pos = (1333,1408);
}
);
layerId = m002;
shapes = (
{
closed = 1;
nodes = (
(119,692,ls),
(119,87,o),
(354,-19,o),
(715,-19,cs),
(1057,-19,ls),
(1418,-19,o),
(1653,87,o),
(1653,692,cs),
(1653,737,ls),
(1653,1349,o),
(1418,1448,o),
(1057,1448,cs),
(715,1448,ls),
(354,1448,o),
(119,1342,o),
(119,737,cs)
);
},
{
closed = 1;
nodes = (
(521,1055,o),
(644,1124,o),
(771,1124,cs),
(1000,1124,ls),
(1128,1124,o),
(1251,1055,o),
(1251,733,cs),
(1251,697,ls),
(1251,375,o),
(1128,305,o),
(1000,305,cs),
(771,305,ls),
(644,305,o),
(521,375,o),
(521,697,cs),
(521,733,ls)
);
},
{
closed = 1;
nodes = (
(2538,0,ls),
(2579,0,o),
(2605,26,o),
(2605,67,cs),
(2605,268,ls),
(2605,309,o),
(2579,335,o),
(2538,335,cs),
(1653,335,l),
(1653,547,l),
(2363,547,ls),
(2404,547,o),
(2430,573,o),
(2430,614,cs),
(2430,815,ls),
(2430,856,o),
(2404,882,o),
(2363,882,cs),
(1653,882,l),
(1653,1094,l),
(2538,1094,ls),
(2579,1094,o),
(2605,1120,o),
(2605,1161,cs),
(2605,1362,ls),
(2605,1403,o),
(2579,1429,o),
(2538,1429,cs),
(1325,1429,ls),
(1277,1429,o),
(1251,1403,o),
(1251,1355,cs),
(1251,74,ls),
(1251,26,o),
(1277,0,o),
(1325,0,cs)
);
}
);
width = 2665;
}
);
unicode = 338;
},
{
glyphname = P;
kernLeft = H;
kernRight = O;
lastChange = "2025-03-02 22:38:11 +0000";
layers = (
{
anchors = (
{
name = bottom;
pos = (928,0);
},
{
name = top;
pos = (928,1429);
}
);
layerId = m01;
shapes = (
{
closed = 1;
nodes = (
(282,0,ls),
(330,0,o),
(356,26,o),
(356,74,cs),
(356,536,l),
(1304,536,ls),
(1641,536,o),
(1788,664,o),
(1788,957,cs),
(1788,987,ls),
(1788,1280,o),
(1641,1408,o),
(1304,1408,cs),
(254,1408,ls),
(206,1408,o),
(180,1382,o),
(180,1334,cs),
(180,74,ls),
(180,26,o),
(206,0,o),
(254,0,cs)
);
},
{
closed = 1;
nodes = (
(356,1264,l),
(1281,1264,ls),
(1529,1264,o),
(1612,1194,o),
(1612,985,cs),
(1612,959,ls),
(1612,750,o),
(1529,680,o),
(1281,680,cs),
(356,680,l)
);
}
);
width = 1856;
},
{
anchors = (
{
name = bottom;
pos = (927,0);
},
{
name = top;
pos = (927,1429);
}
);
layerId = m002;
shapes = (
{
closed = 1;
nodes = (
(506,0,ls),
(555,0,o),
(581,26,o),
(581,74,cs),
(581,443,l),
(1191,443,ls),
(1630,443,o),
(1787,540,o),
(1787,930,cs),
(1787,960,ls),
(1787,1351,o),
(1630,1429,o),
(1191,1429,cs),
(253,1429,ls),
(205,1429,o),
(179,1403,o),
(179,1355,cs),
(179,74,ls),
(179,26,o),
(205,0,o),
(253,0,cs)
);
},
{
closed = 1;
nodes = (
(581,1094,l),
(1066,1094,ls),
(1303,1094,o),
(1385,1058,o),
(1385,948,cs),
(1385,924,ls),
(1385,814,o),
(1303,778,o),
(1066,778,cs),
(581,778,l)
);
}
);
width = 1854;
}
);
unicode = 80;
},
{
glyphname = Thorn;
kernLeft = H;
kernRight = O;
lastChange = "2025-03-03 01:37:03 +0000";
layers = (
{
layerId = m01;
shapes = (
{
closed = 1;
nodes = (
(270,0,ls),
(318,0,o),
(344,26,o),
(344,74,cs),
(344,273,l),
(1304,273,ls),
(1641,273,o),
(1788,404,o),
(1788,705,cs),
(1788,725,ls),
(1788,1025,o),
(1641,1156,o),
(1304,1156,cs),
(344,1156,l),
(344,1355,ls),
(344,1403,o),
(318,1429,o),
(270,1429,cs),
(242,1429,ls),
(194,1429,o),
(168,1403,o),
(168,1355,cs),
(168,74,ls),
(168,26,o),
(194,0,o),
(242,0,cs)
);
},
{
closed = 1;
nodes = (
(344,1012,l),
(1294,1012,ls),
(1533,1012,o),
(1612,941,o),
(1612,727,cs),
(1612,703,ls),
(1612,489,o),
(1533,417,o),
(1294,417,cs),
(344,417,l)
);
}
);
width = 1872;
},
{
layerId = m002;
shapes = (
{
closed = 1;
nodes = (
(491,0,ls),
(540,0,o),
(566,26,o),
(566,74,cs),
(566,175,l),
(1288,175,ls),
(1615,175,o),
(1772,253,o),
(1772,700,cs),
(1772,730,ls),
(1772,1176,o),
(1615,1254,o),
(1288,1254,cs),
(566,1254,l),
(566,1355,ls),
(566,1403,o),
(540,1429,o),
(491,1429,cs),
(238,1429,ls),
(190,1429,o),
(164,1403,o),
(164,1355,cs),
(164,74,ls),
(164,26,o),
(190,0,o),
(238,0,cs)
);
},
{
closed = 1;
nodes = (
(566,919,l),
(1051,919,ls),
(1288,919,o),
(1370,892,o),
(1370,727,cs),
(1370,703,ls),
(1370,546,o),
(1288,510,o),
(1051,510,cs),
(566,510,l)
);
}
);
width = 1854;
}
);
unicode = 222;
},
{
glyphname = Q;
kernLeft = O;
kernRight = O;
lastChange = "2025-03-02 21:14:04 +0000";
layers = (
{
anchors = (
{
name = bottom;
pos = (975,0);
},
{
name = top;
pos = (975,1429);
}
);
layerId = m01;
shapes = (
{
ref = O;
},
{
closed = 1;
nodes = (
(1107,578,ls),
(1080,539,o),
(1086,502,o),
(1125,474,cs),
(1821,-13,ls),
(1860,-41,o),
(1897,-33,o),
(1925,6,cs),
(1934,18,ls),
(1961,57,o),
(1955,94,o),
(1916,122,cs),
(1220,609,ls),
(1181,636,o),
(1144,629,o),
(1116,590,cs)
);
}
);
width = 1951;
},
{
anchors = (
{
name = bottom;
pos = (975,0);
},
{
name = top;
pos = (975,1429);
}
);
layerId = m002;
shapes = (
{
ref = O;
},
{
closed = 1;
nodes = (
(1048,495,ls),
(1020,456,o),
(1026,419,o),
(1065,391,cs),
(1761,-96,ls),
(1800,-124,o),
(1838,-116,o),
(1866,-77,cs),
(1992,100,ls),
(2020,140,o),
(2014,177,o),
(1974,205,cs),
(1278,691,ls),
(1239,719,o),
(1202,712,o),
(1174,673,cs)
);
}
);
width = 2009;
}
);
unicode = 81;
},
{
glyphname = R;
kernLeft = H;
kernRight = Z;
lastChange = "2025-03-02 22:38:31 +0000";
layers = (
{
anchors = (
{
name = bottom;
pos = (928,0);
},
{
name = top;
pos = (928,1429);
}
);
layerId = m01;
shapes = (
{
closed = 1;
nodes = (
(282,0,ls),
(330,0,o),
(356,26,o),
(356,74,cs),
(356,536,l),
(1200,536,l),
(1566,48,ls),
(1592,14,o),
(1620,0,o),
(1659,0,cs),
(1717,0,ls),
(1772,0,o),
(1787,41,o),
(1749,91,cs),
(1413,539,l),
(1674,572,o),
(1788,700,o),
(1788,957,cs),
(1788,987,ls),
(1788,1280,o),
(1641,1408,o),
(1304,1408,cs),
(254,1408,ls),
(206,1408,o),
(180,1382,o),
(180,1334,cs),
(180,74,ls),
(180,26,o),
(206,0,o),
(254,0,cs)
);
},
{
closed = 1;
nodes = (
(356,1264,l),
(1281,1264,ls),
(1529,1264,o),
(1612,1194,o),
(1612,985,cs),
(1612,959,ls),
(1612,750,o),
(1529,680,o),
(1281,680,cs),
(356,680,l)
);
}
);
width = 1948;
},
{
anchors = (
{
name = bottom;
pos = (971,0);
},
{
name = top;
pos = (971,1429);
}
);
layerId = m002;
shapes = (
{
closed = 1;
nodes = (
(506,0,ls),
(555,0,o),
(581,26,o),
(581,74,cs),
(581,443,l),
(973,443,l),
(1274,46,ls),
(1297,15,o),
(1325,0,o),
(1364,0,cs),
(1722,0,ls),
(1777,0,o),
(1785,43,o),
(1748,91,cs),
(1483,447,l),
(1664,465,o),
(1787,564,o),
(1787,921,cs),
(1787,951,ls),
(1787,1351,o),
(1630,1429,o),
(1303,1429,cs),
(253,1429,ls),
(205,1429,o),
(179,1403,o),
(179,1355,cs),
(179,74,ls),
(179,26,o),
(205,0,o),
(253,0,cs)
);
},
{
closed = 1;
nodes = (
(581,1094,l),
(1066,1094,ls),
(1303,1094,o),
(1385,1058,o),
(1385,948,cs),
(1385,924,ls),
(1385,814,o),
(1303,778,o),
(1066,778,cs),
(581,778,l)
);
}
);
width = 1943;
}
);
unicode = 82;
},
{
glyphname = S;
kernLeft = O;
kernRight = O;
lastChange = "2025-03-02 22:41:24 +0000";
layers = (
{
anchors = (
{
name = bottom;
pos = (996,-22);
},
{
name = top;
pos = (996,1452);
}
);
layerId = m01;
shapes = (
{
closed = 1;
nodes = (
(1140,-30,ls),
(1641,-30,o),
(1860,95,o),
(1860,382,cs),
(1860,423,ls),
(1860,562,o),
(1804,648,o),
(1675,705,cs),
(1576,750,o),
(1412,770,o),
(1135,774,cs),
(862,778,ls),
(439,784,o),
(298,841,o),
(298,1008,cs),
(298,1040,ls),
(298,1231,o),
(439,1294,o),
(862,1294,cs),
(1140,1294,ls),
(1482,1294,o),
(1617,1224,o),
(1679,1012,cs),
(1691,970,o),
(1709,939,o),
(1756,939,cs),
(1788,939,ls),
(1836,939,o),
(1871,965,o),
(1860,1016,cs),
(1797,1310,o),
(1584,1438,o),
(1160,1438,cs),
(842,1438,ls),
(341,1438,o),
(122,1313,o),
(122,1026,cs),
(122,985,ls),
(122,846,o),
(178,760,o),
(307,703,cs),
(406,658,o),
(571,638,o),
(848,634,cs),
(1121,630,ls),
(1544,624,o),
(1685,567,o),
(1685,400,cs),
(1685,368,ls),
(1685,178,o),
(1544,114,o),
(1121,114,cs),
(842,114,ls),
(500,114,o),
(365,185,o),
(303,396,cs),
(291,437,o),
(274,469,o),
(226,469,cs),
(194,469,ls),
(145,469,o),
(111,442,o),
(122,392,cs),
(185,98,o),
(398,-30,o),
(823,-30,cs)
);
}
);
width = 1982;
},
{
anchors = (
{
name = bottom;
pos = (998,-30);
},
{
name = top;
pos = (998,1459);
}
);
layerId = m002;
shapes = (
{
closed = 1;
nodes = (
(1149,-30,ls),
(1626,-30,o),
(1878,106,o),
(1878,414,cs),
(1878,436,ls),
(1878,586,o),
(1814,726,o),
(1683,784,cs),
(1563,838,o),
(1367,876,o),
(1146,878,cs),
(864,882,ls),
(644,885,o),
(521,922,o),
(521,986,cs),
(521,1020,ls),
(521,1084,o),
(644,1124,o),
(864,1124,cs),
(1127,1124,ls),
(1321,1124,o),
(1459,1084,o),
(1470,1033,cs),
(1479,990,o),
(1499,960,o),
(1546,960,cs),
(1800,960,ls),
(1848,960,o),
(1877,986,o),
(1872,1037,cs),
(1841,1358,o),
(1607,1459,o),
(1149,1459,cs),
(848,1459,ls),
(371,1459,o),
(119,1323,o),
(119,1015,cs),
(119,993,ls),
(119,843,o),
(183,703,o),
(314,645,cs),
(434,591,o),
(630,554,o),
(850,551,cs),
(1132,547,ls),
(1353,544,o),
(1476,507,o),
(1476,443,cs),
(1476,409,ls),
(1476,345,o),
(1353,305,o),
(1132,305,cs),
(870,305,ls),
(676,305,o),
(538,345,o),
(527,396,cs),
(517,439,o),
(498,469,o),
(450,469,cs),
(197,469,ls),
(149,469,o),
(120,443,o),
(125,393,cs),
(155,72,o),
(390,-30,o),
(848,-30,cs)
);
}
);
width = 1997;
}
);
unicode = 83;
},
{
glyphname = Germandbls;
kernLeft = H;
kernRight = Z;
lastChange = "2025-03-03 02:16:44 +0000";
layers = (
{
anchors = (
{
name = bottom;
pos = (892,0);
},
{
name = top;
pos = (892,1408);
}
);
layerId = m01;
shapes = (
{
closed = 1;
nodes = (
(1278,0,ls),
(1588,0,o),
(1724,116,o),
(1724,380,cs),
(1724,424,ls),
(1724,688,o),
(1588,804,o),
(1278,804,cs),
(1263,804,l),
(1686,1211,ls),
(1714,1237,o),
(1724,1265,o),
(1724,1303,cs),
(1724,1334,ls),
(1724,1382,o),
(1698,1408,o),
(1650,1408,cs),
(254,1408,ls),
(206,1408,o),
(180,1382,o),
(180,1334,cs),
(180,74,ls),
(180,26,o),
(205,0,o),
(253,0,cs),
(283,0,ls),
(331,0,o),
(356,26,o),
(356,74,cs),
(356,1264,l),
(1512,1264,l),
(994,746,ls),
(948,700,o),
(966,655,o),
(1032,655,cs),
(1258,655,ls),
(1474,655,o),
(1546,595,o),
(1546,416,cs),
(1546,389,ls),
(1546,209,o),
(1474,149,o),
(1258,149,cs),
(1040,149,ls),
(824,149,o),
(752,209,o),
(752,389,cs),
(752,408,ls),
(752,457,o),
(720,471,o),
(684,435,cs),
(607,358,ls),
(587,338,o),
(578,315,o),
(585,287,cs),
(633,87,o),
(765,0,o),
(1020,0,cs)
);
}
);
width = 1784;
},
{
anchors = (
{
name = bottom;
pos = (896,0);
},
{
name = top;
pos = (896,1429);
}
);
layerId = m002;
shapes = (
{
closed = 1;
nodes = (
(1319,0,ls),
(1476,0,o),
(1710,125,o),
(1710,367,cs),
(1710,410,ls),
(1710,652,o),
(1557,727,o),
(1481,760,cs),
(1465,768,l),
(1694,1227,ls),
(1709,1257,o),
(1710,1281,o),
(1710,1319,cs),
(1710,1355,ls),
(1710,1403,o),
(1684,1429,o),
(1636,1429,cs),
(253,1429,ls),
(205,1429,o),
(179,1403,o),
(179,1355,cs),
(179,74,ls),
(179,26,o),
(205,0,o),
(253,0,cs),
(506,0,ls),
(555,0,o),
(581,26,o),
(581,74,cs),
(581,1094,l),
(1184,1094,l),
(963,653,ls),
(932,593,o),
(934,562,o),
(1000,562,cs),
(1179,562,ls),
(1245,562,o),
(1308,538,o),
(1308,462,cs),
(1308,435,ls),
(1308,359,o),
(1245,335,o),
(1179,335,cs),
(1123,335,ls),
(1060,335,o),
(997,359,o),
(963,393,cs),
(939,417,ls),
(904,451,o),
(866,460,o),
(845,417,cs),
(722,172,ls),
(709,146,o),
(704,114,o),
(709,100,cs),
(735,13,o),
(869,0,o),
(1054,0,cs)
);
}
);
width = 1800;
}
);
unicode = 7838;
},
{
glyphname = T;
kernLeft = T;
kernRight = T;
lastChange = "2025-03-03 02:16:53 +0000";
layers = (
{
anchors = (
{
name = bottom;
pos = (900,0);
},
{
name = center;
pos = (900,704);
},
{
name = top;
pos = (900,1408);
}
);
layerId = m01;
shapes = (
{
closed = 1;
nodes = (
(90,1329,ls),
(90,1288,o),
(116,1264,o),
(157,1264,cs),
(812,1264,l),
(812,74,ls),
(812,26,o),
(838,0,o),
(886,0,cs),
(914,0,ls),
(963,0,o),
(988,26,o),
(988,74,cs),
(988,1264,l),
(1643,1264,ls),
(1684,1264,o),
(1710,1288,o),
(1710,1329,cs),
(1710,1345,ls),
(1710,1386,o),
(1684,1408,o),
(1643,1408,cs),
(157,1408,ls),
(116,1408,o),
(90,1386,o),
(90,1345,cs)
);
}
);
width = 1800;
},
{
anchors = (
{
name = bottom;
pos = (893,0);
},
{
name = center;
pos = (893,715);
},
{
name = top;
pos = (893,1429);
}
);
layerId = m002;
shapes = (
{
closed = 1;
nodes = (
(89,1161,ls),
(89,1120,o),
(115,1094,o),
(156,1094,cs),
(692,1094,l),
(692,74,ls),
(692,26,o),
(718,0,o),
(767,0,cs),
(1020,0,ls),
(1068,0,o),
(1094,26,o),
(1094,74,cs),
(1094,1094,l),
(1630,1094,ls),
(1671,1094,o),
(1697,1120,o),
(1697,1161,cs),
(1697,1362,ls),
(1697,1403,o),
(1671,1429,o),
(1630,1429,cs),
(156,1429,ls),
(115,1429,o),
(89,1403,o),
(89,1362,cs)
);
}
);
width = 1787;
}
);
unicode = 84;
},
{
glyphname = U;
kernLeft = O;
kernRight = O;
lastChange = "2025-03-03 03:16:16 +0000";
layers = (
{
anchors = (
{
name = bottom;
pos = (1005,0);
},
{
name = ogonek;
pos = (1497,10);
},
{
name = top;
pos = (1005,1408);
},
{
name = topright;
pos = (1890,1408);
}
);
layerId = m01;
shapes = (
{
closed = 1;
nodes = (
(1164,-30,ls),
(1669,-30,o),
(1890,190,o),
(1890,692,cs),
(1890,1334,ls),
(1890,1382,o),
(1864,1408,o),
(1815,1408,cs),
(1786,1408,ls),
(1737,1408,o),
(1711,1382,o),
(1711,1334,cs),
(1711,697,ls),
(1711,264,o),
(1570,119,o),
(1145,119,cs),
(865,119,ls),
(441,119,o),
(299,264,o),
(299,697,cs),
(299,1334,ls),
(299,1382,o),
(273,1408,o),
(224,1408,cs),
(195,1408,ls),
(146,1408,o),
(120,1382,o),
(120,1334,cs),
(120,692,ls),
(120,190,o),
(341,-30,o),
(846,-30,cs)
);
}
);
width = 2010;
},
{
anchors = (
{
name = bottom;
pos = (997,0);
},
{
name = ogonek;
pos = (1500,9);
},
{
name = top;
pos = (997,1429);
},
{
name = topright;
pos = (1820,1385);
}
);
layerId = m002;
shapes = (
{
closed = 1;
nodes = (
(1150,-30,ls),
(1641,-30,o),
(1876,87,o),
(1876,692,cs),
(1876,1355,ls),
(1876,1403,o),
(1850,1429,o),
(1801,1429,cs),
(1548,1429,ls),
(1500,1429,o),
(1474,1403,o),
(1474,1355,cs),
(1474,697,ls),
(1474,360,o),
(1351,305,o),
(1131,305,cs),
(864,305,ls),
(644,305,o),
(521,360,o),
(521,697,cs),
(521,1355,ls),
(521,1403,o),
(495,1429,o),
(447,1429,cs),
(194,1429,ls),
(145,1429,o),
(119,1403,o),
(119,1355,cs),
(119,692,ls),
(119,87,o),
(354,-30,o),
(845,-30,cs)
);
}
);
width = 1995;
}
);
unicode = 85;
},
{
glyphname = V;
kernLeft = V;
kernRight = V;
lastChange = "2025-03-03 01:22:31 +0000";
layers = (
{
anchors = (
{
name = bottom;
pos = (991,0);
},
{
name = top;
pos = (991,1408);
}
);
layerId = m01;
shapes = (
{
closed = 1;
nodes = (
(1049,0,ls),
(1090,0,o),
(1118,15,o),
(1139,51,cs),
(1901,1319,ls),
(1932,1371,o),
(1907,1408,o),
(1849,1408,cs),
(1825,1408,ls),
(1784,1408,o),
(1757,1393,o),
(1736,1357,cs),
(1007,144,l),
(975,144,l),
(246,1357,ls),
(225,1393,o),
(198,1408,o),
(157,1408,cs),
(133,1408,ls),
(75,1408,o),
(50,1371,o),
(81,1319,cs),
(843,51,ls),
(864,15,o),
(892,0,o),
(933,0,cs)
);
}
);
width = 1982;
},
{
anchors = (
{
name = bottom;
pos = (982,0);
},
{
name = top;
pos = (982,1429);
}
);
layerId = m002;
shapes = (
{
closed = 1;
nodes = (
(1232,0,ls),
(1273,0,o),
(1305,13,o),
(1321,51,cs),
(1886,1340,ls),
(1910,1396,o),
(1894,1429,o),
(1835,1429,cs),
(1547,1429,ls),
(1506,1429,o),
(1475,1415,o),
(1458,1378,cs),
(1002,335,l),
(961,335,l),
(505,1378,ls),
(489,1415,o),
(457,1429,o),
(416,1429,cs),
(129,1429,ls),
(71,1429,o),
(53,1396,o),
(77,1340,cs),
(642,51,ls),
(659,13,o),
(690,0,o),
(731,0,cs)
);
}
);
width = 1963;
}
);
unicode = 86;
},
{
glyphname = W;
kernLeft = W;
kernRight = W;
lastChange = "2025-03-03 01:20:31 +0000";
layers = (
{
anchors = (
{
name = bottom;
pos = (1545,0);
},
{
name = top;
pos = (1545,1408);
}
);
layerId = m01;
shapes = (
{
closed = 1;
nodes = (
(890,0,ls),
(931,0,o),
(956,15,o),
(973,51,cs),
(1545,1285,l),
(2117,51,ls),
(2134,15,o),
(2159,0,o),
(2200,0,cs),
(2308,0,ls),
(2349,0,o),
(2388,15,o),
(2405,51,cs),
(3003,1340,ls),
(3029,1396,o),
(3011,1429,o),
(2952,1429,cs),
(2931,1429,ls),
(2890,1429,o),
(2859,1414,o),
(2842,1378,cs),
(2270,144,l),
(2238,144,l),
(1666,1378,ls),
(1649,1414,o),
(1618,1429,o),
(1577,1429,cs),
(1513,1429,ls),
(1472,1429,o),
(1441,1414,o),
(1424,1378,cs),
(852,144,l),
(820,144,l),
(248,1378,ls),
(231,1414,o),
(200,1429,o),
(159,1429,cs),
(138,1429,ls),
(79,1429,o),
(61,1396,o),
(87,1340,cs),
(685,51,ls),
(702,15,o),
(741,0,o),
(782,0,cs)
);
}
);
width = 3090;
},
{
anchors = (
{
name = bottom;
pos = (1533,0);
},
{
name = top;
pos = (1533,1429);
}
);
layerId = m002;
shapes = (
{
closed = 1;
nodes = (
(1054,0,ls),
(1095,0,o),
(1128,14,o),
(1144,51,cs),
(1533,973,l),
(1921,51,ls),
(1937,14,o),
(1970,0,o),
(2011,0,cs),
(2295,0,ls),
(2336,0,o),
(2366,14,o),
(2384,51,cs),
(2979,1340,ls),
(3005,1396,o),
(2987,1429,o),
(2928,1429,cs),
(2644,1429,ls),
(2603,1429,o),
(2571,1415,o),
(2554,1378,cs),
(2150,503,l),
(2150,503,l),
(1746,1378,ls),
(1729,1414,o),
(1697,1429,o),
(1656,1429,cs),
(1409,1429,ls),
(1368,1429,o),
(1336,1414,o),
(1319,1378,cs),
(915,503,l),
(915,503,l),
(511,1378,ls),
(493,1415,o),
(462,1429,o),
(422,1429,cs),
(138,1429,ls),
(79,1429,o),
(60,1396,o),
(86,1340,cs),
(681,51,ls),
(699,14,o),
(730,0,o),
(770,0,cs)
);
}
);
width = 3065;
}
);
unicode = 87;
},
{
glyphname = X;
kernLeft = Z;
kernRight = Z;
lastChange = "2025-03-03 01:26:19 +0000";
layers = (
{
anchors = (
{
name = bottom;
pos = (997,0);
},
{
name = top;
pos = (997,1408);
}
);
layerId = m01;
shapes = (
{
closed = 1;
nodes = (
(184,0,ls),
(222,0,o),
(246,14,o),
(276,38,cs),
(1860,1317,ls),
(1911,1359,o),
(1888,1408,o),
(1822,1408,cs),
(1764,1408,ls),
(1726,1408,o),
(1702,1394,o),
(1672,1370,cs),
(88,91,ls),
(37,49,o),
(60,0,o),
(126,0,cs)
);
},
{
closed = 1;
nodes = (
(1718,38,ls),
(1748,14,o),
(1772,0,o),
(1810,0,cs),
(1868,0,ls),
(1934,0,o),
(1957,49,o),
(1906,91,cs),
(322,1370,ls),
(293,1394,o),
(268,1408,o),
(230,1408,cs),
(172,1408,ls),
(106,1408,o),
(83,1359,o),
(134,1317,cs)
);
}
);
width = 1994;
},
{
anchors = (
{
name = bottom;
pos = (995,0);
},
{
name = top;
pos = (995,1429);
}
);
layerId = m002;
shapes = (
{
closed = 1;
nodes = (
(511,0,ls),
(549,0,o),
(577,11,o),
(603,38,cs),
(1846,1338,ls),
(1892,1385,o),
(1874,1429,o),
(1808,1429,cs),
(1423,1429,ls),
(1385,1429,o),
(1357,1418,o),
(1331,1391,cs),
(87,91,ls),
(42,44,o),
(53,0,o),
(113,0,cs)
);
},
{
closed = 1;
nodes = (
(1385,38,ls),
(1412,11,o),
(1439,0,o),
(1478,0,cs),
(1876,0,ls),
(1935,0,o),
(1948,45,o),
(1901,91,cs),
(614,1391,ls),
(587,1418,o),
(560,1429,o),
(522,1429,cs),
(124,1429,ls),
(64,1429,o),
(52,1385,o),
(99,1338,cs)
);
}
);
width = 1989;
}
);
unicode = 88;
},
{
glyphname = Y;
kernLeft = V;
kernRight = V;
lastChange = "2025-03-03 01:29:43 +0000";
layers = (
{
anchors = (
{
name = bottom;
pos = (938,0);
},
{
name = top;
pos = (938,1408);
},
{
name = topleft;
pos = (20,1408);
}
);
layerId = m01;
shapes = (
{
closed = 1;
nodes = (
(951,0,ls),
(1000,0,o),
(1026,26,o),
(1026,74,cs),
(1026,704,l),
(1729,1308,ls),
(1778,1350,o),
(1757,1408,o),
(1691,1408,cs),
(1649,1408,ls),
(1611,1408,o),
(1585,1394,o),
(1557,1370,cs),
(938,838,l),
(319,1370,ls),
(291,1394,o),
(265,1408,o),
(227,1408,cs),
(185,1408,ls),
(119,1408,o),
(98,1350,o),
(147,1308,cs),
(850,704,l),
(850,74,ls),
(850,26,o),
(876,0,o),
(925,0,cs)
);
}
);
width = 1876;
},
{
anchors = (
{
name = bottom;
pos = (1011,0);
},
{
name = top;
pos = (1011,1429);
},
{
name = topleft;
pos = (155,1429);
}
);
layerId = m002;
shapes = (
{
closed = 1;
nodes = (
(1137,0,ls),
(1185,0,o),
(1211,26,o),
(1211,74,cs),
(1211,581,l),
(1878,1329,ls),
(1920,1375,o),
(1906,1429,o),
(1840,1429,cs),
(1492,1429,ls),
(1454,1429,o),
(1426,1419,o),
(1400,1391,cs),
(1011,953,l),
(621,1391,ls),
(596,1419,o),
(567,1429,o),
(529,1429,cs),
(181,1429,ls),
(115,1429,o),
(101,1375,o),
(143,1329,cs),
(810,581,l),
(810,74,ls),
(810,26,o),
(836,0,o),
(884,0,cs)
);
}
);
width = 2021;
}
);
unicode = 89;
},
{
glyphname = Z;
kernLeft = Z;
kernRight = Z;
lastChange = "2025-03-03 01:31:44 +0000";
layers = (
{
anchors = (
{
name = bottom;
pos = (960,0);
},
{
name = center;
pos = (960,704);
},
{
name = top;
pos = (960,1408);
}
);
layerId = m01;
shapes = (
{
closed = 1;
nodes = (
(1733,0,ls),
(1773,0,o),
(1800,23,o),
(1800,64,cs),
(1800,80,ls),
(1800,121,o),
(1773,144,o),
(1733,144,cs),
(378,144,l),
(1756,1229,ls),
(1787,1254,o),
(1800,1281,o),
(1800,1313,cs),
(1800,1341,ls),
(1800,1382,o),
(1773,1408,o),
(1733,1408,cs),
(187,1408,ls),
(146,1408,o),
(120,1385,o),
(120,1344,cs),
(120,1328,ls),
(120,1287,o),
(146,1264,o),
(187,1264,cs),
(1542,1264,l),
(164,184,ls),
(133,159,o),
(120,127,o),
(120,95,cs),
(120,67,ls),
(120,26,o),
(146,0,o),
(187,0,cs)
);
}
);
width = 1920;
},
{
anchors = (
{
name = bottom;
pos = (953,0);
},
{
name = center;
pos = (953,715);
},
{
name = top;
pos = (953,1429);
}
);
layerId = m002;
shapes = (
{
closed = 1;
nodes = (
(1720,0,ls),
(1760,0,o),
(1787,26,o),
(1787,67,cs),
(1787,268,ls),
(1787,309,o),
(1760,335,o),
(1720,335,cs),
(743,335,l),
(1743,1059,ls),
(1774,1082,o),
(1787,1111,o),
(1787,1143,cs),
(1787,1362,ls),
(1787,1403,o),
(1760,1429,o),
(1720,1429,cs),
(186,1429,ls),
(145,1429,o),
(119,1403,o),
(119,1362,cs),
(119,1161,ls),
(119,1120,o),
(145,1094,o),
(186,1094,cs),
(1163,1094,l),
(163,370,ls),
(132,348,o),
(119,318,o),
(119,287,cs),
(119,67,ls),
(119,26,o),
(145,0,o),
(186,0,cs)
);
}
);
width = 1906;
}
);
unicode = 90;
},
{
glyphname = Saltillo;
kernLeft = H;
kernRight = H;
lastChange = "2025-03-03 03:25:12 +0000";
layers = (
{
layerId = m01;
shapes = (
{
closed = 1;
nodes = (
(202,441,ls),
(204,392,o),
(228,366,o),
(276,366,cs),
(293,366,ls),
(342,366,o),
(366,392,o),
(368,441,cs),
(405,1334,ls),
(407,1382,o),
(365,1408,o),
(317,1408,cs),
(253,1408,ls),
(205,1408,o),
(163,1382,o),
(165,1334,cs)
);
}
);
width = 570;
},
{
layerId = m002;
shapes = (
{
closed = 1;
nodes = (
(201,551,ls),
(203,502,o),
(227,476,o),
(275,476,cs),
(421,476,ls),
(469,476,o),
(493,502,o),
(495,551,cs),
(532,1385,ls),
(534,1433,o),
(492,1459,o),
(444,1459,cs),
(252,1459,ls),
(204,1459,o),
(162,1433,o),
(164,1385,cs)
);
}
);
width = 696;
}
);
unicode = 42891;
},
{
glyphname = a;
kernLeft = a;
kernRight = a;
lastChange = "2025-03-02 15:42:17 +0000";
layers = (
{
anchors = (
{
name = bottom;
pos = (722,-22);
},
{
name = ogonek;
pos = (1300,9);
},
{
name = top;
pos = (722,1094);
}
);
layerId = m01;
shapes = (
{
closed = 1;
nodes = (
(1251,-29,ls),
(1299,-29,o),
(1325,-4,o),
(1325,45,cs),
(1325,610,ls),
(1325,1016,o),
(1169,1094,o),
(821,1094,cs),
(640,1094,ls),
(328,1094,o),
(171,1032,o),
(141,837,cs),
(134,787,o),
(164,759,o),
(213,759,cs),
(229,759,ls),
(261,759,o),
(297,783,o),
(306,829,cs),
(328,935,o),
(422,960,o),
(653,960,cs),
(808,960,ls),
(1100,960,o),
(1152,926,o),
(1163,529,c),
(1114,569,o),
(1024,603,o),
(761,603,cs),
(623,603,ls),
(275,603,o),
(119,525,o),
(119,305,cs),
(119,275,ls),
(119,56,o),
(275,-22,o),
(623,-22,cs),
(761,-22,ls),
(1030,-22,o),
(1106,14,o),
(1161,50,c),
(1161,-2,o),
(1187,-29,o),
(1236,-29,cs)
);
},
{
closed = 1;
nodes = (
(365,112,o),
(283,148,o),
(283,278,cs),
(283,302,ls),
(283,433,o),
(365,469,o),
(636,469,cs),
(748,469,ls),
(1079,469,o),
(1161,433,o),
(1161,302,cs),
(1161,278,ls),
(1161,148,o),
(1079,112,o),
(748,112,cs),
(636,112,ls)
);
}
);
width = 1444;
},
{
anchors = (
{
name = bottom;
pos = (722,-22);
},
{
name = ogonek;
pos = (1300,9);
},
{
name = top;
pos = (722,1094);
}
);
layerId = m002;
shapes = (
{
closed = 1;
nodes = (
(1251,-29,ls),
(1299,-29,o),
(1325,-4,o),
(1325,45,cs),
(1325,610,ls),
(1325,1016,o),
(1169,1094,o),
(799,1094,cs),
(662,1094,ls),
(328,1094,o),
(171,1032,o),
(141,803,cs),
(135,754,o),
(164,726,o),
(213,726,cs),
(434,726,ls),
(466,726,o),
(488,750,o),
(491,758,cs),
(502,782,o),
(558,793,o),
(677,793,cs),
(783,793,ls),
(882,793,o),
(944,766,o),
(955,652,c),
(896,670,o),
(829,677,o),
(791,677,cs),
(670,677,ls),
(275,677,o),
(119,599,o),
(119,342,cs),
(119,313,ls),
(119,56,o),
(275,-22,o),
(670,-22,cs),
(791,-22,ls),
(835,-22,o),
(904,-14,o),
(965,7,c),
(976,-16,o),
(999,-29,o),
(1031,-29,cs)
);
},
{
closed = 1;
nodes = (
(569,246,o),
(488,282,o),
(488,319,cs),
(488,336,ls),
(488,373,o),
(569,409,o),
(663,409,cs),
(772,409,ls),
(875,409,o),
(957,374,o),
(957,336,cs),
(957,319,ls),
(957,282,o),
(875,246,o),
(772,246,cs),
(663,246,ls)
);
}
);
width = 1444;
}
);
unicode = 97;
},
{
glyphname = c;
kernLeft = c;
kernRight = c;
lastChange = "2025-03-02 15:42:17 +0000";
layers = (
{
anchors = (
{
name = bottom;
pos = (727,-22);
},
{
name = top;
pos = (727,1094);
}
);
layerId = m01;
shapes = (
{
closed = 1;
nodes = (
(829,-22,ls),
(1176,-22,o),
(1332,40,o),
(1362,235,cs),
(1370,285,o),
(1340,313,o),
(1291,313,cs),
(1275,313,ls),
(1228,313,o),
(1208,288,o),
(1198,242,cs),
(1173,135,o),
(1082,112,o),
(816,112,cs),
(641,112,ls),
(335,112,o),
(253,148,o),
(253,524,cs),
(253,548,ls),
(253,924,o),
(335,960,o),
(641,960,cs),
(816,960,ls),
(1082,960,o),
(1173,937,o),
(1198,830,cs),
(1208,783,o),
(1228,759,o),
(1275,759,cs),
(1291,759,ls),
(1340,759,o),
(1370,787,o),
(1362,837,cs),
(1332,1032,o),
(1176,1094,o),
(829,1094,cs),
(628,1094,ls),
(246,1094,o),
(89,1016,o),
(89,551,cs),
(89,521,ls),
(89,56,o),
(246,-22,o),
(628,-22,cs)
);
}
);
width = 1452;
},
{
anchors = (
{
name = bottom;
pos = (728,-22);
},
{
name = top;
pos = (728,1094);
}
);
layerId = m002;
shapes = (
{
closed = 1;
nodes = (
(830,-22,ls),
(1180,-22,o),
(1336,40,o),
(1366,392,cs),
(1370,441,o),
(1344,469,o),
(1294,469,cs),
(1074,469,ls),
(1027,469,o),
(1001,447,o),
(997,398,cs),
(989,315,o),
(907,279,o),
(816,279,cs),
(643,279,ls),
(540,279,o),
(458,315,o),
(458,524,cs),
(458,548,ls),
(458,756,o),
(540,793,o),
(643,793,cs),
(816,793,ls),
(907,793,o),
(989,756,o),
(997,674,cs),
(1001,625,o),
(1027,603,o),
(1074,603,cs),
(1294,603,ls),
(1344,603,o),
(1370,631,o),
(1366,680,cs),
(1336,1032,o),
(1180,1094,o),
(830,1094,cs),
(629,1094,ls),
(246,1094,o),
(89,1016,o),
(89,551,cs),
(89,521,ls),
(89,56,o),
(246,-22,o),
(629,-22,cs)
);
}
);
width = 1455;
}
);
unicode = 99;
},
{
glyphname = e;
kernLeft = c;
kernRight = a;
lastChange = "2025-03-02 15:42:17 +0000";
layers = (
{
anchors = (
{
name = bottom;
pos = (730,-22);
},
{
name = ogonek;
pos = (1089,9);
},
{
name = top;
pos = (730,1094);
}
);
layerId = m01;
shapes = (
{
closed = 1;
nodes = (
(755,-22,ls),
(1071,-22,o),
(1265,26,o),
(1318,274,cs),
(1327,312,o),
(1305,335,o),
(1267,335,cs),
(1216,335,ls),
(1183,335,o),
(1163,318,o),
(1156,284,cs),
(1122,130,o),
(950,112,o),
(844,112,cs),
(585,112,ls),
(348,112,o),
(261,145,o),
(254,469,c),
(1284,469,ls),
(1319,469,o),
(1339,488,o),
(1340,521,cs),
(1340,521,l),
(1340,551,ls),
(1340,1016,o),
(1184,1094,o),
(755,1094,cs),
(675,1094,ls),
(246,1094,o),
(89,1016,o),
(89,551,cs),
(89,521,ls),
(89,56,o),
(246,-22,o),
(675,-22,cs)
);
},
{
closed = 1;
nodes = (
(261,927,o),
(348,960,o),
(585,960,cs),
(844,960,ls),
(1081,960,o),
(1168,927,o),
(1175,603,c),
(254,603,l)
);
}
);
width = 1452;
},
{
anchors = (
{
name = bottom;
pos = (715,-22);
},
{
name = ogonek;
pos = (1078,9);
},
{
name = top;
pos = (715,1094);
}
);
layerId = m002;
shapes = (
{
closed = 1;
nodes = (
(755,-22,ls),
(1071,-22,o),
(1239,20,o),
(1305,230,cs),
(1321,281,o),
(1292,313,o),
(1240,313,cs),
(970,313,ls),
(941,313,o),
(923,301,o),
(900,283,cs),
(862,252,o),
(808,246,o),
(741,246,cs),
(689,246,ls),
(569,246,o),
(493,268,o),
(467,402,c),
(1264,402,ls),
(1311,402,o),
(1339,427,o),
(1340,475,cs),
(1340,521,l),
(1340,551,ls),
(1340,1016,o),
(1184,1094,o),
(755,1094,cs),
(675,1094,ls),
(246,1094,o),
(89,1016,o),
(89,551,cs),
(89,521,ls),
(89,56,o),
(246,-22,o),
(675,-22,cs)
);
},
{
closed = 1;
nodes = (
(493,804,o),
(569,826,o),
(689,826,cs),
(741,826,ls),
(860,826,o),
(936,804,o),
(962,670,c),
(467,670,l)
);
}
);
width = 1452;
}
);
unicode = 101;
},
{
glyphname = esh;
kernLeft = j;
kernRight = f;
lastChange = "2025-03-02 15:42:17 +0000";
layers = (
{
layerId = m01;
shapes = (
{
closed = 1;
nodes = (
(420,-476,o),
(584,-347,o),
(584,37,cs),
(584,915,ls),
(584,1211,o),
(656,1261,o),
(851,1265,cs),
(902,1266,o),
(929,1291,o),
(929,1332,cs),
(929,1364,ls),
(929,1406,o),
(902,1429,o),
(851,1429,cs),
(570,1429,o),
(406,1300,o),
(406,916,cs),
(406,38,ls),
(406,-258,o),
(334,-308,o),
(139,-313,cs),
(88,-314,o),
(61,-338,o),
(61,-380,cs),
(61,-411,ls),
(61,-453,o),
(88,-476,o),
(139,-476,cs)
);
}
);
width = 990;
},
{
layerId = m002;
shapes = (
{
closed = 1;
nodes = (
(531,-476,o),
(696,-347,o),
(696,37,cs),
(696,710,ls),
(696,1006,o),
(768,1056,o),
(851,1061,cs),
(902,1064,o),
(929,1086,o),
(929,1128,cs),
(929,1364,ls),
(929,1406,o),
(902,1429,o),
(851,1429,cs),
(459,1429,o),
(294,1300,o),
(294,916,cs),
(294,243,ls),
(294,-53,o),
(222,-103,o),
(139,-108,cs),
(88,-111,o),
(61,-133,o),
(61,-175,cs),
(61,-411,ls),
(61,-453,o),
(88,-476,o),
(139,-476,cs)
);
}
);
width = 990;
}
);
unicode = 643;
},
{
glyphname = ezh;
lastChange = "2025-03-02 15:42:17 +0000";
layers = (
{
anchors = (
{
name = bottom;
pos = (730,0);
},
{
name = top;
pos = (730,1072);
}
);
layerId = m01;
shapes = (
{
closed = 1;
nodes = (
(932,-476,ls),
(1174,-476,o),
(1379,-363,o),
(1379,-97,cs),
(1379,-52,ls),
(1379,214,o),
(1193,328,o),
(769,328,c),
(1341,900,ls),
(1368,927,o),
(1379,954,o),
(1379,977,cs),
(1379,1012,ls),
(1379,1046,o),
(1353,1072,o),
(1305,1072,cs),
(156,1072,ls),
(108,1072,o),
(82,1046,o),
(82,1012,cs),
(82,997,ls),
(82,964,o),
(108,938,o),
(156,938,cs),
(1163,938,l),
(495,270,ls),
(448,223,o),
(467,194,o),
(533,194,cs),
(913,194,ls),
(1092,194,o),
(1215,128,o),
(1215,-56,cs),
(1215,-92,ls),
(1215,-276,o),
(1092,-342,o),
(913,-342,cs),
(533,-342,ls),
(412,-342,o),
(267,-324,o),
(231,-114,cs),
(220,-50,o),
(184,-48,o),
(141,-92,cs),
(125,-108,ls),
(98,-135,o),
(85,-162,o),
(91,-201,cs),
(127,-418,o),
(363,-476,o),
(514,-476,cs)
);
}
);
width = 1461;
},
{
anchors = (
{
name = bottom;
pos = (753,0);
},
{
name = top;
pos = (753,1072);
}
);
layerId = m002;
shapes = (
{
closed = 1;
nodes = (
(756,-506,ls),
(1230,-506,o),
(1386,-428,o),
(1386,-20,cs),
(1386,9,ls),
(1386,237,o),
(1325,405,o),
(1141,458,c),
(1358,742,ls),
(1375,765,o),
(1386,783,o),
(1386,810,cs),
(1386,1016,ls),
(1386,1052,o),
(1367,1072,o),
(1331,1072,cs),
(192,1072,ls),
(155,1072,o),
(136,1052,o),
(136,1016,cs),
(136,826,ls),
(136,790,o),
(155,770,o),
(192,770,cs),
(912,770,l),
(523,262,ls),
(491,221,o),
(502,194,o),
(551,194,cs),
(810,194,ls),
(936,194,o),
(1018,157,o),
(1018,7,cs),
(1018,-18,ls),
(1018,-168,o),
(936,-205,o),
(743,-205,cs),
(661,-205,ls),
(531,-205,o),
(438,-174,o),
(430,13,cs),
(427,76,o),
(376,86,o),
(340,36,cs),
(138,-238,ls),
(120,-262,o),
(113,-288,o),
(127,-317,cs),
(210,-472,o),
(384,-506,o),
(648,-506,cs)
);
}
);
width = 1506;
}
);
unicode = 658;
},
{
glyphname = f;
kernLeft = f;
kernRight = f;
lastChange = "2025-03-02 15:42:17 +0000";
layers = (
{
anchors = (
{
name = bottom;
pos = (521,0);
},
{
name = top;
pos = (521,1519);
}
);
layerId = m01;
shapes = (
{
closed = 1;
nodes = (
(372,1,ls),
(420,2,o),
(447,29,o),
(447,76,cs),
(447,944,ls),
(447,1330,o),
(518,1385,o),
(897,1385,cs),
(933,1385,o),
(953,1404,o),
(953,1440,cs),
(953,1463,ls),
(953,1499,o),
(933,1519,o),
(897,1519,cs),
(423,1519,o),
(283,1419,o),
(283,945,cs),
(283,74,ls),
(283,26,o),
(309,0,o),
(357,1,cs)
);
},
{
closed = 1;
nodes = (
(119,997,ls),
(119,964,o),
(145,938,o),
(194,938,cs),
(888,938,ls),
(927,938,o),
(953,958,o),
(953,997,cs),
(953,1012,ls),
(953,1051,o),
(927,1072,o),
(888,1072,cs),
(194,1072,ls),
(145,1072,o),
(119,1046,o),
(119,1012,cs)
);
}
);
width = 953;
},
{
anchors = (
{
name = bottom;
pos = (521,0);
},
{
name = top;
pos = (521,1519);
}
);
layerId = m002;
shapes = (
{
closed = 1;
nodes = (
(577,1,ls),
(624,1,o),
(651,29,o),
(651,76,cs),
(651,944,ls),
(651,1162,o),
(723,1217,o),
(897,1217,cs),
(933,1217,o),
(953,1237,o),
(953,1273,cs),
(953,1463,ls),
(953,1499,o),
(933,1519,o),
(897,1519,cs),
(423,1519,o),
(283,1419,o),
(283,945,cs),
(283,74,ls),
(283,26,o),
(309,1,o),
(357,1,cs)
);
},
{
closed = 1;
nodes = (
(119,830,ls),
(119,796,o),
(145,770,o),
(194,770,cs),
(888,770,ls),
(927,770,o),
(953,791,o),
(953,830,cs),
(953,1012,ls),
(953,1051,o),
(927,1072,o),
(888,1072,cs),
(194,1072,ls),
(145,1072,o),
(119,1046,o),
(119,1012,cs)
);
}
);
width = 953;
}
);
unicode = 102;
},
{
glyphname = g;
kernLeft = c;
kernRight = a;
lastChange = "2025-03-02 15:42:17 +0000";
layers = (
{
anchors = (
{
name = bottom;
pos = (760,-476);
},
{
name = top;
pos = (760,1094);
}
);
layerId = m01;
shapes = (
{
closed = 1;
nodes = (
(135,-164,o),
(105,-192,o),
(113,-241,cs),
(142,-436,o),
(299,-499,o),
(709,-499,cs),
(806,-499,ls),
(1244,-499,o),
(1400,-421,o),
(1400,-15,cs),
(1400,997,ls),
(1400,1046,o),
(1374,1072,o),
(1326,1071,cs),
(1311,1071,ls),
(1264,1070,o),
(1237,1043,o),
(1237,996,cs),
(1237,-14,ls),
(1237,-330,o),
(1155,-365,o),
(793,-365,cs),
(722,-365,ls),
(394,-365,o),
(301,-340,o),
(277,-234,cs),
(267,-188,o),
(247,-164,o),
(200,-164,cs),
(184,-164,ls)
);
},
{
pos = (1236,0);
ref = "_bowl-b";
scale = (-1,1);
}
);
width = 1519;
},
{
anchors = (
{
name = bottom;
pos = (759,-499);
},
{
name = top;
pos = (759,1094);
}
);
layerId = m002;
shapes = (
{
closed = 1;
nodes = (
(147,-87,o),
(119,-115,o),
(125,-165,cs),
(154,-444,o),
(311,-506,o),
(736,-506,cs),
(770,-506,ls),
(1243,-506,o),
(1399,-428,o),
(1399,-15,cs),
(1399,998,ls),
(1399,1047,o),
(1373,1072,o),
(1325,1072,cs),
(1105,1072,ls),
(1058,1072,o),
(1031,1044,o),
(1031,997,cs),
(1031,-14,ls),
(1031,-170,o),
(952,-205,o),
(775,-205,cs),
(721,-205,ls),
(578,-205,o),
(499,-190,o),
(494,-157,cs),
(489,-126,o),
(463,-87,o),
(417,-87,cs),
(196,-87,ls)
);
},
{
pos = (1031,0);
ref = "_bowl-b";
scale = (-1,1);
}
);
width = 1519;
}
);
unicode = 103;
},
{
glyphname = glottalstop;
kernLeft = V;
kernRight = V;
lastChange = "2025-03-02 15:42:17 +0000";
layers = (
{
layerId = m01;
shapes = (
{
closed = 1;
nodes = (
(1318,698,o),
(1475,776,o),
(1475,1049,cs),
(1475,1078,ls),
(1475,1351,o),
(1318,1429,o),
(996,1429,cs),
(676,1429,ls),
(388,1429,o),
(232,1367,o),
(202,1171,cs),
(194,1122,o),
(224,1094,o),
(274,1094,cs),
(289,1094,ls),
(336,1094,o),
(356,1118,o),
(367,1165,cs),
(391,1272,o),
(482,1295,o),
(689,1295,cs),
(983,1295,ls),
(1229,1295,o),
(1311,1259,o),
(1311,1076,cs),
(1311,1051,ls),
(1311,868,o),
(1229,832,o),
(1105,832,cs),
(997,832,ls),
(903,832,o),
(746,754,o),
(746,481,cs),
(746,433,o),
(772,407,o),
(821,407,cs),
(836,407,ls),
(884,407,o),
(910,433,o),
(910,478,cs),
(910,662,o),
(992,698,o),
(1040,698,cs),
(1161,698,ls)
);
}
);
width = 1586;
},
{
layerId = m002;
shapes = (
{
closed = 1;
nodes = (
(1251,647,o),
(1475,771,o),
(1475,1021,cs),
(1475,1051,ls),
(1475,1300,o),
(1248,1429,o),
(960,1429,cs),
(676,1429,ls),
(388,1429,o),
(232,1300,o),
(202,1104,cs),
(194,1055,o),
(224,1027,o),
(274,1027,cs),
(508,1027,ls),
(544,1027,o),
(558,1051,o),
(568,1087,cs),
(580,1133,o),
(683,1161,o),
(800,1161,cs),
(890,1161,ls),
(1024,1161,o),
(1106,1125,o),
(1106,1048,cs),
(1106,1024,ls),
(1106,956,o),
(1024,910,o),
(975,910,cs),
(901,910,ls),
(806,910,o),
(649,802,o),
(649,551,cs),
(649,505,o),
(676,484,o),
(724,484,cs),
(951,484,ls),
(997,484,o),
(1016,505,o),
(1020,551,cs),
(1024,592,o),
(1066,639,o),
(1109,641,cs),
(1134,642,ls)
);
}
);
width = 1586;
}
);
unicode = 660;
},
{
glyphname = idotless;
kernLeft = a;
kernRight = a;
lastChange = "2025-03-02 15:42:17 +0000";
layers = (
{
anchors = (
{
name = bottom;
pos = (201,0);
},
{
name = ogonek;
pos = (283,0);
},
{
name = top;
pos = (201,1072);
}
);
layerId = m01;
shapes = (
{
closed = 1;
nodes = (
(119,74,ls),
(119,26,o),
(145,0,o),
(194,0,cs),
(208,0,ls),
(257,0,o),
(283,26,o),
(283,74,cs),
(283,997,ls),
(283,1046,o),
(257,1072,o),
(208,1072,cs),
(194,1072,ls),
(145,1072,o),
(119,1046,o),
(119,997,cs)
);
}
);
width = 402;
},
{
anchors = (
{
name = bottom;
pos = (303,0);
},
{
name = ogonek;
pos = (432,0);
},
{
name = top;
pos = (303,1072);
}
);
layerId = m002;
shapes = (
{
closed = 1;
nodes = (
(119,74,ls),
(119,26,o),
(145,0,o),
(194,0,cs),
(413,0,ls),
(462,0,o),
(488,26,o),
(488,74,cs),
(488,997,ls),
(488,1046,o),
(462,1072,o),
(413,1072,cs),
(194,1072,ls),
(145,1072,o),
(119,1046,o),
(119,997,cs)
);
}
);
width = 607;
}
);
unicode = 305;
},
{
glyphname = jdotless;
kernLeft = j;
kernRight = a;
lastChange = "2025-03-02 15:42:17 +0000";
layers = (
{
anchors = (
{
name = bottom;
pos = (255,-476);
},
{
name = top;
pos = (335,1072);
}
);
layerId = m01;
shapes = (
{
closed = 1;
nodes = (
(261,-491,o),
(417,-368,o),
(417,7,cs),
(417,997,ls),
(417,1046,o),
(391,1072,o),
(342,1071,cs),
(328,1071,ls),
(280,1070,o),
(253,1043,o),
(253,996,cs),
(253,8,ls),
(253,-302,o),
(160,-351,o),
(26,-357,cs),
(-10,-359,o),
(-30,-377,o),
(-30,-413,cs),
(-30,-435,ls),
(-30,-472,o),
(-10,-491,o),
(26,-491,cs)
);
}
);
width = 596;
},
{
anchors = (
{
name = bottom;
pos = (357,-476);
},
{
name = top;
pos = (437,1072);
}
);
layerId = m002;
shapes = (
{
closed = 1;
nodes = (
(465,-491,o),
(622,-368,o),
(622,7,cs),
(622,997,ls),
(622,1046,o),
(596,1071,o),
(547,1071,cs),
(328,1071,ls),
(280,1071,o),
(253,1043,o),
(253,996,cs),
(253,176,ls),
(253,-135,o),
(160,-183,o),
(26,-190,cs),
(-10,-192,o),
(-30,-209,o),
(-30,-246,cs),
(-30,-435,ls),
(-30,-472,o),
(-10,-491,o),
(26,-491,cs)
);
}
);
width = 800;
}
);
unicode = 567;
},
{
glyphname = k;
kernLeft = l;
kernRight = z;
lastChange = "2025-03-02 15:42:17 +0000";
layers = (
{
anchors = (
{
name = bottom;
pos = (655,0);
},
{
name = top;
pos = (655,1429);
}
);
layerId = m01;
shapes = (
{
closed = 1;
nodes = (
(1125,0,ls),
(1179,0,o),
(1191,32,o),
(1146,68,cs),
(574,532,l),
(1124,1004,ls),
(1166,1039,o),
(1157,1072,o),
(1103,1072,cs),
(1020,1072,ls),
(993,1072,o),
(970,1069,o),
(950,1051,cs),
(454,610,l),
(231,610,l),
(231,462,l),
(425,462,l),
(968,21,ls),
(989,5,o),
(1011,0,o),
(1037,0,cs)
);
},
{
pos = (30,0);
ref = "_stem-v-lowercase-CH";
}
);
width = 1173;
},
{
anchors = (
{
name = bottom;
pos = (737,0);
},
{
name = top;
pos = (804,1429);
}
);
layerId = m002;
shapes = (
{
closed = 1;
nodes = (
(1426,0,ls),
(1480,0,o),
(1489,34,o),
(1448,68,cs),
(876,532,l),
(1426,1004,ls),
(1467,1039,o),
(1458,1072,o),
(1404,1072,cs),
(1035,1072,ls),
(1008,1072,o),
(987,1069,o),
(965,1051,cs),
(541,687,l),
(303,687,l),
(303,385,l),
(525,385,l),
(973,21,ls),
(994,5,o),
(1016,0,o),
(1043,0,cs)
);
},
{
pos = (30,0);
ref = "_stem-v-lowercase-CH";
}
);
width = 1474;
}
);
unicode = 107;
},
{
glyphname = eng;
kernLeft = a;
kernRight = l;
lastChange = "2025-03-02 15:42:17 +0000";
layers = (
{
anchors = (
{
name = bottom;
pos = (791,-476);
},
{
name = top;
pos = (791,1072);
}
);
layerId = m01;
shapes = (
{
ref = n;
},
{
closed = 1;
nodes = (
(1233,-506,o),
(1383,-377,o),
(1383,7,cs),
(1383,403,ls),
(1383,451,o),
(1357,476,o),
(1308,476,cs),
(1293,476,ls),
(1246,476,o),
(1219,448,o),
(1219,401,cs),
(1219,8,ls),
(1219,-302,o),
(1147,-353,o),
(1013,-357,cs),
(963,-359,o),
(936,-382,o),
(936,-424,cs),
(936,-441,ls),
(936,-483,o),
(963,-506,o),
(1013,-506,cs)
);
}
);
width = 1582;
},
{
anchors = (
{
name = bottom;
pos = (784,-476);
},
{
name = top;
pos = (784,1072);
}
);
layerId = m002;
shapes = (
{
ref = n;
},
{
closed = 1;
nodes = (
(1250,-506,o),
(1370,-388,o),
(1370,7,cs),
(1370,403,ls),
(1370,451,o),
(1344,476,o),
(1295,476,cs),
(1076,476,ls),
(1028,476,o),
(1001,448,o),
(1001,401,cs),
(1001,8,ls),
(1001,-150,o),
(959,-200,o),
(885,-205,cs),
(835,-207,o),
(808,-230,o),
(808,-272,cs),
(808,-441,ls),
(808,-483,o),
(835,-506,o),
(885,-506,cs)
);
}
);
width = 1569;
}
);
unicode = 331;
},
{
glyphname = o;
kernLeft = c;
kernRight = c;
lastChange = "2025-03-02 15:42:17 +0000";
layers = (
{
anchors = (
{
name = bottom;
pos = (746,-22);
},
{
name = center;
pos = (746,536);
},
{
name = ogonek;
pos = (1152,9);
},
{
name = top;
pos = (746,1094);
},
{
name = topright;
pos = (1325,1072);
}
);
layerId = m01;
shapes = (
{
closed = 1;
nodes = (
(89,521,ls),
(89,56,o),
(246,-22,o),
(648,-22,cs),
(849,-22,ls),
(1247,-22,o),
(1403,56,o),
(1403,521,cs),
(1403,551,ls),
(1403,1016,o),
(1247,1094,o),
(849,1094,cs),
(648,1094,ls),
(246,1094,o),
(89,1016,o),
(89,551,cs)
);
},
{
closed = 1;
nodes = (
(253,924,o),
(335,960,o),
(661,960,cs),
(836,960,ls),
(1158,960,o),
(1239,924,o),
(1239,548,cs),
(1239,524,ls),
(1239,148,o),
(1158,112,o),
(836,112,cs),
(661,112,ls),
(335,112,o),
(253,148,o),
(253,524,cs),
(253,548,ls)
);
}
);
width = 1492;
},
{
anchors = (
{
name = bottom;
pos = (744,-22);
},
{
name = center;
pos = (744,536);
},
{
name = ogonek;
pos = (1156,9);
},
{
name = top;
pos = (744,1094);
},
{
name = topright;
pos = (1292,1072);
}
);
layerId = m002;
shapes = (
{
closed = 1;
nodes = (
(89,521,ls),
(89,56,o),
(246,-22,o),
(690,-22,cs),
(798,-22,ls),
(1243,-22,o),
(1399,56,o),
(1399,521,cs),
(1399,551,ls),
(1399,1016,o),
(1243,1094,o),
(798,1094,cs),
(690,1094,ls),
(246,1094,o),
(89,1016,o),
(89,551,cs)
);
},
{
closed = 1;
nodes = (
(458,756,o),
(540,793,o),
(703,793,cs),
(785,793,ls),
(949,793,o),
(1031,756,o),
(1031,548,cs),
(1031,524,ls),
(1031,315,o),
(949,279,o),
(785,279,cs),
(703,279,ls),
(540,279,o),
(458,315,o),
(458,524,cs),
(458,548,ls)
);
}
);
width = 1489;
}
);
unicode = 111;
},
{
glyphname = thorn;
kernLeft = a;
kernRight = c;
lastChange = "2025-03-02 15:42:17 +0000";
layers = (
{
layerId = m01;
shapes = (
{
closed = 1;
nodes = (
(119,-283,ls),
(119,-331,o),
(145,-357,o),
(194,-357,cs),
(208,-357,ls),
(257,-357,o),
(283,-331,o),
(283,-283,cs),
(283,1355,ls),
(283,1403,o),
(257,1429,o),
(208,1429,cs),
(194,1429,ls),
(145,1429,o),
(119,1403,o),
(119,1355,cs)
);
},
{
pos = (283,0);
ref = "_bowl-b";
}
);
width = 1519;
},
{
layerId = m002;
shapes = (
{
closed = 1;
nodes = (
(119,-283,ls),
(119,-331,o),
(145,-357,o),
(194,-357,cs),
(413,-357,ls),
(462,-357,o),
(488,-331,o),
(488,-283,cs),
(488,1355,ls),
(488,1403,o),
(462,1429,o),
(413,1429,cs),
(194,1429,ls),
(145,1429,o),
(119,1403,o),
(119,1355,cs)
);
},
{
pos = (488,0);
ref = "_bowl-b";
}
);
width = 1519;
}
);
unicode = 254;
},
{
glyphname = r;
kernLeft = a;
kernRight = r;
lastChange = "2025-03-02 15:42:17 +0000";
layers = (
{
anchors = (
{
name = bottom;
pos = (216,0);
},
{
name = top;
pos = (486,1072);
}
);
layerId = m01;
shapes = (
{
closed = 1;
nodes = (
(223,0,ls),
(272,0,o),
(298,26,o),
(298,74,cs),
(298,663,ls),
(298,814,o),
(419,938,o),
(661,938,cs),
(811,938,ls),
(850,938,o),
(867,955,o),
(867,994,cs),
(867,1016,ls),
(867,1055,o),
(850,1072,o),
(811,1072,cs),
(661,1072,ls),
(540,1072,o),
(380,1023,o),
(298,917,c),
(298,997,ls),
(298,1046,o),
(272,1072,o),
(223,1072,cs),
(208,1072,ls),
(160,1072,o),
(134,1046,o),
(134,997,cs),
(134,74,ls),
(134,26,o),
(160,0,o),
(208,0,cs)
);
}
);
width = 971;
},
{
anchors = (
{
name = bottom;
pos = (318,0);
},
{
name = top;
pos = (573,1072);
}
);
layerId = m002;
shapes = (
{
closed = 1;
nodes = (
(428,4,ls),
(476,4,o),
(502,30,o),
(502,78,cs),
(502,548,ls),
(502,710,o),
(575,770,o),
(801,770,cs),
(968,770,ls),
(1016,770,o),
(1042,796,o),
(1042,845,cs),
(1042,997,ls),
(1042,1046,o),
(1016,1072,o),
(968,1072,cs),
(801,1072,ls),
(717,1072,o),
(605,1062,o),
(502,990,c),
(502,997,ls),
(502,1046,o),
(476,1072,o),
(428,1072,cs),
(208,1072,ls),
(160,1072,o),
(134,1046,o),
(134,997,cs),
(134,78,ls),
(134,30,o),
(160,4,o),
(208,4,cs)
);
}
);
width = 1146;
}
);
unicode = 114;
},
{
glyphname = s;
kernLeft = a;
kernRight = a;
lastChange = "2025-03-02 15:42:17 +0000";
layers = (
{
anchors = (
{
name = bottom;
pos = (798,-22);
},
{
name = top;
pos = (798,1072);
}
);
layerId = m01;
shapes = (
{
closed = 1;
nodes = (
(899,-22,ls),
(1320,-22,o),
(1477,72,o),
(1477,275,cs),
(1477,309,ls),
(1477,513,o),
(1320,598,o),
(899,602,cs),
(711,604,ls),
(366,608,o),
(284,637,o),
(284,770,cs),
(284,794,ls),
(284,924,o),
(366,960,o),
(711,960,cs),
(914,960,ls),
(1197,960,o),
(1288,937,o),
(1312,800,cs),
(1320,754,o),
(1343,730,o),
(1389,730,cs),
(1405,730,ls),
(1452,730,o),
(1483,757,o),
(1477,807,cs),
(1447,1032,o),
(1291,1094,o),
(927,1094,cs),
(698,1094,ls),
(276,1094,o),
(120,1000,o),
(120,796,cs),
(120,770,ls),
(120,567,o),
(276,474,o),
(698,470,cs),
(886,468,ls),
(1231,464,o),
(1313,435,o),
(1313,302,cs),
(1313,278,ls),
(1313,148,o),
(1231,112,o),
(886,112,cs),
(683,112,ls),
(400,112,o),
(309,135,o),
(285,272,cs),
(276,318,o),
(254,342,o),
(207,342,cs),
(192,342,ls),
(145,342,o),
(114,315,o),
(120,265,cs),
(150,40,o),
(306,-22,o),
(670,-22,cs)
);
}
);
width = 1597;
},
{
anchors = (
{
name = bottom;
pos = (797,-22);
},
{
name = top;
pos = (797,1094);
}
);
layerId = m002;
shapes = (
{
closed = 1;
nodes = (
(898,-22,ls),
(1318,-22,o),
(1475,72,o),
(1475,307,cs),
(1475,334,ls),
(1475,569,o),
(1318,662,o),
(898,668,cs),
(710,671,ls),
(505,674,o),
(470,691,o),
(470,740,cs),
(470,757,ls),
(470,806,o),
(539,826,o),
(753,826,cs),
(863,826,ls),
(1067,826,o),
(1120,812,o),
(1124,793,cs),
(1129,768,o),
(1155,759,o),
(1201,759,cs),
(1403,759,ls),
(1450,759,o),
(1482,787,o),
(1475,837,cs),
(1445,1032,o),
(1289,1094,o),
(926,1094,cs),
(697,1094,ls),
(276,1094,o),
(120,1000,o),
(120,765,cs),
(120,738,ls),
(120,502,o),
(276,410,o),
(697,404,cs),
(885,401,ls),
(1090,398,o),
(1125,381,o),
(1125,332,cs),
(1125,315,ls),
(1125,266,o),
(1090,246,o),
(842,246,cs),
(732,246,ls),
(528,246,o),
(475,260,o),
(471,279,cs),
(466,305,o),
(440,313,o),
(394,313,cs),
(192,313,ls),
(145,313,o),
(113,285,o),
(120,235,cs),
(150,40,o),
(306,-22,o),
(669,-22,cs)
);
}
);
width = 1595;
}
);
unicode = 115;
},
{
glyphname = germandbls;
kernLeft = f;
kernRight = O;
lastChange = "2025-03-02 15:42:17 +0000";
layers = (
{
anchors = (
{
name = bottom;
pos = (784,0);
},
{
name = top;
pos = (784,1519);
}
);
layerId = m01;
shapes = (
{
closed = 1;
nodes = (
(1020,0,ls),
(1332,0,o),
(1489,78,o),
(1489,383,cs),
(1489,413,ls),
(1489,576,o),
(1421,677,o),
(1250,720,c),
(1381,765,o),
(1429,855,o),
(1429,1016,cs),
(1429,1046,ls),
(1429,1351,o),
(1273,1429,o),
(960,1429,cs),
(827,1429,ls),
(260,1429,o),
(119,1330,o),
(119,945,cs),
(119,74,ls),
(119,26,o),
(145,0,o),
(194,1,cs),
(208,1,ls),
(256,2,o),
(283,29,o),
(283,76,cs),
(283,944,ls),
(283,1240,o),
(355,1295,o),
(827,1295,cs),
(833,1295,ls),
(1184,1295,o),
(1265,1268,o),
(1265,1043,cs),
(1265,1019,ls),
(1265,818,o),
(1184,782,o),
(1019,782,cs),
(811,782,ls),
(775,782,o),
(756,762,o),
(756,726,cs),
(756,703,ls),
(756,667,o),
(775,648,o),
(811,648,cs),
(1007,648,ls),
(1243,648,o),
(1325,611,o),
(1325,410,cs),
(1325,386,ls),
(1325,161,o),
(1243,134,o),
(1007,134,cs),
(633,134,ls),
(596,134,o),
(577,114,o),
(577,78,cs),
(577,56,ls),
(577,20,o),
(596,0,o),
(633,0,cs)
);
}
);
width = 1578;
},
{
anchors = (
{
name = bottom;
pos = (783,0);
},
{
name = top;
pos = (783,1519);
}
);
layerId = m002;
shapes = (
{
closed = 1;
nodes = (
(1020,0,ls),
(1332,0,o),
(1489,78,o),
(1489,383,cs),
(1489,413,ls),
(1489,576,o),
(1439,640,o),
(1287,720,c),
(1409,811,o),
(1429,874,o),
(1429,1016,cs),
(1429,1046,ls),
(1429,1351,o),
(1273,1429,o),
(846,1429,cs),
(827,1429,ls),
(261,1429,o),
(119,1330,o),
(119,945,cs),
(119,74,ls),
(119,26,o),
(145,1,o),
(194,1,cs),
(413,1,ls),
(461,1,o),
(488,29,o),
(488,76,cs),
(488,944,ls),
(488,1084,o),
(527,1128,o),
(761,1128,cs),
(786,1128,ls),
(1009,1128,o),
(1061,1084,o),
(1061,1009,cs),
(1061,984,ls),
(1061,909,o),
(1022,865,o),
(849,865,cs),
(811,865,ls),
(775,865,o),
(756,846,o),
(756,810,cs),
(756,620,ls),
(756,583,o),
(775,564,o),
(811,564,cs),
(988,564,ls),
(1038,564,o),
(1120,522,o),
(1120,447,cs),
(1120,422,ls),
(1120,347,o),
(1038,301,o),
(988,301,cs),
(662,301,ls),
(625,301,o),
(607,282,o),
(607,246,cs),
(607,56,ls),
(607,20,o),
(625,0,o),
(662,0,cs)
);
}
);
width = 1578;
}
);
unicode = 223;
},
{
glyphname = t;
kernLeft = O;
kernRight = e;
lastChange = "2025-03-02 15:42:17 +0000";
layers = (
{
anchors = (
{
name = bottom;
pos = (669,0);
},
{
name = center;
pos = (483,638);
},
{
name = top;
pos = (669,1399);
},
{
name = topright;
pos = (1136,1519);
}
);
layerId = m01;
shapes = (
{
closed = 1;
nodes = (
(737,0,ls),
(1032,0,o),
(1183,68,o),
(1203,397,cs),
(1206,448,o),
(1178,476,o),
(1130,476,cs),
(1115,476,ls),
(1067,476,o),
(1042,449,o),
(1039,399,cs),
(1025,164,o),
(944,134,o),
(724,134,cs),
(645,134,ls),
(409,134,o),
(328,171,o),
(328,417,cs),
(328,938,l),
(1071,938,ls),
(1119,938,o),
(1145,964,o),
(1145,997,cs),
(1145,1012,ls),
(1145,1046,o),
(1119,1072,o),
(1071,1072,cs),
(328,1072,l),
(328,1325,ls),
(328,1373,o),
(301,1399,o),
(253,1399,cs),
(238,1399,ls),
(190,1399,o),
(164,1373,o),
(164,1325,cs),
(164,418,ls),
(164,79,o),
(320,0,o),
(632,0,cs)
);
}
);
width = 1337;
},
{
anchors = (
{
name = bottom;
pos = (668,0);
},
{
name = center;
pos = (501,629);
},
{
name = top;
pos = (668,1429);
},
{
name = topright;
pos = (1169,1519);
}
);
layerId = m002;
shapes = (
{
closed = 1;
nodes = (
(713,0,ls),
(1015,0,o),
(1171,62,o),
(1201,414,cs),
(1206,465,o),
(1178,491,o),
(1130,491,cs),
(909,491,ls),
(862,491,o),
(837,471,o),
(832,421,cs),
(824,338,o),
(743,301,o),
(699,301,cs),
(670,301,ls),
(614,301,o),
(532,339,o),
(532,450,cs),
(532,770,l),
(1070,770,ls),
(1118,770,o),
(1144,796,o),
(1144,830,cs),
(1144,1012,ls),
(1144,1046,o),
(1118,1072,o),
(1070,1072,cs),
(532,1072,l),
(532,1355,ls),
(532,1403,o),
(506,1429,o),
(458,1429,cs),
(238,1429,ls),
(190,1429,o),
(164,1403,o),
(164,1355,cs),
(164,418,ls),
(164,79,o),
(320,0,o),
(656,0,cs)
);
}
);
width = 1336;
}
);
unicode = 116;
},
{
glyphname = tbar;
kernLeft = O;
kernRight = e;
lastChange = "2025-03-02 15:42:17 +0000";
layers = (
{
layerId = m01;
shapes = (
{
closed = 1;
nodes = (
(789,581,ls),
(837,581,o),
(863,607,o),
(863,640,cs),
(863,655,ls),
(863,689,o),
(837,715,o),
(789,715,cs),
(104,715,ls),
(56,715,o),
(30,689,o),
(30,655,cs),
(30,640,ls),
(30,607,o),
(56,581,o),
(104,581,cs)
);
},
{
ref = t;
}
);
width = 1337;
},
{
layerId = m002;
shapes = (
{
closed = 1;
nodes = (
(707,447,ls),
(756,447,o),
(782,473,o),
(782,506,cs),
(782,655,ls),
(782,689,o),
(756,715,o),
(707,715,cs),
(164,715,ls),
(115,715,o),
(89,689,o),
(89,655,cs),
(89,506,ls),
(89,473,o),
(115,447,o),
(164,447,cs)
);
},
{
ref = t;
}
);
width = 1251;
}
);
unicode = 359;
},
{
glyphname = ubar;
kernLeft = a;
kernRight = a;
lastChange = "2025-03-02 15:42:17 +0000";
layers = (
{
layerId = m01;
shapes = (
{
alignment = -1;
ref = u;
},
{
closed = 1;
nodes = (
(0,510,ls),
(0,474,o),
(20,454,o),
(56,454,cs),
(1446,454,ls),
(1482,454,o),
(1502,474,o),
(1502,510,cs),
(1502,562,ls),
(1502,598,o),
(1482,618,o),
(1446,618,cs),
(56,618,ls),
(20,618,o),
(0,598,o),
(0,562,cs)
);
}
);
width = 1502;
},
{
layerId = m002;
shapes = (
{
alignment = -1;
ref = u;
},
{
closed = 1;
nodes = (
(0,501,ls),
(0,464,o),
(20,445,o),
(56,445,cs),
(1433,445,ls),
(1469,445,o),
(1489,464,o),
(1489,501,cs),
(1489,724,ls),
(1489,760,o),
(1469,780,o),
(1433,780,cs),
(56,780,ls),
(20,780,o),
(0,760,o),
(0,724,cs)
);
}
);
width = 1489;
}
);
unicode = 649;
},
{
glyphname = v;
kernLeft = v;
kernRight = v;
lastChange = "2025-03-02 15:42:17 +0000";
layers = (
{
anchors = (
{
name = bottom;
pos = (738,0);
},
{
name = top;
pos = (738,1072);
}
);
layerId = m01;
shapes = (
{
closed = 1;
nodes = (
(797,0,ls),
(824,0,o),
(843,10,o),
(856,34,cs),
(1407,1013,ls),
(1426,1048,o),
(1413,1072,o),
(1380,1072,cs),
(1308,1072,ls),
(1281,1072,o),
(1264,1062,o),
(1250,1037,cs),
(738,134,l),
(226,1037,ls),
(212,1062,o),
(194,1072,o),
(167,1072,cs),
(96,1072,ls),
(62,1072,o),
(49,1048,o),
(69,1013,cs),
(620,34,ls),
(633,10,o),
(651,0,o),
(678,0,cs)
);
}
);
width = 1476;
},
{
anchors = (
{
name = bottom;
pos = (737,0);
},
{
name = top;
pos = (737,1072);
}
);
layerId = m002;
shapes = (
{
closed = 1;
nodes = (
(966,0,ls),
(993,0,o),
(1015,10,o),
(1024,34,cs),
(1408,1013,ls),
(1422,1048,o),
(1414,1072,o),
(1381,1072,cs),
(1084,1072,ls),
(1057,1072,o),
(1036,1063,o),
(1025,1037,cs),
(737,301,l),
(448,1037,ls),
(438,1063,o),
(417,1072,o),
(390,1072,cs),
(93,1072,ls),
(60,1072,o),
(52,1048,o),
(66,1013,cs),
(450,34,ls),
(460,10,o),
(482,0,o),
(509,0,cs)
);
}
);
width = 1474;
}
);
unicode = 118;
},
{
glyphname = w;
kernLeft = w;
kernRight = w;
lastChange = "2025-03-02 15:42:17 +0000";
layers = (
{
anchors = (
{
name = bottom;
pos = (1069,0);
},
{
name = top;
pos = (1069,1072);
}
);
layerId = m01;
shapes = (
{
closed = 1;
nodes = (
(660,0,ls),
(688,0,o),
(707,12,o),
(717,38,cs),
(1069,938,l),
(1421,38,ls),
(1431,12,o),
(1451,0,o),
(1479,0,cs),
(1626,0,ls),
(1654,0,o),
(1674,12,o),
(1684,38,cs),
(2066,1013,ls),
(2080,1050,o),
(2065,1072,o),
(2028,1072,cs),
(1966,1072,ls),
(1938,1072,o),
(1919,1060,o),
(1908,1034,cs),
(1557,134,l),
(1533,134,l),
(1182,1034,ls),
(1171,1061,o),
(1152,1072,o),
(1124,1072,cs),
(1014,1072,ls),
(986,1072,o),
(967,1060,o),
(957,1034,cs),
(605,134,l),
(582,134,l),
(230,1034,ls),
(220,1060,o),
(200,1072,o),
(172,1072,cs),
(107,1072,ls),
(72,1072,o),
(59,1050,o),
(73,1013,cs),
(454,38,ls),
(464,12,o),
(484,0,o),
(512,0,cs)
);
}
);
width = 2138;
},
{
anchors = (
{
name = bottom;
pos = (1069,0);
},
{
name = top;
pos = (1069,1072);
}
);
layerId = m002;
shapes = (
{
closed = 1;
nodes = (
(817,0,ls),
(845,0,o),
(864,12,o),
(875,38,cs),
(1069,536,l),
(1264,38,ls),
(1274,12,o),
(1293,0,o),
(1321,0,cs),
(1626,0,ls),
(1654,0,o),
(1674,12,o),
(1684,38,cs),
(2066,1013,ls),
(2080,1050,o),
(2065,1072,o),
(2028,1072,cs),
(1741,1072,ls),
(1713,1072,o),
(1693,1061,o),
(1683,1034,cs),
(1489,536,l),
(1489,536,l),
(1294,1034,ls),
(1284,1061,o),
(1265,1072,o),
(1237,1072,cs),
(902,1072,ls),
(874,1072,o),
(854,1061,o),
(844,1034,cs),
(649,536,l),
(649,536,l),
(455,1034,ls),
(445,1061,o),
(425,1072,o),
(397,1072,cs),
(107,1072,ls),
(72,1072,o),
(59,1050,o),
(73,1013,cs),
(454,38,ls),
(464,12,o),
(484,0,o),
(512,0,cs)
);
}
);
width = 2138;
}
);
unicode = 119;
},
{
glyphname = x;
kernLeft = z;
kernRight = z;
lastChange = "2025-03-02 15:42:17 +0000";
layers = (
{
anchors = (
{
name = bottom;
pos = (743,0);
},
{
name = top;
pos = (743,1072);
}
);
layerId = m01;
shapes = (
{
closed = 1;
nodes = (
(1199,29,ls),
(1221,9,o),
(1240,0,o),
(1268,0,cs),
(1349,0,ls),
(1398,0,o),
(1412,35,o),
(1375,69,cs),
(314,1043,ls),
(292,1064,o),
(273,1072,o),
(245,1072,cs),
(164,1072,ls),
(115,1072,o),
(100,1037,o),
(137,1003,cs)
);
},
{
closed = 1;
nodes = (
(217,0,ls),
(245,0,o),
(264,9,o),
(286,29,cs),
(1348,1003,ls),
(1385,1037,o),
(1369,1072,o),
(1319,1072,cs),
(1240,1072,ls),
(1212,1072,o),
(1193,1064,o),
(1171,1043,cs),
(110,69,ls),
(73,35,o),
(87,0,o),
(136,0,cs)
);
}
);
width = 1485;
},
{
anchors = (
{
name = bottom;
pos = (745,0);
},
{
name = top;
pos = (745,1072);
}
);
layerId = m002;
shapes = (
{
closed = 1;
nodes = (
(976,29,ls),
(995,7,o),
(1017,0,o),
(1045,0,cs),
(1357,0,ls),
(1405,0,o),
(1415,32,o),
(1383,69,cs),
(542,1043,ls),
(524,1064,o),
(502,1072,o),
(474,1072,cs),
(162,1072,ls),
(114,1072,o),
(102,1040,o),
(135,1003,cs)
);
},
{
closed = 1;
nodes = (
(446,0,ls),
(474,0,o),
(496,7,o),
(515,29,cs),
(1356,1003,ls),
(1388,1040,o),
(1376,1072,o),
(1327,1072,cs),
(1017,1072,ls),
(989,1072,o),
(967,1064,o),
(948,1043,cs),
(108,69,ls),
(75,32,o),
(86,0,o),
(134,0,cs)
);
}
);
width = 1491;
}
);
unicode = 120;
},
{
glyphname = y;
kernLeft = v;
kernRight = w;
lastChange = "2025-03-02 15:42:17 +0000";
layers = (
{
anchors = (
{
name = bottom;
pos = (723,-238);
},
{
name = top;
pos = (723,1072);
}
);
layerId = m01;
shapes = (
{
closed = 1;
nodes = (
(482,-476,o),
(597,-389,o),
(837,34,cs),
(1392,1013,ls),
(1411,1047,o),
(1399,1072,o),
(1365,1072,cs),
(1293,1072,ls),
(1266,1072,o),
(1249,1062,o),
(1235,1037,cs),
(723,134,l),
(211,1037,ls),
(197,1062,o),
(180,1072,o),
(153,1072,cs),
(81,1072,ls),
(47,1072,o),
(34,1048,o),
(54,1013,cs),
(605,34,ls),
(619,9,o),
(636,4,o),
(648,1,cs),
(648,1,o),
(648,1,o),
(648,1,c),
(476,-301,o),
(396,-337,o),
(234,-342,cs),
(198,-343,o),
(169,-362,o),
(169,-398,cs),
(169,-421,ls),
(169,-457,o),
(198,-476,o),
(234,-476,cs)
);
}
);
width = 1462;
},
{
anchors = (
{
name = bottom;
pos = (722,-384);
},
{
name = top;
pos = (722,1072);
}
);
layerId = m002;
shapes = (
{
closed = 1;
nodes = (
(676,-476,o),
(844,-389,o),
(1010,34,cs),
(1393,1013,ls),
(1407,1049,o),
(1399,1072,o),
(1366,1072,cs),
(1069,1072,ls),
(1042,1072,o),
(1021,1064,o),
(1011,1037,cs),
(722,301,l),
(434,1037,ls),
(423,1064,o),
(402,1072,o),
(375,1072,cs),
(78,1072,ls),
(45,1072,o),
(37,1049,o),
(51,1013,cs),
(435,34,ls),
(445,9,o),
(467,0,o),
(494,0,cs),
(494,0,o),
(604,0,o),
(604,0,c),
(552,-135,o),
(467,-169,o),
(234,-175,cs),
(198,-176,o),
(169,-194,o),
(169,-231,cs),
(169,-421,ls),
(169,-457,o),
(198,-476,o),
(234,-476,cs)
);
}
);
width = 1461;
}
);
unicode = 121;
},
{
glyphname = z;
kernLeft = z;
kernRight = z;
lastChange = "2025-03-02 15:42:17 +0000";
layers = (
{
anchors = (
{
name = bottom;
pos = (685,0);
},
{
name = center;
pos = (685,536);
},
{
name = top;
pos = (685,1072);
}
);
layerId = m01;
shapes = (
{
closed = 1;
nodes = (
(1194,0,ls),
(1230,0,o),
(1250,20,o),
(1250,56,cs),
(1250,78,ls),
(1250,114,o),
(1230,134,o),
(1194,134,cs),
(358,134,l),
(1206,915,ls),
(1235,942,o),
(1251,957,o),
(1251,994,cs),
(1251,1016,ls),
(1251,1052,o),
(1231,1072,o),
(1195,1072,cs),
(176,1072,ls),
(140,1072,o),
(120,1052,o),
(120,1016,cs),
(120,994,ls),
(120,957,o),
(140,938,o),
(176,938,cs),
(1011,938,l),
(164,157,ls),
(135,130,o),
(119,114,o),
(119,78,cs),
(119,56,ls),
(119,20,o),
(139,0,o),
(175,0,cs)
);
}
);
width = 1370;
},
{
anchors = (
{
name = bottom;
pos = (685,0);
},
{
name = center;
pos = (685,536);
},
{
name = top;
pos = (685,1072);
}
);
layerId = m002;
shapes = (
{
closed = 1;
nodes = (
(1194,0,ls),
(1230,0,o),
(1250,20,o),
(1250,56,cs),
(1250,246,ls),
(1250,282,o),
(1230,301,o),
(1194,301,cs),
(663,301,l),
(1206,747,ls),
(1237,772,o),
(1251,790,o),
(1251,826,cs),
(1251,1016,ls),
(1251,1052,o),
(1231,1072,o),
(1195,1072,cs),
(176,1072,ls),
(140,1072,o),
(120,1052,o),
(120,1016,cs),
(120,826,ls),
(120,790,o),
(140,770,o),
(176,770,cs),
(706,770,l),
(164,325,ls),
(133,300,o),
(119,282,o),
(119,246,cs),
(119,56,ls),
(119,20,o),
(139,0,o),
(175,0,cs)
);
}
);
width = 1370;
}
);
unicode = 122;
},
{
glyphname = ordfeminine;
lastChange = "2025-03-02 15:42:17 +0000";
layers = (
{
layerId = m01;
shapes = (
{
closed = 1;
nodes = (
(994,537,ls),
(1034,536,o),
(1056,558,o),
(1056,599,cs),
(1056,1007,ls),
(1056,1363,o),
(949,1429,o),
(622,1429,cs),
(509,1429,ls),
(237,1429,o),
(105,1376,o),
(80,1211,cs),
(74,1170,o),
(99,1146,o),
(141,1146,cs),
(154,1146,ls),
(194,1146,o),
(211,1167,o),
(220,1205,cs),
(237,1294,o),
(317,1316,o),
(520,1316,cs),
(612,1316,ls),
(874,1316,o),
(918,1287,o),
(918,1006,cs),
(918,601,ls),
(918,561,o),
(941,538,o),
(981,537,cs)
);
},
{
closed = 1;
nodes = (
(612,536,ls),
(893,536,o),
(987,602,o),
(987,786,cs),
(987,814,ls),
(987,997,o),
(893,1064,o),
(612,1064,cs),
(495,1064,ls),
(194,1064,o),
(61,997,o),
(61,814,cs),
(61,786,ls),
(61,602,o),
(194,536,o),
(495,536,cs)
);
},
{
closed = 1;
nodes = (
(269,649,o),
(199,680,o),
(199,788,cs),
(199,811,ls),
(199,919,o),
(269,950,o),
(505,950,cs),
(612,950,ls),
(841,950,o),
(918,919,o),
(918,811,cs),
(918,788,ls),
(918,680,o),
(841,649,o),
(612,649,cs),
(505,649,ls)
);
}
);
width = 1118;
},
{
layerId = m002;
shapes = (
{
closed = 1;
nodes = (
(993,536,ls),
(1034,536,o),
(1056,557,o),
(1056,598,cs),
(1056,977,ls),
(1056,1320,o),
(949,1429,o),
(623,1429,cs),
(510,1429,ls),
(239,1429,o),
(106,1377,o),
(81,1211,cs),
(74,1170,o),
(100,1145,o),
(141,1145,cs),
(285,1145,ls),
(313,1145,o),
(330,1167,o),
(334,1173,cs),
(342,1193,o),
(391,1202,o),
(520,1202,cs),
(612,1202,ls),
(743,1202,o),
(788,1131,o),
(788,976,cs),
(788,600,ls),
(788,560,o),
(810,536,o),
(850,536,cs)
);
},
{
closed = 1;
nodes = (
(608,536,ls),
(849,536,o),
(943,602,o),
(943,809,cs),
(943,818,ls),
(943,1024,o),
(849,1091,o),
(608,1091,cs),
(490,1091,ls),
(194,1091,o),
(61,1024,o),
(61,818,cs),
(61,809,ls),
(61,602,o),
(194,536,o),
(490,536,cs)
);
},
{
closed = 1;
nodes = (
(364,763,o),
(329,781,o),
(329,803,cs),
(329,823,ls),
(329,845,o),
(364,863,o),
(502,863,cs),
(608,863,ls),
(745,863,o),
(787,845,o),
(787,823,cs),
(787,803,ls),
(787,781,o),
(745,763,o),
(608,763,cs),
(502,763,ls)
);
}
);
width = 1118;
}
);
unicode = 170;
},
{
glyphname = ordmasculine;
lastChange = "2025-03-02 15:42:17 +0000";
layers = (
{
layerId = m01;
shapes = (
{
closed = 1;
nodes = (
(61,973,ls),
(61,606,o),
(194,540,o),
(500,540,cs),
(670,540,ls),
(976,540,o),
(1108,606,o),
(1108,973,cs),
(1108,999,ls),
(1108,1367,o),
(976,1433,o),
(670,1433,cs),
(500,1433,ls),
(194,1433,o),
(61,1367,o),
(61,999,cs)
);
},
{
closed = 1;
nodes = (
(210,1283,o),
(279,1314,o),
(511,1314,cs),
(659,1314,ls),
(890,1314,o),
(959,1283,o),
(959,997,cs),
(959,976,ls),
(959,689,o),
(890,659,o),
(659,659,cs),
(511,659,ls),
(279,659,o),
(210,689,o),
(210,976,cs),
(210,997,ls)
);
}
);
width = 1170;
},
{
layerId = m002;
shapes = (
{
closed = 1;
nodes = (
(61,974,ls),
(61,606,o),
(194,540,o),
(500,540,cs),
(670,540,ls),
(976,540,o),
(1108,606,o),
(1108,974,cs),
(1108,998,ls),
(1108,1367,o),
(976,1433,o),
(670,1433,cs),
(500,1433,ls),
(194,1433,o),
(61,1367,o),
(61,998,cs)
);
},
{
closed = 1;
nodes = (
(372,1148,o),
(442,1179,o),
(550,1179,cs),
(620,1179,ls),
(729,1179,o),
(797,1148,o),
(797,997,cs),
(797,976,ls),
(797,824,o),
(729,794,o),
(620,794,cs),
(550,794,ls),
(442,794,o),
(372,824,o),
(372,976,cs),
(372,997,ls)
);
}
);
width = 1170;
}
);
unicode = 186;
},
{
glyphname = Delta;
kernLeft = A;
kernRight = A;
lastChange = "2025-03-03 03:29:53 +0000";
layers = (
{
layerId = m01;
shapes = (
{
closed = 1;
nodes = (
(866,1408,o),
(839,1393,o),
(818,1357,cs),
(74,89,ls),
(43,37,o),
(67,0,o),
(126,0,cs),
(1853,0,ls),
(1911,0,o),
(1935,37,o),
(1904,89,cs),
(1160,1357,ls),
(1139,1393,o),
(1112,1408,o),
(1071,1408,cs),
(907,1408,ls)
);
},
{
closed = 1;
nodes = (
(967,1264,l),
(1011,1264,l),
(1668,144,l),
(310,144,l)
);
}
);
width = 1978;
},
{
layerId = m002;
shapes = (
{
closed = 1;
nodes = (
(712,1429,o),
(681,1415,o),
(663,1378,cs),
(70,89,ls),
(46,37,o),
(63,0,o),
(122,0,cs),
(1854,0,ls),
(1913,0,o),
(1931,37,o),
(1907,89,cs),
(1313,1378,ls),
(1295,1415,o),
(1265,1429,o),
(1224,1429,cs),
(753,1429,ls)
);
},
{
closed = 1;
nodes = (
(975,1094,l),
(1001,1094,l),
(1351,335,l),
(625,335,l)
);
}
);
width = 1976;
}
);
unicode = 916;
},
{
glyphname = Theta;
kernLeft = O;
kernRight = O;
lastChange = "2025-03-03 03:31:09 +0000";
layers = (
{
layerId = m01;
shapes = (
{
ref = O;
},
{
closed = 1;
nodes = (
(462,696,ls),
(462,656,o),
(488,632,o),
(529,632,cs),
(1467,632,ls),
(1508,632,o),
(1534,656,o),
(1534,696,cs),
(1534,712,ls),
(1534,753,o),
(1508,776,o),
(1467,776,cs),
(529,776,ls),
(488,776,o),
(462,753,o),
(462,712,cs)
);
}
);
width = 1995;
},
{
layerId = m002;
shapes = (
{
ref = O;
},
{
closed = 1;
nodes = (
(462,620,ls),
(462,583,o),
(481,564,o),
(517,564,cs),
(1478,564,ls),
(1514,564,o),
(1533,583,o),
(1533,620,cs),
(1533,810,ls),
(1533,846,o),
(1514,865,o),
(1478,865,cs),
(517,865,ls),
(481,865,o),
(462,846,o),
(462,810,cs)
);
}
);
width = 1995;
}
);
unicode = 920;
},
{
glyphname = Xi;
kernLeft = Z;
kernRight = Z;
lastChange = "2025-03-03 03:35:27 +0000";
layers = (
{
layerId = m01;
shapes = (
{
closed = 1;
nodes = (
(1588,1264,ls),
(1625,1264,o),
(1644,1287,o),
(1644,1328,cs),
(1644,1344,ls),
(1644,1385,o),
(1625,1408,o),
(1588,1408,cs),
(140,1408,ls),
(103,1408,o),
(84,1385,o),
(84,1344,cs),
(84,1328,ls),
(84,1287,o),
(103,1264,o),
(140,1264,cs)
);
},
{
closed = 1;
nodes = (
(1588,0,ls),
(1625,0,o),
(1644,23,o),
(1644,64,cs),
(1644,80,ls),
(1644,121,o),
(1625,144,o),
(1588,144,cs),
(140,144,ls),
(103,144,o),
(84,121,o),
(84,80,cs),
(84,64,ls),
(84,23,o),
(103,0,o),
(140,0,cs)
);
},
{
closed = 1;
nodes = (
(1438,634,ls),
(1475,634,o),
(1494,657,o),
(1494,698,cs),
(1494,714,ls),
(1494,755,o),
(1475,778,o),
(1438,778,cs),
(290,778,ls),
(253,778,o),
(234,755,o),
(234,714,cs),
(234,698,ls),
(234,657,o),
(253,634,o),
(290,634,cs)
);
}
);
width = 1728;
},
{
layerId = m002;
shapes = (
{
closed = 1;
nodes = (
(1574,1061,ls),
(1611,1061,o),
(1630,1080,o),
(1630,1117,cs),
(1630,1373,ls),
(1630,1410,o),
(1611,1429,o),
(1574,1429,cs),
(138,1429,ls),
(101,1429,o),
(82,1410,o),
(82,1373,cs),
(82,1117,ls),
(82,1080,o),
(101,1061,o),
(138,1061,cs)
);
},
{
closed = 1;
nodes = (
(1574,0,ls),
(1611,0,o),
(1630,20,o),
(1630,56,cs),
(1630,313,ls),
(1630,349,o),
(1611,368,o),
(1574,368,cs),
(138,368,ls),
(101,368,o),
(82,349,o),
(82,313,cs),
(82,56,ls),
(82,20,o),
(101,0,o),
(138,0,cs)
);
},
{
closed = 1;
nodes = (
(1426,530,ls),
(1462,530,o),
(1481,550,o),
(1481,586,cs),
(1481,843,ls),
(1481,879,o),
(1462,899,o),
(1426,899,cs),
(287,899,ls),
(250,899,o),
(231,879,o),
(231,843,cs),
(231,586,ls),
(231,550,o),
(250,530,o),
(287,530,cs)
);
}
);
width = 1712;
}
);
unicode = 926;
},
{
glyphname = Pi;
kernLeft = H;
kernRight = H;
lastChange = "2025-03-03 03:37:19 +0000";
layers = (
{
layerId = m01;
shapes = (
{
closed = 1;
nodes = (
(368,0,ls),
(416,0,o),
(441,26,o),
(441,74,cs),
(441,1264,l),
(1407,1264,l),
(1407,74,ls),
(1407,26,o),
(1432,0,o),
(1480,0,cs),
(1510,0,ls),
(1559,0,o),
(1583,26,o),
(1583,74,cs),
(1583,1264,l),
(1697,1264,ls),
(1738,1264,o),
(1764,1287,o),
(1764,1328,cs),
(1764,1344,ls),
(1764,1385,o),
(1738,1408,o),
(1697,1408,cs),
(151,1408,ls),
(110,1408,o),
(84,1385,o),
(84,1344,cs),
(84,1328,ls),
(84,1287,o),
(110,1264,o),
(151,1264,cs),
(265,1264,l),
(265,74,ls),
(265,26,o),
(290,0,o),
(338,0,cs)
);
}
);
width = 1848;
},
{
layerId = m002;
shapes = (
{
closed = 1;
nodes = (
(588,0,ls),
(636,0,o),
(663,26,o),
(663,74,cs),
(663,1094,l),
(1169,1094,l),
(1169,74,ls),
(1169,26,o),
(1195,0,o),
(1243,0,cs),
(1496,0,ls),
(1545,0,o),
(1571,26,o),
(1571,74,cs),
(1571,1094,l),
(1682,1094,ls),
(1723,1094,o),
(1749,1120,o),
(1749,1161,cs),
(1749,1362,ls),
(1749,1403,o),
(1723,1429,o),
(1682,1429,cs),
(149,1429,ls),
(108,1429,o),
(82,1403,o),
(82,1362,cs),
(82,1161,ls),
(82,1120,o),
(108,1094,o),
(149,1094,cs),
(261,1094,l),
(261,74,ls),
(261,26,o),
(287,0,o),
(335,0,cs)
);
}
);
width = 1831;
}
);
unicode = 928;
},
{
glyphname = Sigma;
kernLeft = H;
kernRight = Z;
lastChange = "2025-03-03 01:54:37 +0000";
layers = (
{
layerId = m01;
shapes = (
{
closed = 1;
nodes = (
(1736,0,ls),
(1777,0,o),
(1803,23,o),
(1803,64,cs),
(1803,80,ls),
(1803,121,o),
(1777,144,o),
(1736,144,cs),
(411,144,l),
(1180,651,ls),
(1222,678,o),
(1222,730,o),
(1180,757,cs),
(411,1264,l),
(1736,1264,ls),
(1777,1264,o),
(1803,1287,o),
(1803,1328,cs),
(1803,1344,ls),
(1803,1385,o),
(1777,1408,o),
(1736,1408,cs),
(203,1408,ls),
(162,1408,o),
(136,1382,o),
(136,1341,cs),
(136,1312,ls),
(136,1281,o),
(145,1247,o),
(176,1227,cs),
(969,704,l),
(176,181,ls),
(145,161,o),
(136,127,o),
(136,96,cs),
(136,67,ls),
(136,26,o),
(162,0,o),
(203,0,cs)
);
}
);
width = 1887;
},
{
layerId = m002;
shapes = (
{
closed = 1;
nodes = (
(1734,0,ls),
(1775,0,o),
(1801,26,o),
(1801,67,cs),
(1801,268,ls),
(1801,309,o),
(1775,335,o),
(1734,335,cs),
(782,335,l),
(1272,662,ls),
(1315,690,o),
(1315,739,o),
(1272,768,cs),
(782,1094,l),
(1734,1094,ls),
(1775,1094,o),
(1801,1120,o),
(1801,1161,cs),
(1801,1362,ls),
(1801,1403,o),
(1775,1429,o),
(1734,1429,cs),
(201,1429,ls),
(160,1429,o),
(134,1403,o),
(134,1362,cs),
(134,1142,ls),
(134,1111,o),
(141,1078,o),
(174,1057,cs),
(688,715,l),
(174,372,ls),
(141,351,o),
(134,318,o),
(134,288,cs),
(134,67,ls),
(134,26,o),
(160,0,o),
(201,0,cs)
);
}
);
width = 1883;
}
);
unicode = 931;
},
{
glyphname = Psi;
kernLeft = V;
kernRight = V;
lastChange = "2025-03-03 03:40:13 +0000";
layers = (
{
layerId = m01;
shapes = (
{
closed = 1;
nodes = (
(1701,1408,ls),
(1653,1408,o),
(1628,1382,o),
(1628,1334,cs),
(1628,965,ls),
(1628,721,o),
(1497,640,o),
(1105,640,cs),
(823,640,ls),
(431,640,o),
(300,721,o),
(300,965,cs),
(300,1334,ls),
(300,1382,o),
(275,1408,o),
(227,1408,cs),
(197,1408,ls),
(149,1408,o),
(124,1382,o),
(124,1334,cs),
(124,960,ls),
(124,637,o),
(331,496,o),
(804,496,cs),
(1124,496,ls),
(1597,496,o),
(1804,637,o),
(1804,960,cs),
(1804,1334,ls),
(1804,1382,o),
(1779,1408,o),
(1731,1408,cs)
);
},
{
alignment = -1;
pos = (756,0);
ref = "_stem-v-caps-CH";
}
);
width = 1928;
},
{
layerId = m002;
shapes = (
{
closed = 1;
nodes = (
(1463,1429,ls),
(1414,1429,o),
(1388,1403,o),
(1388,1355,cs),
(1388,965,ls),
(1388,797,o),
(1265,743,o),
(1090,743,cs),
(823,743,ls),
(648,743,o),
(525,797,o),
(525,965,cs),
(525,1355,ls),
(525,1403,o),
(499,1429,o),
(450,1429,cs),
(197,1429,ls),
(149,1429,o),
(123,1403,o),
(123,1355,cs),
(123,858,ls),
(123,491,o),
(469,374,o),
(804,374,cs),
(1109,374,ls),
(1444,374,o),
(1790,491,o),
(1790,858,cs),
(1790,1355,ls),
(1790,1403,o),
(1764,1429,o),
(1716,1429,cs)
);
},
{
alignment = -1;
pos = (636,0);
ref = "_stem-v-caps-CH";
}
);
width = 1913;
}
);
unicode = 936;
},
{
glyphname = Omega;
kernLeft = O;
kernRight = O;
lastChange = "2025-03-03 03:24:06 +0000";
layers = (
{
anchors = (
{
name = bottom;
pos = (960,0);
},
{
name = topleft;
pos = (19,1429);
}
);
layerId = m01;
shapes = (
{
closed = 1;
nodes = (
(722,0,ls),
(770,0,o),
(796,26,o),
(796,74,cs),
(796,402,ls),
(796,449,o),
(770,476,o),
(719,477,cs),
(373,485,o),
(258,570,o),
(258,816,cs),
(258,852,ls),
(258,1184,o),
(400,1294,o),
(827,1294,cs),
(1093,1294,ls),
(1521,1294,o),
(1663,1184,o),
(1663,852,cs),
(1663,816,ls),
(1663,570,o),
(1548,485,o),
(1201,477,cs),
(1151,476,o),
(1124,449,o),
(1124,402,cs),
(1124,74,ls),
(1124,26,o),
(1150,0,o),
(1198,0,cs),
(1742,0,ls),
(1783,0,o),
(1809,23,o),
(1809,64,cs),
(1809,80,ls),
(1809,121,o),
(1784,144,o),
(1742,144,cs),
(1300,144,l),
(1300,317,l),
(1675,345,o),
(1839,495,o),
(1839,811,cs),
(1839,856,ls),
(1839,1261,o),
(1618,1438,o),
(1113,1438,cs),
(808,1438,ls),
(303,1438,o),
(82,1261,o),
(82,856,cs),
(82,811,ls),
(82,494,o),
(246,344,o),
(621,317,c),
(621,144,l),
(179,144,ls),
(138,144,o),
(112,121,o),
(112,80,cs),
(112,64,ls),
(112,23,o),
(138,0,o),
(179,0,cs)
);
}
);
width = 1921;
},
{
anchors = (
{
name = bottom;
pos = (960,0);
},
{
name = topleft;
pos = (19,1429);
}
);
layerId = m002;
shapes = (
{
closed = 1;
nodes = (
(752,0,ls),
(800,0,o),
(826,26,o),
(826,74,cs),
(826,469,ls),
(826,516,o),
(798,539,o),
(749,544,cs),
(688,552,o),
(484,617,o),
(484,816,cs),
(484,852,ls),
(484,1051,o),
(607,1124,o),
(827,1124,cs),
(1093,1124,ls),
(1314,1124,o),
(1437,1051,o),
(1437,852,cs),
(1437,816,ls),
(1437,617,o),
(1233,552,o),
(1171,544,cs),
(1122,539,o),
(1094,516,o),
(1094,469,cs),
(1094,74,ls),
(1094,26,o),
(1120,0,o),
(1169,0,cs),
(1734,0,ls),
(1783,0,o),
(1809,26,o),
(1809,74,cs),
(1809,261,ls),
(1809,309,o),
(1783,335,o),
(1734,335,cs),
(1455,335,l),
(1455,336,l),
(1681,390,o),
(1839,493,o),
(1839,830,cs),
(1839,875,ls),
(1839,1342,o),
(1604,1459,o),
(1113,1459,cs),
(808,1459,ls),
(316,1459,o),
(82,1342,o),
(82,875,cs),
(82,830,ls),
(82,493,o),
(239,390,o),
(465,336,c),
(465,337,l),
(186,335,ls),
(138,335,o),
(112,309,o),
(112,261,cs),
(112,74,ls),
(112,26,o),
(138,0,o),
(186,0,cs)
);
}
);
width = 1921;
}
);
unicode = 937;
},
{
glyphname = pi;
kernLeft = a;
kernRight = a;
lastChange = "2025-03-02 15:42:17 +0000";
layers = (
{
layerId = m01;
shapes = (
{
closed = 1;
nodes = (
(324,0,ls),
(372,0,o),
(398,26,o),
(398,74,cs),
(398,938,l),
(1135,938,l),
(1135,74,ls),
(1135,26,o),
(1161,0,o),
(1210,0,cs),
(1225,0,ls),
(1273,0,o),
(1299,26,o),
(1299,74,cs),
(1299,938,l),
(1396,938,ls),
(1432,938,o),
(1452,957,o),
(1452,994,cs),
(1452,1016,ls),
(1452,1052,o),
(1432,1072,o),
(1396,1072,cs),
(138,1072,ls),
(101,1072,o),
(82,1052,o),
(82,1016,cs),
(82,994,ls),
(82,957,o),
(101,938,o),
(138,938,cs),
(234,938,l),
(234,74,ls),
(234,26,o),
(261,0,o),
(309,0,cs)
);
}
);
width = 1533;
},
{
layerId = m002;
shapes = (
{
closed = 1;
nodes = (
(529,0,ls),
(577,0,o),
(603,26,o),
(603,74,cs),
(603,770,l),
(930,770,l),
(930,74,ls),
(930,26,o),
(957,0,o),
(1005,0,cs),
(1225,0,ls),
(1273,0,o),
(1299,26,o),
(1299,74,cs),
(1299,770,l),
(1396,770,ls),
(1432,770,o),
(1452,790,o),
(1452,826,cs),
(1452,1016,ls),
(1452,1052,o),
(1432,1072,o),
(1396,1072,cs),
(138,1072,ls),
(101,1072,o),
(82,1052,o),
(82,1016,cs),
(82,826,ls),
(82,790,o),
(101,770,o),
(138,770,cs),
(234,770,l),
(234,74,ls),
(234,26,o),
(261,0,o),
(309,0,cs)
);
}
);
width = 1533;
}
);
unicode = 960;
},
{
glyphname = zero;
kernLeft = O;
kernRight = O;
lastChange = "2025-03-02 15:42:17 +0000";
layers = (
{
layerId = m01;
shapes = (
{
closed = 1;
nodes = (
(119,692,ls),
(119,177,o),
(435,-30,o),
(845,-30,cs),
(1061,-30,ls),
(1470,-30,o),
(1787,177,o),
(1787,692,cs),
(1787,737,ls),
(1787,1252,o),
(1470,1459,o),
(1061,1459,cs),
(845,1459,ls),
(435,1459,o),
(119,1252,o),
(119,737,cs)
);
},
{
closed = 1;
nodes = (
(298,1152,o),
(502,1310,o),
(864,1310,cs),
(1041,1310,ls),
(1403,1310,o),
(1608,1152,o),
(1608,733,cs),
(1608,697,ls),
(1608,278,o),
(1403,119,o),
(1041,119,cs),
(864,119,ls),
(502,119,o),
(298,278,o),
(298,697,cs),
(298,733,ls)
);
}
);
width = 1906;
},
{
layerId = m002;
shapes = (
{
closed = 1;
nodes = (
(119,692,ls),
(119,177,o),
(435,-30,o),
(845,-30,cs),
(1061,-30,ls),
(1470,-30,o),
(1787,177,o),
(1787,692,cs),
(1787,737,ls),
(1787,1252,o),
(1470,1459,o),
(1061,1459,cs),
(845,1459,ls),
(435,1459,o),
(119,1252,o),
(119,737,cs)
);
},
{
closed = 1;
nodes = (
(521,1011,o),
(685,1124,o),
(897,1124,cs),
(1009,1124,ls),
(1221,1124,o),
(1385,1011,o),
(1385,727,cs),
(1385,703,ls),
(1385,419,o),
(1221,305,o),
(1009,305,cs),
(897,305,ls),
(685,305,o),
(521,419,o),
(521,703,cs),
(521,727,ls)
);
}
);
width = 1906;
}
);
unicode = 48;
},
{
glyphname = one;
kernRight = O;
lastChange = "2025-03-02 15:42:17 +0000";
layers = (
{
layerId = m01;
shapes = (
{
closed = 1;
nodes = (
(1720,-2,ls),
(1760,-2,o),
(1787,24,o),
(1787,65,cs),
(1787,80,ls),
(1787,121,o),
(1760,147,o),
(1720,147,cs),
(1161,147,l),
(1161,1373,ls),
(1161,1410,o),
(1142,1429,o),
(1105,1429,cs),
(883,1429,ls),
(855,1429,o),
(835,1421,o),
(814,1400,cs),
(377,963,ls),
(352,938,o),
(352,910,o),
(377,885,cs),
(415,847,ls),
(440,822,o),
(468,822,o),
(493,847,cs),
(923,1280,l),
(983,1280,l),
(983,147,l),
(365,147,ls),
(324,147,o),
(298,121,o),
(298,80,cs),
(298,65,ls),
(298,24,o),
(324,-2,o),
(365,-2,cs)
);
}
);
width = 1906;
},
{
layerId = m002;
shapes = (
{
closed = 1;
nodes = (
(1720,-2,ls),
(1760,-2,o),
(1787,24,o),
(1787,65,cs),
(1787,266,ls),
(1787,307,o),
(1760,333,o),
(1720,333,cs),
(1273,333,l),
(1273,1373,ls),
(1273,1410,o),
(1253,1429,o),
(1217,1429,cs),
(883,1429,ls),
(855,1429,o),
(835,1421,o),
(814,1400,cs),
(332,918,ls),
(307,893,o),
(307,865,o),
(332,840,cs),
(515,657,ls),
(541,632,o),
(570,634,o),
(594,657,cs),
(871,934,l),
(871,934,l),
(871,333,l),
(365,333,ls),
(324,333,o),
(298,307,o),
(298,266,cs),
(298,65,ls),
(298,24,o),
(324,-2,o),
(365,-2,cs)
);
}
);
width = 1906;
}
);
unicode = 49;
},
{
glyphname = two;
kernLeft = O;
kernRight = O;
lastChange = "2025-03-02 15:42:17 +0000";
layers = (
{
layerId = m01;
shapes = (
{
closed = 1;
nodes = (
(1720,0,ls),
(1760,0,o),
(1787,26,o),
(1787,67,cs),
(1787,82,ls),
(1787,123,o),
(1760,149,o),
(1720,149,cs),
(299,149,l),
(299,361,ls),
(299,522,o),
(416,584,o),
(860,591,cs),
(1061,594,ls),
(1300,597,o),
(1482,609,o),
(1601,664,cs),
(1732,721,o),
(1787,809,o),
(1787,988,cs),
(1787,1048,ls),
(1787,1267,o),
(1636,1459,o),
(1061,1459,cs),
(846,1459,ls),
(385,1459,o),
(150,1358,o),
(120,1037,cs),
(115,986,o),
(144,960,o),
(193,960,cs),
(222,960,ls),
(270,960,o),
(295,991,o),
(299,1033,cs),
(320,1270,o),
(459,1310,o),
(865,1310,cs),
(1047,1310,ls),
(1491,1310,o),
(1608,1227,o),
(1608,1052,cs),
(1608,1001,ls),
(1608,810,o),
(1491,748,o),
(1047,742,cs),
(846,739,ls),
(607,735,o),
(424,724,o),
(305,668,cs),
(175,611,o),
(120,538,o),
(120,388,cs),
(120,74,ls),
(120,26,o),
(146,0,o),
(194,0,cs)
);
}
);
width = 1906;
},
{
layerId = m002;
shapes = (
{
closed = 1;
nodes = (
(1720,0,ls),
(1760,0,o),
(1787,26,o),
(1787,67,cs),
(1787,268,ls),
(1787,309,o),
(1760,335,o),
(1720,335,cs),
(521,335,l),
(521,395,ls),
(521,459,o),
(644,494,o),
(864,499,cs),
(1052,502,ls),
(1273,507,o),
(1469,542,o),
(1589,596,cs),
(1720,655,o),
(1784,795,o),
(1784,956,cs),
(1784,1015,ls),
(1784,1323,o),
(1532,1459,o),
(1055,1459,cs),
(848,1459,ls),
(390,1459,o),
(155,1358,o),
(125,1037,cs),
(120,986,o),
(149,960,o),
(197,960,cs),
(450,960,ls),
(498,960,o),
(510,994,o),
(527,1033,cs),
(549,1084,o),
(687,1124,o),
(870,1124,cs),
(1038,1124,ls),
(1259,1124,o),
(1382,1084,o),
(1382,1020,cs),
(1382,969,ls),
(1382,874,o),
(1259,838,o),
(1038,834,cs),
(850,830,ls),
(630,825,o),
(434,790,o),
(314,736,cs),
(183,677,o),
(119,538,o),
(119,388,cs),
(119,74,ls),
(119,26,o),
(145,0,o),
(194,0,cs)
);
}
);
width = 1906;
}
);
unicode = 50;
},
{
glyphname = three;
kernLeft = O;
kernRight = O;
lastChange = "2025-03-02 15:42:17 +0000";
layers = (
{
anchors = (
{
name = bottom;
pos = (-218,0);
},
{
name = top;
pos = (-218,1429);
}
);
layerId = m01;
shapes = (
{
closed = 1;
nodes = (
(1061,-30,ls),
(1552,-30,o),
(1787,87,o),
(1787,361,cs),
(1787,406,ls),
(1787,532,o),
(1710,647,o),
(1568,715,c),
(1680,783,o),
(1757,897,o),
(1757,1024,cs),
(1757,1068,ls),
(1757,1342,o),
(1522,1459,o),
(1061,1459,cs),
(842,1459,ls),
(385,1459,o),
(151,1358,o),
(120,1037,cs),
(115,987,o),
(144,960,o),
(193,960,cs),
(222,960,ls),
(270,960,o),
(294,985,o),
(299,1033,cs),
(321,1265,o),
(459,1310,o),
(862,1310,cs),
(1041,1310,ls),
(1455,1310,o),
(1578,1256,o),
(1578,1064,cs),
(1578,1028,ls),
(1578,851,o),
(1455,789,o),
(1041,789,cs),
(883,789,ls),
(842,789,o),
(816,763,o),
(816,722,cs),
(816,707,ls),
(816,666,o),
(842,640,o),
(883,640,cs),
(1041,640,ls),
(1485,640,o),
(1608,579,o),
(1608,402,cs),
(1608,366,ls),
(1608,174,o),
(1485,119,o),
(1041,119,cs),
(862,119,ls),
(459,119,o),
(321,165,o),
(299,396,cs),
(294,444,o),
(270,469,o),
(222,469,cs),
(193,469,ls),
(144,469,o),
(115,442,o),
(120,393,cs),
(151,72,o),
(385,-30,o),
(842,-30,cs)
);
}
);
width = 1906;
},
{
anchors = (
{
name = bottom;
pos = (-218,0);
},
{
name = top;
pos = (-218,1429);
}
);
layerId = m002;
shapes = (
{
closed = 1;
nodes = (
(1061,-30,ls),
(1552,-30,o),
(1787,87,o),
(1787,361,cs),
(1787,406,ls),
(1787,532,o),
(1710,647,o),
(1568,715,c),
(1680,783,o),
(1757,897,o),
(1757,1024,cs),
(1757,1068,ls),
(1757,1342,o),
(1522,1459,o),
(1061,1459,cs),
(842,1459,ls),
(385,1459,o),
(151,1358,o),
(120,1037,cs),
(115,987,o),
(144,960,o),
(193,960,cs),
(446,960,ls),
(493,960,o),
(513,990,o),
(522,1033,cs),
(532,1081,o),
(641,1124,o),
(862,1124,cs),
(1041,1124,ls),
(1232,1124,o),
(1355,1064,o),
(1355,1021,cs),
(1355,985,ls),
(1355,939,o),
(1232,882,o),
(1041,882,cs),
(771,882,ls),
(730,882,o),
(704,856,o),
(704,815,cs),
(704,614,ls),
(704,573,o),
(730,547,o),
(771,547,cs),
(1041,547,ls),
(1262,547,o),
(1385,490,o),
(1385,444,cs),
(1385,408,ls),
(1385,366,o),
(1262,305,o),
(1041,305,cs),
(862,305,ls),
(641,305,o),
(528,347,o),
(522,396,cs),
(517,439,o),
(493,469,o),
(446,469,cs),
(193,469,ls),
(144,469,o),
(115,442,o),
(120,393,cs),
(151,72,o),
(385,-30,o),
(842,-30,cs)
);
}
);
width = 1906;
}
);
unicode = 51;
},
{
glyphname = four;
kernLeft = A;
kernRight = f;
lastChange = "2025-03-02 15:42:17 +0000";
layers = (
{
layerId = m01;
shapes = (
{
closed = 1;
nodes = (
(1433,0,ls),
(1481,0,o),
(1507,26,o),
(1507,74,cs),
(1507,387,l),
(1720,387,ls),
(1760,387,o),
(1787,413,o),
(1787,454,cs),
(1787,469,ls),
(1787,510,o),
(1760,536,o),
(1720,536,cs),
(1507,536,l),
(1507,1355,ls),
(1507,1403,o),
(1481,1429,o),
(1433,1429,cs),
(1379,1429,ls),
(1343,1429,o),
(1316,1422,o),
(1287,1400,cs),
(167,569,ls),
(134,544,o),
(119,517,o),
(119,469,cs),
(119,454,ls),
(119,413,o),
(145,387,o),
(186,387,cs),
(1329,387,l),
(1329,74,ls),
(1329,26,o),
(1355,0,o),
(1403,0,cs)
);
},
{
closed = 1;
nodes = (
(1329,1227,l),
(1329,536,l),
(397,536,l)
);
}
);
width = 1906;
},
{
layerId = m002;
shapes = (
{
closed = 1;
nodes = (
(1545,0,ls),
(1593,0,o),
(1619,26,o),
(1619,74,cs),
(1619,294,l),
(1720,294,ls),
(1760,294,o),
(1787,320,o),
(1787,361,cs),
(1787,562,ls),
(1787,603,o),
(1760,629,o),
(1720,629,cs),
(1619,629,l),
(1619,1355,ls),
(1619,1403,o),
(1593,1429,o),
(1545,1429,cs),
(1267,1429,ls),
(1231,1429,o),
(1204,1421,o),
(1175,1400,cs),
(167,662,ls),
(134,638,o),
(119,610,o),
(119,562,cs),
(119,361,ls),
(119,320,o),
(145,294,o),
(186,294,cs),
(1217,294,l),
(1217,74,ls),
(1217,26,o),
(1243,0,o),
(1292,0,cs)
);
},
{
closed = 1;
nodes = (
(1217,974,l),
(1217,629,l),
(746,629,l)
);
}
);
width = 1906;
}
);
unicode = 52;
},
{
glyphname = five;
kernRight = O;
lastChange = "2025-03-02 15:42:17 +0000";
layers = (
{
layerId = m01;
shapes = (
{
closed = 1;
nodes = (
(1072,-30,ls),
(1563,-30,o),
(1798,87,o),
(1798,417,cs),
(1798,462,ls),
(1798,791,o),
(1563,901,o),
(1072,901,cs),
(827,901,ls),
(611,901,o),
(441,874,o),
(331,779,c),
(331,1280,l),
(1701,1280,ls),
(1742,1280,o),
(1768,1306,o),
(1768,1347,cs),
(1768,1362,ls),
(1768,1403,o),
(1742,1429,o),
(1701,1429,cs),
(227,1429,ls),
(179,1429,o),
(153,1403,o),
(153,1355,cs),
(153,700,ls),
(153,651,o),
(179,625,o),
(227,625,cs),
(289,625,ls),
(318,625,o),
(337,636,o),
(358,655,cs),
(438,726,o),
(588,752,o),
(847,752,cs),
(1052,752,ls),
(1496,752,o),
(1619,698,o),
(1619,458,cs),
(1619,422,ls),
(1619,174,o),
(1496,119,o),
(1052,119,cs),
(877,119,ls),
(474,119,o),
(336,165,o),
(314,396,cs),
(309,444,o),
(285,469,o),
(237,469,cs),
(207,469,ls),
(159,469,o),
(130,442,o),
(135,393,cs),
(166,72,o),
(400,-30,o),
(857,-30,cs)
);
}
);
width = 1906;
},
{
layerId = m002;
shapes = (
{
closed = 1;
nodes = (
(1072,-30,ls),
(1563,-30,o),
(1798,87,o),
(1798,417,cs),
(1798,462,ls),
(1798,791,o),
(1563,901,o),
(1072,901,cs),
(827,901,ls),
(756,901,o),
(663,900,o),
(555,878,c),
(555,1094,l),
(1701,1094,ls),
(1742,1094,o),
(1768,1120,o),
(1768,1161,cs),
(1768,1362,ls),
(1768,1403,o),
(1742,1429,o),
(1701,1429,cs),
(227,1429,ls),
(179,1429,o),
(153,1403,o),
(153,1355,cs),
(153,610,ls),
(153,562,o),
(179,536,o),
(227,536,cs),
(480,536,ls),
(493,536,o),
(530,543,o),
(549,547,cs),
(605,558,o),
(693,566,o),
(847,566,cs),
(1052,566,ls),
(1273,566,o),
(1396,517,o),
(1396,453,cs),
(1396,418,ls),
(1396,354,o),
(1273,305,o),
(1052,305,cs),
(877,305,ls),
(697,305,o),
(548,347,o),
(537,396,cs),
(528,439,o),
(508,469,o),
(461,469,cs),
(207,469,ls),
(159,469,o),
(130,442,o),
(135,393,cs),
(166,72,o),
(400,-30,o),
(857,-30,cs)
);
}
);
width = 1906;
}
);
unicode = 53;
},
{
glyphname = six;
lastChange = "2025-03-02 15:42:17 +0000";
layers = (
{
layerId = m01;
shapes = (
{
closed = 1;
nodes = (
(1571,-30,o),
(1805,99,o),
(1805,424,cs),
(1805,454,ls),
(1805,780,o),
(1556,901,o),
(1213,901,cs),
(739,901,ls),
(623,901,o),
(400,845,o),
(313,730,c),
(313,900,ls),
(313,1256,o),
(435,1310,o),
(879,1310,cs),
(1067,1310,ls),
(1463,1310,o),
(1600,1265,o),
(1625,1050,cs),
(1630,1003,o),
(1655,980,o),
(1702,980,cs),
(1733,980,ls),
(1782,980,o),
(1809,1008,o),
(1804,1057,cs),
(1774,1358,o),
(1540,1459,o),
(1087,1459,cs),
(860,1459,ls),
(368,1459,o),
(134,1342,o),
(134,906,cs),
(134,387,ls),
(134,99,o),
(368,-30,o),
(856,-30,cs),
(1083,-30,ls)
);
},
{
closed = 1;
nodes = (
(739,120,ls),
(488,120,o),
(313,243,o),
(313,427,cs),
(313,451,ls),
(313,637,o),
(514,752,o),
(739,752,cs),
(1200,752,ls),
(1452,752,o),
(1626,665,o),
(1626,451,cs),
(1626,427,ls),
(1626,206,o),
(1452,120,o),
(1200,120,cs)
);
}
);
width = 1906;
},
{
layerId = m002;
shapes = (
{
closed = 1;
nodes = (
(1571,-30,o),
(1805,87,o),
(1805,421,cs),
(1805,450,ls),
(1805,772,o),
(1650,901,o),
(1081,901,cs),
(875,901,ls),
(677,901,o),
(648,900,o),
(540,863,c),
(540,900,ls),
(540,1070,o),
(663,1124,o),
(885,1124,cs),
(1061,1124,ls),
(1242,1124,o),
(1391,1082,o),
(1402,1033,cs),
(1412,990,o),
(1432,960,o),
(1479,960,cs),
(1733,960,ls),
(1782,960,o),
(1809,988,o),
(1804,1037,cs),
(1774,1359,o),
(1540,1459,o),
(1085,1459,cs),
(865,1459,ls),
(372,1459,o),
(138,1342,o),
(138,906,cs),
(138,387,ls),
(138,87,o),
(372,-30,o),
(862,-30,cs),
(1081,-30,ls)
);
},
{
closed = 1;
nodes = (
(875,305,ls),
(622,305,o),
(540,359,o),
(540,423,cs),
(540,448,ls),
(540,512,o),
(648,566,o),
(875,566,cs),
(1068,566,ls),
(1321,566,o),
(1403,513,o),
(1403,448,cs),
(1403,424,ls),
(1403,360,o),
(1321,305,o),
(1068,305,cs)
);
}
);
width = 1906;
}
);
unicode = 54;
},
{
glyphname = seven;
kernLeft = Z;
kernRight = V;
lastChange = "2025-03-02 15:42:17 +0000";
layers = (
{
layerId = m01;
shapes = (
{
closed = 1;
nodes = (
(645,0,ls),
(673,0,o),
(693,8,o),
(714,29,cs),
(1758,1073,ls),
(1778,1093,o),
(1787,1114,o),
(1787,1142,cs),
(1787,1373,ls),
(1787,1410,o),
(1767,1429,o),
(1731,1429,cs),
(175,1429,ls),
(139,1429,o),
(119,1410,o),
(119,1373,cs),
(119,1336,ls),
(119,1300,o),
(139,1280,o),
(175,1280,cs),
(1608,1280,l),
(1608,1155,l),
(522,69,ls),
(487,33,o),
(501,0,o),
(550,0,cs)
);
}
);
width = 1906;
},
{
layerId = m002;
shapes = (
{
closed = 1;
nodes = (
(645,0,ls),
(673,0,o),
(693,8,o),
(714,29,cs),
(1758,1073,ls),
(1778,1093,o),
(1787,1114,o),
(1787,1142,cs),
(1787,1373,ls),
(1787,1410,o),
(1767,1429,o),
(1731,1429,cs),
(175,1429,ls),
(139,1429,o),
(119,1410,o),
(119,1373,cs),
(119,1150,ls),
(119,1114,o),
(139,1094,o),
(175,1094,cs),
(1258,1094,l),
(1258,1094,l),
(233,69,ls),
(197,33,o),
(211,0,o),
(261,0,cs)
);
}
);
width = 1906;
}
);
unicode = 55;
},
{
glyphname = eight;
kernLeft = O;
kernRight = O;
lastChange = "2025-03-02 15:42:17 +0000";
layers = (
{
anchors = (
{
name = bottom;
pos = (-244,0);
},
{
name = top;
pos = (-244,1429);
}
);
layerId = m01;
shapes = (
{
closed = 1;
nodes = (
(845,1459,ls),
(383,1459,o),
(149,1342,o),
(149,1068,cs),
(149,1024,ls),
(149,897,o),
(199,783,o),
(323,715,c),
(181,647,o),
(119,532,o),
(119,406,cs),
(119,361,ls),
(119,87,o),
(354,-30,o),
(845,-30,cs),
(1061,-30,ls),
(1552,-30,o),
(1787,87,o),
(1787,361,cs),
(1787,406,ls),
(1787,532,o),
(1725,647,o),
(1583,715,c),
(1707,783,o),
(1757,897,o),
(1757,1024,cs),
(1757,1068,ls),
(1757,1342,o),
(1522,1459,o),
(1061,1459,cs)
);
},
{
closed = 1;
nodes = (
(298,402,ls),
(298,586,o),
(421,640,o),
(864,640,cs),
(1041,640,ls),
(1485,640,o),
(1608,586,o),
(1608,402,cs),
(1608,366,ls),
(1608,174,o),
(1485,119,o),
(1041,119,cs),
(864,119,ls),
(421,119,o),
(298,174,o),
(298,366,cs)
);
},
{
closed = 1;
nodes = (
(328,1064,ls),
(328,1256,o),
(450,1310,o),
(864,1310,cs),
(1041,1310,ls),
(1455,1310,o),
(1578,1256,o),
(1578,1064,cs),
(1578,1028,ls),
(1578,844,o),
(1455,789,o),
(1041,789,cs),
(864,789,ls),
(450,789,o),
(328,844,o),
(328,1028,cs)
);
}
);
width = 1906;
},
{
anchors = (
{
name = bottom;
pos = (-244,0);
},
{
name = top;
pos = (-244,1429);
}
);
layerId = m002;
shapes = (
{
closed = 1;
nodes = (
(845,1459,ls),
(383,1459,o),
(149,1342,o),
(149,1068,cs),
(149,1024,ls),
(149,897,o),
(199,783,o),
(323,715,c),
(181,647,o),
(119,532,o),
(119,406,cs),
(119,361,ls),
(119,87,o),
(354,-30,o),
(845,-30,cs),
(1061,-30,ls),
(1552,-30,o),
(1787,87,o),
(1787,361,cs),
(1787,406,ls),
(1787,532,o),
(1725,647,o),
(1583,715,c),
(1707,783,o),
(1757,897,o),
(1757,1024,cs),
(1757,1068,ls),
(1757,1342,o),
(1522,1459,o),
(1061,1459,cs)
);
},
{
closed = 1;
nodes = (
(521,440,ls),
(521,479,o),
(614,547,o),
(864,547,cs),
(1041,547,ls),
(1292,547,o),
(1385,479,o),
(1385,440,cs),
(1385,412,ls),
(1385,351,o),
(1292,305,o),
(1041,305,cs),
(864,305,ls),
(614,305,o),
(521,351,o),
(521,412,cs)
);
},
{
closed = 1;
nodes = (
(551,1018,ls),
(551,1079,o),
(644,1124,o),
(864,1124,cs),
(1041,1124,ls),
(1262,1124,o),
(1355,1079,o),
(1355,1018,cs),
(1355,988,ls),
(1355,953,o),
(1262,882,o),
(1041,882,cs),
(864,882,ls),
(644,882,o),
(551,953,o),
(551,988,cs)
);
}
);
width = 1906;
}
);
unicode = 56;
},
{
glyphname = zerosuperior;
lastChange = "2025-03-02 15:42:17 +0000";
layers = (
{
layerId = m01;
shapes = (
{
closed = 1;
nodes = (
(61,969,ls),
(61,647,o),
(260,517,o),
(515,517,cs),
(650,517,ls),
(906,517,o),
(1104,647,o),
(1104,969,cs),
(1104,997,ls),
(1104,1318,o),
(906,1448,o),
(650,1448,cs),
(515,1448,ls),
(260,1448,o),
(61,1318,o),
(61,997,cs)
);
},
{
closed = 1;
nodes = (
(225,1225,o),
(353,1314,o),
(528,1314,cs),
(637,1314,ls),
(812,1314,o),
(940,1225,o),
(940,995,cs),
(940,971,ls),
(940,742,o),
(812,651,o),
(637,651,cs),
(528,651,ls),
(353,651,o),
(225,742,o),
(225,971,cs),
(225,995,ls)
);
}
);
width = 1165;
},
{
layerId = m002;
shapes = (
{
closed = 1;
nodes = (
(61,969,ls),
(61,647,o),
(260,517,o),
(515,517,cs),
(650,517,ls),
(906,517,o),
(1104,647,o),
(1104,969,cs),
(1104,997,ls),
(1104,1318,o),
(906,1448,o),
(650,1448,cs),
(515,1448,ls),
(260,1448,o),
(61,1318,o),
(61,997,cs)
);
},
{
closed = 1;
nodes = (
(350,1134,o),
(446,1200,o),
(550,1200,cs),
(615,1200,ls),
(719,1200,o),
(815,1134,o),
(815,990,cs),
(815,976,ls),
(815,830,o),
(719,765,o),
(615,765,cs),
(550,765,ls),
(446,765,o),
(350,830,o),
(350,976,cs),
(350,990,ls)
);
}
);
width = 1165;
}
);
unicode = 8304;
},
{
glyphname = onesuperior;
lastChange = "2025-03-02 15:42:17 +0000";
layers = (
{
layerId = m01;
shapes = (
{
closed = 1;
nodes = (
(457,1429,ls),
(408,1429,o),
(399,1426,o),
(365,1391,cs),
(143,1170,ls),
(117,1144,o),
(115,1123,o),
(143,1095,cs),
(175,1064,ls),
(201,1037,o),
(223,1037,o),
(249,1064,cs),
(482,1295,l),
(519,1295,l),
(519,610,ls),
(519,562,o),
(545,536,o),
(594,536,cs),
(609,536,ls),
(657,536,o),
(683,562,o),
(683,610,cs),
(683,1355,ls),
(683,1403,o),
(657,1429,o),
(609,1429,cs)
);
},
{
closed = 1;
nodes = (
(117,592,ls),
(117,556,o),
(137,536,o),
(173,536,cs),
(992,536,ls),
(1028,536,o),
(1048,556,o),
(1048,592,cs),
(1048,629,ls),
(1048,665,o),
(1028,685,o),
(992,685,cs),
(173,685,ls),
(137,685,o),
(117,665,o),
(117,629,cs)
);
}
);
width = 1165;
},
{
layerId = m002;
shapes = (
{
closed = 1;
nodes = (
(486,1429,ls),
(456,1429,o),
(444,1426,o),
(430,1417,cs),
(139,1223,ls),
(108,1202,o),
(100,1185,o),
(124,1150,cs),
(203,1032,ls),
(224,1000,o),
(246,997,o),
(276,1017,cs),
(474,1148,l),
(474,1148,l),
(474,610,ls),
(474,562,o),
(500,536,o),
(548,536,cs),
(667,536,ls),
(716,536,o),
(742,562,o),
(742,610,cs),
(742,1355,ls),
(742,1403,o),
(716,1429,o),
(667,1429,cs)
);
},
{
closed = 1;
nodes = (
(124,590,ls),
(124,554,o),
(143,534,o),
(180,534,cs),
(998,534,ls),
(1035,534,o),
(1054,554,o),
(1054,590,cs),
(1054,705,ls),
(1054,742,o),
(1035,761,o),
(998,761,cs),
(180,761,ls),
(143,761,o),
(124,742,o),
(124,705,cs)
);
}
);
width = 1165;
}
);
unicode = 185;
},
{
glyphname = twosuperior;
lastChange = "2025-03-02 15:42:17 +0000";
layers = (
{
anchors = (
{
name = bottom;
pos = (609,536);
},
{
name = top;
pos = (609,1429);
}
);
layerId = m01;
shapes = (
{
closed = 1;
nodes = (
(1057,536,ls),
(1088,536,o),
(1104,553,o),
(1104,582,cs),
(1104,623,ls),
(1104,654,o),
(1088,670,o),
(1057,670,cs),
(225,670,l),
(225,725,ls),
(225,816,o),
(302,826,o),
(528,848,cs),
(647,859,ls),
(796,873,o),
(907,874,o),
(982,909,cs),
(1064,944,o),
(1104,1003,o),
(1104,1131,cs),
(1104,1178,ls),
(1104,1374,o),
(957,1448,o),
(650,1448,cs),
(518,1448,ls),
(283,1448,o),
(84,1385,o),
(65,1184,cs),
(62,1153,o),
(80,1136,o),
(111,1136,cs),
(181,1136,ls),
(210,1136,o),
(225,1156,o),
(229,1182,cs),
(243,1289,o),
(328,1314,o),
(530,1314,cs),
(637,1314,ls),
(863,1314,o),
(940,1279,o),
(940,1194,cs),
(940,1116,ls),
(940,1024,o),
(863,1013,o),
(637,992,cs),
(518,981,ls),
(369,967,o),
(258,966,o),
(183,931,cs),
(101,895,o),
(61,821,o),
(61,727,cs),
(61,582,ls),
(61,553,o),
(78,536,o),
(108,536,cs)
);
}
);
width = 1165;
},
{
anchors = (
{
name = bottom;
pos = (96,536);
},
{
name = top;
pos = (96,1429);
}
);
layerId = m002;
shapes = (
{
closed = 1;
nodes = (
(1062,536,ls),
(1088,536,o),
(1104,553,o),
(1104,578,cs),
(1104,721,ls),
(1104,747,o),
(1088,763,o),
(1062,763,cs),
(329,763,l),
(329,780,ls),
(329,830,o),
(407,852,o),
(528,855,cs),
(645,858,ls),
(783,862,o),
(905,882,o),
(981,917,cs),
(1080,962,o),
(1104,1020,o),
(1104,1131,cs),
(1104,1178,ls),
(1104,1374,o),
(957,1448,o),
(647,1448,cs),
(516,1448,ls),
(231,1448,o),
(84,1385,o),
(65,1184,cs),
(62,1153,o),
(80,1136,o),
(111,1136,cs),
(285,1136,ls),
(314,1136,o),
(330,1143,o),
(333,1163,cs),
(338,1195,o),
(409,1221,o),
(530,1221,cs),
(636,1221,ls),
(757,1221,o),
(834,1197,o),
(834,1158,cs),
(834,1144,ls),
(834,1106,o),
(757,1084,o),
(636,1082,cs),
(518,1080,ls),
(381,1077,o),
(258,1055,o),
(183,1021,cs),
(101,984,o),
(61,897,o),
(61,796,cs),
(61,582,ls),
(61,553,o),
(78,536,o),
(108,536,cs)
);
}
);
width = 1165;
}
);
unicode = 178;
},
{
glyphname = threesuperior;
lastChange = "2025-03-02 15:42:17 +0000";
layers = (
{
anchors = (
{
name = bottom;
pos = (-149,536);
},
{
name = top;
pos = (-149,1429);
}
);
layerId = m01;
shapes = (
{
closed = 1;
nodes = (
(650,517,ls),
(957,517,o),
(1104,591,o),
(1104,762,cs),
(1104,790,ls),
(1104,869,o),
(1061,940,o),
(972,983,c),
(1042,1025,o),
(1085,1097,o),
(1085,1176,cs),
(1085,1204,ls),
(1085,1374,o),
(939,1448,o),
(650,1448,cs),
(514,1448,ls),
(228,1448,o),
(81,1385,o),
(62,1184,cs),
(59,1153,o),
(77,1136,o),
(107,1136,cs),
(178,1136,ls),
(207,1136,o),
(222,1152,o),
(226,1182,cs),
(240,1286,o),
(326,1314,o),
(526,1314,cs),
(638,1314,ls),
(845,1314,o),
(921,1280,o),
(921,1201,cs),
(921,1179,ls),
(921,1084,o),
(845,1050,o),
(638,1050,cs),
(546,1050,ls),
(516,1050,o),
(500,1034,o),
(500,1003,cs),
(500,962,ls),
(500,932,o),
(516,916,o),
(546,916,cs),
(638,916,ls),
(863,916,o),
(940,882,o),
(940,787,cs),
(940,765,ls),
(940,686,o),
(863,651,o),
(638,651,cs),
(526,651,ls),
(326,651,o),
(240,680,o),
(226,783,cs),
(222,813,o),
(207,829,o),
(178,829,cs),
(107,829,ls),
(77,829,o),
(59,812,o),
(62,782,cs),
(81,581,o),
(228,517,o),
(514,517,cs)
);
}
);
width = 1165;
},
{
anchors = (
{
name = bottom;
pos = (-149,536);
},
{
name = top;
pos = (-149,1429);
}
);
layerId = m002;
shapes = (
{
closed = 1;
nodes = (
(650,517,ls),
(957,517,o),
(1104,591,o),
(1104,762,cs),
(1104,790,ls),
(1104,869,o),
(1089,940,o),
(1000,983,c),
(1070,1025,o),
(1085,1097,o),
(1085,1176,cs),
(1085,1204,ls),
(1085,1374,o),
(939,1448,o),
(650,1448,cs),
(514,1448,ls),
(228,1448,o),
(81,1385,o),
(62,1184,cs),
(59,1153,o),
(77,1136,o),
(107,1136,cs),
(282,1136,ls),
(312,1136,o),
(328,1143,o),
(330,1163,cs),
(335,1195,o),
(421,1221,o),
(526,1221,cs),
(638,1221,ls),
(741,1221,o),
(817,1209,o),
(817,1170,cs),
(817,1147,ls),
(817,1108,o),
(741,1096,o),
(638,1096,cs),
(546,1096,ls),
(516,1096,o),
(500,1080,o),
(500,1050,cs),
(500,916,ls),
(500,886,o),
(516,869,o),
(546,869,cs),
(638,869,ls),
(759,869,o),
(836,857,o),
(836,818,cs),
(836,796,ls),
(836,756,o),
(759,744,o),
(638,744,cs),
(526,744,ls),
(421,744,o),
(335,770,o),
(330,802,cs),
(328,823,o),
(312,829,o),
(282,829,cs),
(107,829,ls),
(77,829,o),
(59,812,o),
(62,782,cs),
(81,581,o),
(228,517,o),
(514,517,cs)
);
}
);
width = 1165;
}
);
unicode = 179;
},
{
glyphname = foursuperior;
lastChange = "2025-03-02 15:42:17 +0000";
layers = (
{
layerId = m01;
shapes = (
{
closed = 1;
nodes = (
(61,761,ls),
(61,731,o),
(78,715,o),
(108,715,cs),
(818,715,l),
(818,582,ls),
(818,553,o),
(834,536,o),
(864,536,cs),
(935,536,ls),
(965,536,o),
(982,553,o),
(982,582,cs),
(982,715,l),
(1057,715,ls),
(1088,715,o),
(1104,731,o),
(1104,761,cs),
(1104,802,ls),
(1104,833,o),
(1088,849,o),
(1057,849,cs),
(982,849,l),
(982,1383,ls),
(982,1413,o),
(965,1429,o),
(935,1429,cs),
(850,1429,ls),
(826,1429,o),
(810,1425,o),
(792,1412,cs),
(91,869,ls),
(71,853,o),
(61,837,o),
(61,812,cs)
);
},
{
closed = 1;
nodes = (
(818,1248,l),
(818,849,l),
(302,849,l)
);
}
);
width = 1165;
},
{
layerId = m002;
shapes = (
{
closed = 1;
nodes = (
(61,715,ls),
(61,685,o),
(78,668,o),
(108,668,cs),
(714,668,l),
(714,582,ls),
(714,553,o),
(730,536,o),
(760,536,cs),
(935,536,ls),
(965,536,o),
(982,553,o),
(982,582,cs),
(982,668,l),
(1057,668,ls),
(1088,668,o),
(1104,685,o),
(1104,715,cs),
(1104,849,ls),
(1104,879,o),
(1088,895,o),
(1057,895,cs),
(982,895,l),
(982,1383,ls),
(982,1413,o),
(965,1429,o),
(935,1429,cs),
(745,1429,ls),
(722,1429,o),
(704,1426,o),
(688,1412,cs),
(91,916,ls),
(72,900,o),
(61,884,o),
(61,859,cs)
);
},
{
closed = 1;
nodes = (
(714,1112,l),
(714,895,l),
(453,895,l)
);
}
);
width = 1165;
}
);
unicode = 8308;
},
{
glyphname = fivesuperior;
lastChange = "2025-03-02 15:42:17 +0000";
layers = (
{
layerId = m01;
shapes = (
{
closed = 1;
nodes = (
(649,517,ls),
(957,517,o),
(1104,591,o),
(1104,796,cs),
(1104,824,ls),
(1104,1046,o),
(957,1119,o),
(649,1119,cs),
(495,1119,ls),
(411,1119,o),
(304,1098,o),
(236,1038,c),
(236,1295,l),
(1038,1295,ls),
(1068,1295,o),
(1085,1312,o),
(1085,1342,cs),
(1085,1383,ls),
(1085,1413,o),
(1068,1429,o),
(1038,1429,cs),
(119,1429,ls),
(88,1429,o),
(73,1413,o),
(73,1383,cs),
(73,957,ls),
(73,928,o),
(88,911,o),
(119,911,cs),
(209,911,ls),
(228,911,o),
(239,917,o),
(253,930,cs),
(302,974,o),
(396,985,o),
(507,985,cs),
(636,985,ls),
(863,985,o),
(940,952,o),
(940,823,cs),
(940,799,ls),
(940,686,o),
(863,651,o),
(636,651,cs),
(526,651,ls),
(325,651,o),
(239,680,o),
(225,783,cs),
(221,813,o),
(207,829,o),
(177,829,cs),
(106,829,ls),
(76,829,o),
(59,812,o),
(61,782,cs),
(80,581,o),
(227,517,o),
(514,517,cs)
);
}
);
width = 1165;
},
{
layerId = m002;
shapes = (
{
closed = 1;
nodes = (
(612,517,ls),
(945,517,o),
(1104,597,o),
(1104,817,cs),
(1104,847,ls),
(1104,1064,o),
(945,1139,o),
(612,1139,cs),
(530,1139,ls),
(483,1139,o),
(419,1138,o),
(346,1124,c),
(346,1202,l),
(1038,1202,ls),
(1066,1202,o),
(1084,1220,o),
(1084,1248,cs),
(1084,1384,ls),
(1084,1412,o),
(1066,1429,o),
(1038,1429,cs),
(124,1429,ls),
(91,1429,o),
(74,1412,o),
(74,1379,cs),
(74,943,ls),
(74,909,o),
(91,891,o),
(124,891,cs),
(296,891,ls),
(304,891,o),
(329,897,o),
(342,900,cs),
(380,907,o),
(440,912,o),
(544,912,cs),
(598,912,ls),
(748,912,o),
(832,879,o),
(832,841,cs),
(832,817,ls),
(832,778,o),
(748,744,o),
(598,744,cs),
(564,744,ls),
(432,744,o),
(341,762,o),
(334,796,cs),
(328,824,o),
(315,845,o),
(282,845,cs),
(111,845,ls),
(78,845,o),
(59,826,o),
(61,793,cs),
(83,575,o),
(241,517,o),
(551,517,cs)
);
}
);
width = 1165;
}
);
unicode = 8309;
},
{
glyphname = sixsuperior;
lastChange = "2025-03-02 15:42:17 +0000";
layers = (
{
layerId = m01;
shapes = (
{
closed = 1;
nodes = (
(913,517,o),
(1104,629,o),
(1104,810,cs),
(1104,828,ls),
(1104,1024,o),
(944,1119,o),
(730,1119,cs),
(444,1119,ls),
(361,1119,o),
(271,1081,o),
(225,1024,c),
(225,1098,ls),
(225,1280,o),
(302,1314,o),
(529,1314,cs),
(641,1314,ls),
(837,1314,o),
(923,1285,o),
(938,1192,cs),
(943,1163,o),
(957,1148,o),
(986,1148,cs),
(1058,1148,ls),
(1089,1148,o),
(1105,1166,o),
(1103,1197,cs),
(1084,1385,o),
(937,1448,o),
(653,1448,cs),
(516,1448,ls),
(208,1448,o),
(61,1374,o),
(61,1103,cs),
(61,778,ls),
(61,597,o),
(252,517,o),
(467,517,cs),
(698,517,ls)
);
},
{
closed = 1;
nodes = (
(438,651,ls),
(332,651,o),
(225,737,o),
(225,811,cs),
(225,826,ls),
(225,913,o),
(349,985,o),
(438,985,cs),
(727,985,ls),
(833,985,o),
(940,917,o),
(940,826,cs),
(940,811,ls),
(940,737,o),
(833,651,o),
(727,651,cs)
);
}
);
width = 1165;
},
{
layerId = m002;
shapes = (
{
closed = 1;
nodes = (
(944,517,o),
(1104,596,o),
(1104,803,cs),
(1104,823,ls),
(1104,1022,o),
(997,1109,o),
(613,1109,cs),
(560,1109,ls),
(427,1109,o),
(407,1108,o),
(334,1083,c),
(334,1108,ls),
(334,1185,o),
(417,1221,o),
(568,1221,cs),
(599,1221,ls),
(722,1221,o),
(823,1202,o),
(830,1171,cs),
(837,1142,o),
(850,1131,o),
(882,1131,cs),
(1054,1131,ls),
(1088,1131,o),
(1106,1149,o),
(1103,1183,cs),
(1082,1380,o),
(923,1448,o),
(615,1448,cs),
(554,1448,ls),
(221,1448,o),
(61,1369,o),
(61,1113,cs),
(61,799,ls),
(61,596,o),
(221,517,o),
(552,517,cs),
(613,517,ls)
);
},
{
closed = 1;
nodes = (
(560,744,ls),
(389,744,o),
(334,781,o),
(334,805,cs),
(334,821,ls),
(334,845,o),
(407,882,o),
(560,882,cs),
(604,882,ls),
(775,882,o),
(831,846,o),
(831,822,cs),
(831,806,ls),
(831,782,o),
(775,744,o),
(604,744,cs)
);
}
);
width = 1165;
}
);
unicode = 8310;
},
{
glyphname = sevensuperior;
lastChange = "2025-03-02 15:42:17 +0000";
layers = (
{
layerId = m01;
shapes = (
{
closed = 1;
nodes = (
(373,536,ls),
(391,536,o),
(404,542,o),
(416,554,cs),
(1080,1224,ls),
(1092,1236,o),
(1104,1249,o),
(1104,1266,cs),
(1104,1395,ls),
(1104,1417,o),
(1091,1429,o),
(1069,1429,cs),
(97,1429,ls),
(74,1429,o),
(61,1417,o),
(61,1395,cs),
(61,1331,ls),
(61,1307,o),
(74,1295,o),
(97,1295,cs),
(940,1295,l),
(940,1289,l),
(231,579,ls),
(208,557,o),
(217,536,o),
(248,536,cs)
);
}
);
width = 1165;
},
{
layerId = m002;
shapes = (
{
closed = 1;
nodes = (
(492,536,ls),
(510,536,o),
(524,541,o),
(535,554,cs),
(1091,1202,ls),
(1102,1215,o),
(1104,1220,o),
(1104,1238,cs),
(1104,1395,ls),
(1104,1417,o),
(1091,1429,o),
(1069,1429,cs),
(97,1429,ls),
(74,1429,o),
(61,1417,o),
(61,1395,cs),
(61,1238,ls),
(61,1214,o),
(74,1202,o),
(97,1202,cs),
(765,1202,l),
(765,1202,l),
(231,579,ls),
(211,556,o),
(217,536,o),
(248,536,cs)
);
}
);
width = 1165;
}
);
unicode = 8311;
},
{
glyphname = eightsuperior;
lastChange = "2025-03-02 15:42:17 +0000";
layers = (
{
anchors = (
{
name = bottom;
pos = (-166,536);
},
{
name = top;
pos = (-166,1429);
}
);
layerId = m01;
shapes = (
{
closed = 1;
nodes = (
(515,1448,ls),
(227,1448,o),
(80,1374,o),
(80,1204,cs),
(80,1176,ls),
(80,1097,o),
(116,1025,o),
(194,983,c),
(104,940,o),
(61,869,o),
(61,790,cs),
(61,762,ls),
(61,591,o),
(208,517,o),
(515,517,cs),
(650,517,ls),
(957,517,o),
(1104,591,o),
(1104,762,cs),
(1104,790,ls),
(1104,869,o),
(1061,940,o),
(971,983,c),
(1049,1025,o),
(1085,1097,o),
(1085,1176,cs),
(1085,1204,ls),
(1085,1374,o),
(939,1448,o),
(650,1448,cs)
);
},
{
closed = 1;
nodes = (
(225,787,ls),
(225,873,o),
(302,916,o),
(528,916,cs),
(637,916,ls),
(863,916,o),
(940,873,o),
(940,787,cs),
(940,765,ls),
(940,676,o),
(863,651,o),
(637,651,cs),
(528,651,ls),
(302,651,o),
(225,676,o),
(225,765,cs)
);
},
{
closed = 1;
nodes = (
(244,1201,ls),
(244,1290,o),
(321,1314,o),
(528,1314,cs),
(637,1314,ls),
(845,1314,o),
(921,1290,o),
(921,1201,cs),
(921,1179,ls),
(921,1093,o),
(845,1050,o),
(637,1050,cs),
(528,1050,ls),
(321,1050,o),
(244,1093,o),
(244,1179,cs)
);
}
);
width = 1165;
},
{
anchors = (
{
name = bottom;
pos = (-524,536);
},
{
name = top;
pos = (-524,1429);
}
);
layerId = m002;
shapes = (
{
closed = 1;
nodes = (
(553,1448,ls),
(240,1448,o),
(81,1369,o),
(81,1184,cs),
(81,1172,ls),
(81,1106,o),
(115,1028,o),
(199,983,c),
(102,937,o),
(61,859,o),
(61,793,cs),
(61,782,ls),
(61,596,o),
(221,517,o),
(553,517,cs),
(612,517,ls),
(944,517,o),
(1104,596,o),
(1104,782,cs),
(1104,793,ls),
(1104,859,o),
(1063,937,o),
(966,983,c),
(1050,1028,o),
(1084,1106,o),
(1084,1172,cs),
(1084,1184,ls),
(1084,1369,o),
(925,1448,o),
(612,1448,cs)
);
},
{
closed = 1;
nodes = (
(334,816,ls),
(334,838,o),
(396,869,o),
(567,869,cs),
(598,869,ls),
(769,869,o),
(831,838,o),
(831,816,cs),
(831,807,ls),
(831,763,o),
(769,744,o),
(598,744,cs),
(567,744,ls),
(396,744,o),
(334,763,o),
(334,807,cs)
);
},
{
closed = 1;
nodes = (
(354,1159,ls),
(354,1194,o),
(417,1221,o),
(567,1221,cs),
(598,1221,ls),
(748,1221,o),
(811,1194,o),
(811,1159,cs),
(811,1148,ls),
(811,1129,o),
(748,1096,o),
(598,1096,cs),
(567,1096,ls),
(417,1096,o),
(354,1129,o),
(354,1148,cs)
);
}
);
width = 1165;
}
);
unicode = 8312;
},
{
glyphname = .notdef;
lastChange = "2025-03-02 15:42:17 +0000";
layers = (
{
layerId = m01;
shapes = (
{
closed = 1;
nodes = (
(179,41,ls),
(179,-7,o),
(205,-33,o),
(253,-33,cs),
(1414,-33,ls),
(1463,-33,o),
(1489,-7,o),
(1489,41,cs),
(1489,1385,ls),
(1489,1433,o),
(1463,1459,o),
(1414,1459,cs),
(253,1459,ls),
(205,1459,o),
(179,1433,o),
(179,1385,cs)
);
},
{
closed = 1;
nodes = (
(432,115,ls),
(383,115,o),
(357,141,o),
(357,190,cs),
(357,1236,ls),
(357,1284,o),
(383,1310,o),
(432,1310,cs),
(1236,1310,ls),
(1284,1310,o),
(1310,1284,o),
(1310,1236,cs),
(1310,190,ls),
(1310,141,o),
(1284,115,o),
(1236,115,cs)
);
}
);
width = 1667;
},
{
layerId = m002;
shapes = (
{
closed = 1;
nodes = (
(179,41,ls),
(179,-7,o),
(205,-33,o),
(253,-33,cs),
(1638,-33,ls),
(1686,-33,o),
(1712,-7,o),
(1712,41,cs),
(1712,1385,ls),
(1712,1433,o),
(1686,1459,o),
(1638,1459,cs),
(253,1459,ls),
(205,1459,o),
(179,1433,o),
(179,1385,cs)
);
},
{
closed = 1;
nodes = (
(655,246,ls),
(607,246,o),
(581,272,o),
(581,320,cs),
(581,1105,ls),
(581,1154,o),
(607,1180,o),
(655,1180,cs),
(1236,1180,ls),
(1284,1180,o),
(1310,1154,o),
(1310,1105,cs),
(1310,320,ls),
(1310,272,o),
(1284,246,o),
(1236,246,cs)
);
}
);
width = 1891;
}
);
note = .notdef;
},
{
glyphname = period;
kernLeft = period;
kernRight = period;
lastChange = "2025-03-02 15:42:17 +0000";
layers = (
{
layerId = m01;
shapes = (
{
closed = 1;
nodes = (
(283,0,ls),
(331,0,o),
(357,26,o),
(357,74,cs),
(357,164,ls),
(357,212,o),
(331,238,o),
(283,238,cs),
(194,238,ls),
(145,238,o),
(119,212,o),
(119,164,cs),
(119,74,ls),
(119,26,o),
(145,0,o),
(194,0,cs)
);
}
);
width = 476;
},
{
layerId = m002;
shapes = (
{
closed = 1;
nodes = (
(413,0,ls),
(462,0,o),
(488,26,o),
(488,74,cs),
(488,261,ls),
(488,309,o),
(462,335,o),
(413,335,cs),
(194,335,ls),
(145,335,o),
(119,309,o),
(119,261,cs),
(119,74,ls),
(119,26,o),
(145,0,o),
(194,0,cs)
);
}
);
width = 607;
}
);
unicode = 46;
},
{
glyphname = comma;
kernLeft = period;
kernRight = period;
lastChange = "2025-03-03 03:11:49 +0000";
layers = (
{
layerId = m01;
shapes = (
{
closed = 1;
nodes = (
(283,-238,o),
(357,-154,o),
(357,0,cs),
(357,164,ls),
(357,212,o),
(331,238,o),
(283,238,cs),
(194,238,ls),
(145,238,o),
(119,212,o),
(119,164,cs),
(119,74,ls),
(119,26,o),
(145,0,o),
(194,0,cs),
(223,0,l),
(223,-67,o),
(207,-104,o),
(174,-104,cs),
(135,-104,o),
(104,-124,o),
(104,-163,cs),
(104,-181,ls),
(104,-220,o),
(135,-238,o),
(196,-238,cs)
);
}
);
width = 476;
},
{
layerId = m002;
shapes = (
{
closed = 1;
nodes = (
(413,-402,o),
(488,-318,o),
(488,0,cs),
(488,261,ls),
(488,309,o),
(462,335,o),
(413,335,cs),
(194,335,ls),
(145,335,o),
(119,309,o),
(119,261,cs),
(119,74,ls),
(119,26,o),
(145,0,o),
(194,0,cs),
(223,0,l),
(223,-97,o),
(207,-134,o),
(179,-134,cs),
(130,-134,o),
(104,-160,o),
(104,-208,cs),
(104,-328,ls),
(104,-376,o),
(130,-402,o),
(196,-402,cs)
);
}
);
width = 607;
}
);
unicode = 44;
},
{
glyphname = colon;
kernLeft = l;
kernRight = l;
lastChange = "2025-03-02 15:42:17 +0000";
layers = (
{
layerId = m01;
shapes = (
{
closed = 1;
nodes = (
(283,834,ls),
(331,834,o),
(357,860,o),
(357,908,cs),
(357,997,ls),
(357,1046,o),
(331,1072,o),
(283,1072,cs),
(194,1072,ls),
(145,1072,o),
(119,1046,o),
(119,997,cs),
(119,908,ls),
(119,860,o),
(145,834,o),
(194,834,cs)
);
},
{
closed = 1;
nodes = (
(283,0,ls),
(331,0,o),
(357,26,o),
(357,74,cs),
(357,164,ls),
(357,212,o),
(331,238,o),
(283,238,cs),
(194,238,ls),
(145,238,o),
(119,212,o),
(119,164,cs),
(119,74,ls),
(119,26,o),
(145,0,o),
(194,0,cs)
);
}
);
width = 476;
},
{
layerId = m002;
shapes = (
{
closed = 1;
nodes = (
(413,737,ls),
(462,737,o),
(488,763,o),
(488,811,cs),
(488,997,ls),
(488,1046,o),
(462,1072,o),
(413,1072,cs),
(194,1072,ls),
(145,1072,o),
(119,1046,o),
(119,997,cs),
(119,811,ls),
(119,763,o),
(145,737,o),
(194,737,cs)
);
},
{
closed = 1;
nodes = (
(413,0,ls),
(462,0,o),
(488,26,o),
(488,74,cs),
(488,261,ls),
(488,309,o),
(462,335,o),
(413,335,cs),
(194,335,ls),
(145,335,o),
(119,309,o),
(119,261,cs),
(119,74,ls),
(119,26,o),
(145,0,o),
(194,0,cs)
);
}
);
width = 607;
}
);
unicode = 58;
},
{
glyphname = semicolon;
kernLeft = l;
kernRight = l;
lastChange = "2025-03-02 15:42:17 +0000";
layers = (
{
layerId = m01;
shapes = (
{
alignment = 1;
ref = comma;
},
{
closed = 1;
nodes = (
(283,834,ls),
(331,834,o),
(357,860,o),
(357,908,cs),
(357,997,ls),
(357,1046,o),
(331,1072,o),
(283,1072,cs),
(194,1072,ls),
(145,1072,o),
(119,1046,o),
(119,997,cs),
(119,908,ls),
(119,860,o),
(145,834,o),
(194,834,cs)
);
}
);
width = 476;
},
{
layerId = m002;
shapes = (
{
alignment = 1;
ref = comma;
},
{
closed = 1;
nodes = (
(413,737,ls),
(462,737,o),
(488,763,o),
(488,811,cs),
(488,997,ls),
(488,1046,o),
(462,1072,o),
(413,1072,cs),
(194,1072,ls),
(145,1072,o),
(119,1046,o),
(119,997,cs),
(119,811,ls),
(119,763,o),
(145,737,o),
(194,737,cs)
);
}
);
width = 607;
}
);
unicode = 59;
},
{
glyphname = bullet;
kernLeft = l;
kernRight = l;
lastChange = "2025-03-02 15:42:17 +0000";
layers = (
{
layerId = m01;
shapes = (
{
closed = 1;
nodes = (
(640,536,ls),
(689,536,o),
(715,562,o),
(715,610,cs),
(715,819,ls),
(715,867,o),
(689,893,o),
(640,893,cs),
(432,893,ls),
(383,893,o),
(357,867,o),
(357,819,cs),
(357,610,ls),
(357,562,o),
(383,536,o),
(432,536,cs)
);
}
);
width = 1072;
},
{
layerId = m002;
shapes = (
{
closed = 1;
nodes = (
(737,488,ls),
(785,488,o),
(811,514,o),
(811,562,cs),
(811,867,ls),
(811,916,o),
(785,942,o),
(737,942,cs),
(432,942,ls),
(383,942,o),
(357,916,o),
(357,867,cs),
(357,562,ls),
(357,514,o),
(383,488,o),
(432,488,cs)
);
}
);
width = 1169;
}
);
unicode = 8226;
},
{
glyphname = asterisk;
lastChange = "2025-03-02 15:42:17 +0000";
layers = (
{
layerId = m01;
shapes = (
{
closed = 1;
nodes = (
(403,979,ls),
(439,979,o),
(459,998,o),
(459,1035,cs),
(459,1111,l),
(525,1073,ls),
(556,1054,o),
(582,1062,o),
(601,1093,cs),
(607,1103,ls),
(624,1134,o),
(618,1161,o),
(586,1179,cs),
(520,1217,l),
(586,1255,ls),
(618,1273,o),
(624,1300,o),
(607,1332,cs),
(601,1341,ls),
(582,1372,o),
(556,1380,o),
(525,1361,cs),
(459,1323,l),
(459,1399,ls),
(459,1436,o),
(439,1455,o),
(403,1455,cs),
(392,1455,ls),
(355,1455,o),
(336,1436,o),
(336,1399,cs),
(336,1323,l),
(270,1361,ls),
(238,1380,o),
(212,1372,o),
(194,1341,cs),
(188,1332,ls),
(170,1300,o),
(177,1273,o),
(208,1255,cs),
(274,1217,l),
(208,1179,ls),
(177,1161,o),
(170,1134,o),
(188,1103,cs),
(194,1093,ls),
(212,1062,o),
(238,1054,o),
(270,1073,cs),
(336,1111,l),
(336,1035,ls),
(336,998,o),
(355,979,o),
(392,979,cs)
);
}
);
width = 795;
},
{
layerId = m002;
shapes = (
{
closed = 1;
nodes = (
(585,875,ls),
(634,875,o),
(676,903,o),
(660,949,cs),
(631,1032,l),
(692,971,ls),
(727,937,o),
(778,943,o),
(802,985,cs),
(862,1090,ls),
(886,1131,o),
(869,1186,o),
(822,1198,cs),
(739,1217,l),
(822,1237,ls),
(861,1246,o),
(886,1302,o),
(862,1344,cs),
(802,1448,ls),
(778,1490,o),
(722,1494,o),
(692,1465,cs),
(631,1402,l),
(660,1484,ls),
(676,1531,o),
(634,1559,o),
(585,1559,cs),
(466,1559,ls),
(418,1559,o),
(376,1531,o),
(392,1484,cs),
(419,1402,l),
(359,1465,ls),
(325,1500,o),
(274,1490,o),
(249,1448,cs),
(190,1344,ls),
(166,1302,o),
(181,1248,o),
(230,1237,cs),
(313,1217,l),
(230,1198,ls),
(182,1186,o),
(166,1132,o),
(190,1090,cs),
(249,985,ls),
(274,944,o),
(325,937,o),
(359,971,cs),
(419,1032,l),
(392,949,ls),
(377,904,o),
(418,875,o),
(466,875,cs)
);
}
);
width = 1051;
}
);
unicode = 42;
},
{
glyphname = numbersign;
kernLeft = A;
kernRight = V;
lastChange = "2025-03-02 15:42:17 +0000";
layers = (
{
layerId = m01;
shapes = (
{
closed = 1;
nodes = (
(384,0,ls),
(428,0,o),
(456,20,o),
(467,63,cs),
(792,1272,ls),
(806,1324,o),
(781,1355,o),
(728,1355,cs),
(695,1355,ls),
(651,1355,o),
(623,1334,o),
(612,1292,cs),
(288,83,ls),
(274,31,o),
(299,0,o),
(352,0,cs)
);
},
{
closed = 1;
nodes = (
(928,0,ls),
(971,0,o),
(999,20,o),
(1011,63,cs),
(1335,1272,ls),
(1349,1324,o),
(1324,1355,o),
(1271,1355,cs),
(1238,1355,ls),
(1195,1355,o),
(1167,1334,o),
(1156,1292,cs),
(831,83,ls),
(817,31,o),
(842,0,o),
(895,0,cs)
);
},
{
closed = 1;
nodes = (
(200,879,ls),
(188,834,o),
(210,804,o),
(258,804,cs),
(1453,804,ls),
(1492,804,o),
(1518,822,o),
(1528,861,cs),
(1533,878,ls),
(1545,924,o),
(1522,953,o),
(1475,953,cs),
(279,953,ls),
(240,953,o),
(215,935,o),
(205,896,cs)
);
},
{
closed = 1;
nodes = (
(92,477,ls),
(80,432,o),
(102,402,o),
(150,402,cs),
(1345,402,ls),
(1385,402,o),
(1410,420,o),
(1420,459,cs),
(1425,476,ls),
(1437,522,o),
(1414,551,o),
(1367,551,cs),
(171,551,ls),
(132,551,o),
(107,533,o),
(97,494,cs)
);
}
);
width = 1550;
},
{
layerId = m002;
shapes = (
{
closed = 1;
nodes = (
(483,0,ls),
(527,0,o),
(555,20,o),
(566,63,cs),
(890,1272,ls),
(904,1324,o),
(879,1355,o),
(826,1355,cs),
(632,1355,ls),
(588,1355,o),
(560,1334,o),
(549,1292,cs),
(224,83,ls),
(210,31,o),
(235,0,o),
(288,0,cs)
);
},
{
closed = 1;
nodes = (
(1026,0,ls),
(1070,0,o),
(1098,20,o),
(1109,63,cs),
(1434,1272,ls),
(1448,1324,o),
(1423,1355,o),
(1370,1355,cs),
(1175,1355,ls),
(1131,1355,o),
(1104,1334,o),
(1092,1292,cs),
(768,83,ls),
(754,31,o),
(779,0,o),
(832,0,cs)
);
},
{
closed = 1;
nodes = (
(202,820,ls),
(189,770,o),
(212,744,o),
(260,744,cs),
(1455,744,ls),
(1494,744,o),
(1519,759,o),
(1530,801,cs),
(1566,938,ls),
(1579,987,o),
(1556,1012,o),
(1508,1012,cs),
(313,1012,ls),
(274,1012,o),
(249,997,o),
(238,956,cs)
);
},
{
closed = 1;
nodes = (
(93,418,ls),
(80,368,o),
(103,342,o),
(151,342,cs),
(1346,342,ls),
(1385,342,o),
(1410,357,o),
(1421,399,cs),
(1458,536,ls),
(1471,585,o),
(1448,610,o),
(1400,610,cs),
(205,610,ls),
(166,610,o),
(141,596,o),
(130,554,cs)
);
}
);
width = 1585;
}
);
unicode = 35;
},
{
glyphname = slash;
kernLeft = A;
kernRight = V;
lastChange = "2025-03-02 15:42:17 +0000";
layers = (
{
layerId = m01;
shapes = (
{
closed = 1;
nodes = (
(146,0,ls),
(188,0,o),
(221,17,o),
(233,58,cs),
(582,1343,ls),
(596,1396,o),
(580,1429,o),
(524,1429,cs),
(522,1429,ls),
(480,1429,o),
(447,1412,o),
(435,1372,cs),
(87,87,ls),
(73,33,o),
(87,0,o),
(140,0,cs)
);
}
);
width = 668;
},
{
layerId = m002;
shapes = (
{
closed = 1;
nodes = (
(340,0,ls),
(381,0,o),
(415,17,o),
(426,58,cs),
(775,1343,ls),
(789,1396,o),
(773,1429,o),
(717,1429,cs),
(522,1429,ls),
(480,1429,o),
(447,1412,o),
(435,1372,cs),
(87,87,ls),
(73,33,o),
(87,0,o),
(140,0,cs)
);
}
);
width = 862;
}
);
unicode = 47;
},
{
glyphname = hyphen;
lastChange = "2025-03-02 15:42:17 +0000";
layers = (
{
layerId = m01;
shapes = (
{
closed = 1;
nodes = (
(119,696,ls),
(119,660,o),
(139,640,o),
(175,640,cs),
(778,640,ls),
(814,640,o),
(834,660,o),
(834,696,cs),
(834,733,ls),
(834,770,o),
(814,789,o),
(778,789,cs),
(175,789,ls),
(139,789,o),
(119,770,o),
(119,733,cs)
);
}
);
width = 953;
},
{
layerId = m002;
shapes = (
{
closed = 1;
nodes = (
(119,620,ls),
(119,583,o),
(139,564,o),
(175,564,cs),
(778,564,ls),
(814,564,o),
(834,583,o),
(834,620,cs),
(834,810,ls),
(834,846,o),
(814,865,o),
(778,865,cs),
(175,865,ls),
(139,865,o),
(119,846,o),
(119,810,cs)
);
}
);
width = 953;
}
);
unicode = 45;
},
{
glyphname = endash;
lastChange = "2025-03-02 15:42:17 +0000";
layers = (
{
layerId = m01;
shapes = (
{
closed = 1;
nodes = (
(60,696,ls),
(60,660,o),
(79,640,o),
(115,640,cs),
(897,640,ls),
(933,640,o),
(953,660,o),
(953,696,cs),
(953,733,ls),
(953,770,o),
(933,789,o),
(897,789,cs),
(115,789,ls),
(79,789,o),
(60,770,o),
(60,733,cs)
);
}
);
width = 1012;
},
{
layerId = m002;
shapes = (
{
closed = 1;
nodes = (
(60,620,ls),
(60,583,o),
(79,564,o),
(115,564,cs),
(897,564,ls),
(933,564,o),
(953,583,o),
(953,620,cs),
(953,810,ls),
(953,846,o),
(933,865,o),
(897,865,cs),
(115,865,ls),
(79,865,o),
(60,846,o),
(60,810,cs)
);
}
);
width = 1012;
}
);
unicode = 8211;
},
{
glyphname = emdash;
lastChange = "2025-03-02 15:42:17 +0000";
layers = (
{
layerId = m01;
shapes = (
{
closed = 1;
nodes = (
(0,696,ls),
(0,660,o),
(20,640,o),
(56,640,cs),
(1016,640,ls),
(1052,640,o),
(1072,660,o),
(1072,696,cs),
(1072,733,ls),
(1072,770,o),
(1052,789,o),
(1016,789,cs),
(56,789,ls),
(20,789,o),
(0,770,o),
(0,733,cs)
);
}
);
width = 1072;
},
{
layerId = m002;
shapes = (
{
closed = 1;
nodes = (
(0,603,ls),
(0,567,o),
(20,547,o),
(56,547,cs),
(1016,547,ls),
(1052,547,o),
(1072,567,o),
(1072,603,cs),
(1072,826,ls),
(1072,863,o),
(1052,882,o),
(1016,882,cs),
(56,882,ls),
(20,882,o),
(0,863,o),
(0,826,cs)
);
}
);
width = 1072;
}
);
unicode = 8212;
},
{
glyphname = underscore;
lastChange = "2025-03-02 15:42:17 +0000";
layers = (
{
layerId = m01;
shapes = (
{
closed = 1;
nodes = (
(0,-123,ls),
(0,-159,o),
(20,-179,o),
(56,-179,cs),
(897,-179,ls),
(933,-179,o),
(953,-159,o),
(953,-123,cs),
(953,-86,ls),
(953,-49,o),
(933,-30,o),
(897,-30,cs),
(56,-30,ls),
(20,-30,o),
(0,-49,o),
(0,-86,cs)
);
}
);
width = 953;
},
{
layerId = m002;
shapes = (
{
closed = 1;
nodes = (
(0,-275,ls),
(0,-312,o),
(20,-331,o),
(56,-331,cs),
(897,-331,ls),
(933,-331,o),
(953,-312,o),
(953,-275,cs),
(953,-86,ls),
(953,-49,o),
(933,-30,o),
(897,-30,cs),
(56,-30,ls),
(20,-30,o),
(0,-49,o),
(0,-86,cs)
);
}
);
width = 953;
}
);
unicode = 95;
},
{
glyphname = parenleft;
lastChange = "2025-03-02 15:42:17 +0000";
layers = (
{
layerId = m01;
shapes = (
{
closed = 1;
nodes = (
(529,-89,ls),
(569,-89,o),
(596,-63,o),
(596,-22,cs),
(596,-7,ls),
(596,33,o),
(569,60,o),
(529,60,cs),
(492,60,ls),
(421,60,o),
(298,114,o),
(298,247,cs),
(298,1184,ls),
(298,1316,o),
(421,1370,o),
(492,1370,cs),
(529,1370,ls),
(569,1370,o),
(596,1396,o),
(596,1437,cs),
(596,1452,ls),
(596,1492,o),
(569,1519,o),
(529,1519,cs),
(473,1519,ls),
(354,1519,o),
(119,1408,o),
(119,1158,cs),
(119,271,ls),
(119,20,o),
(354,-89,o),
(473,-89,cs)
);
}
);
width = 715;
},
{
layerId = m002;
shapes = (
{
closed = 1;
nodes = (
(640,-89,ls),
(681,-89,o),
(707,-63,o),
(707,-22,cs),
(707,179,ls),
(707,220,o),
(681,246,o),
(640,246,cs),
(622,246,ls),
(601,246,o),
(521,301,o),
(521,433,cs),
(521,997,ls),
(521,1130,o),
(601,1184,o),
(622,1184,cs),
(640,1184,ls),
(681,1184,o),
(707,1210,o),
(707,1251,cs),
(707,1452,ls),
(707,1492,o),
(681,1519,o),
(640,1519,cs),
(584,1519,ls),
(354,1519,o),
(119,1408,o),
(119,1024,cs),
(119,405,ls),
(119,20,o),
(354,-89,o),
(584,-89,cs)
);
}
);
width = 826;
}
);
unicode = 40;
},
{
glyphname = braceleft;
lastChange = "2025-03-02 15:42:17 +0000";
layers = (
{
layerId = m01;
shapes = (
{
closed = 1;
nodes = (
(618,-89,ls),
(659,-89,o),
(685,-63,o),
(685,-22,cs),
(685,-7,ls),
(685,33,o),
(659,60,o),
(618,60,cs),
(582,60,ls),
(510,60,o),
(387,122,o),
(387,254,cs),
(387,428,ls),
(387,559,o),
(357,654,o),
(309,715,c),
(357,775,o),
(387,870,o),
(387,1001,cs),
(387,1175,ls),
(387,1307,o),
(510,1370,o),
(582,1370,cs),
(618,1370,ls),
(659,1370,o),
(685,1396,o),
(685,1437,cs),
(685,1452,ls),
(685,1492,o),
(659,1519,o),
(618,1519,cs),
(562,1519,ls),
(443,1519,o),
(208,1408,o),
(208,1150,cs),
(208,976,ls),
(208,851,o),
(190,789,o),
(133,789,cs),
(97,789,ls),
(56,789,o),
(30,763,o),
(30,722,cs),
(30,707,ls),
(30,666,o),
(56,640,o),
(97,640,cs),
(133,640,ls),
(190,640,o),
(208,578,o),
(208,453,cs),
(208,279,ls),
(208,21,o),
(443,-89,o),
(562,-89,cs)
);
}
);
width = 804;
},
{
layerId = m002;
shapes = (
{
closed = 1;
nodes = (
(730,-89,ls),
(770,-89,o),
(796,-63,o),
(796,-22,cs),
(796,179,ls),
(796,220,o),
(770,246,o),
(730,246,cs),
(712,246,ls),
(640,246,o),
(610,308,o),
(610,388,cs),
(610,428,ls),
(610,559,o),
(581,654,o),
(532,715,c),
(581,775,o),
(610,870,o),
(610,1001,cs),
(610,1041,ls),
(610,1121,o),
(640,1184,o),
(712,1184,cs),
(730,1184,ls),
(770,1184,o),
(796,1210,o),
(796,1437,cs),
(796,1452,ls),
(796,1492,o),
(770,1519,o),
(730,1519,cs),
(674,1519,ls),
(443,1519,o),
(208,1408,o),
(208,1016,cs),
(208,976,ls),
(208,944,o),
(190,882,o),
(133,882,cs),
(97,882,ls),
(56,882,o),
(30,856,o),
(30,815,cs),
(30,614,ls),
(30,573,o),
(56,547,o),
(97,547,cs),
(133,547,ls),
(190,547,o),
(208,485,o),
(208,453,cs),
(208,413,ls),
(208,21,o),
(443,-89,o),
(674,-89,cs)
);
}
);
width = 916;
}
);
unicode = 123;
},
{
glyphname = bracketleft;
lastChange = "2025-03-02 15:42:17 +0000";
layers = (
{
layerId = m01;
shapes = (
{
closed = 1;
nodes = (
(529,-89,ls),
(569,-89,o),
(596,-63,o),
(596,-22,cs),
(596,-7,ls),
(596,33,o),
(569,60,o),
(529,60,cs),
(298,60,l),
(298,1370,l),
(529,1370,ls),
(569,1370,o),
(596,1396,o),
(596,1437,cs),
(596,1452,ls),
(596,1492,o),
(569,1519,o),
(529,1519,cs),
(194,1519,ls),
(145,1519,o),
(119,1492,o),
(119,1444,cs),
(119,-15,ls),
(119,-63,o),
(145,-89,o),
(194,-89,cs)
);
}
);
width = 715;
},
{
layerId = m002;
shapes = (
{
closed = 1;
nodes = (
(584,-89,ls),
(625,-89,o),
(651,-63,o),
(651,-22,cs),
(651,179,ls),
(651,220,o),
(625,246,o),
(584,246,cs),
(521,246,l),
(521,1184,l),
(584,1184,ls),
(625,1184,o),
(651,1210,o),
(651,1251,cs),
(651,1452,ls),
(651,1492,o),
(625,1519,o),
(584,1519,cs),
(194,1519,ls),
(145,1519,o),
(119,1492,o),
(119,1444,cs),
(119,-15,ls),
(119,-63,o),
(145,-89,o),
(194,-89,cs)
);
}
);
width = 770;
}
);
unicode = 91;
},
{
glyphname = guilsinglleft;
lastChange = "2025-03-02 15:42:17 +0000";
layers = (
{
layerId = m01;
shapes = (
{
closed = 1;
nodes = (
(631,1042,o),
(634,1076,o),
(605,1104,cs),
(598,1111,ls),
(570,1139,o),
(538,1139,o),
(502,1104,cs),
(219,820,ls),
(192,793,o),
(179,767,o),
(179,729,cs),
(179,702,ls),
(179,663,o),
(192,637,o),
(219,610,cs),
(502,327,ls),
(538,291,o),
(570,290,o),
(598,318,cs),
(605,325,ls),
(633,353,o),
(631,388,o),
(597,422,cs),
(313,706,l),
(313,724,l),
(597,1009,ls)
);
}
);
width = 803;
},
{
layerId = m002;
shapes = (
{
closed = 1;
nodes = (
(759,935,o),
(763,969,o),
(734,997,cs),
(609,1122,ls),
(582,1150,o),
(548,1150,o),
(513,1115,cs),
(219,821,ls),
(192,794,o),
(179,768,o),
(179,730,cs),
(179,702,ls),
(179,663,o),
(192,637,o),
(219,610,cs),
(514,315,ls),
(548,281,o),
(582,279,o),
(609,307,cs),
(735,433,ls),
(762,460,o),
(759,495,o),
(726,529,cs),
(549,705,l),
(549,725,l),
(726,902,ls)
);
}
);
width = 932;
}
);
unicode = 8249;
},
{
glyphname = quotesingle;
lastChange = "2025-03-02 15:42:17 +0000";
layers = (
{
layerId = m01;
shapes = (
{
closed = 1;
nodes = (
(203,953,ls),
(239,953,o),
(262,968,o),
(264,1007,cs),
(279,1372,ls),
(281,1411,o),
(255,1429,o),
(216,1429,cs),
(182,1429,ls),
(143,1429,o),
(117,1411,o),
(119,1372,cs),
(134,1007,ls),
(136,968,o),
(159,953,o),
(195,953,cs)
);
}
);
width = 398;
},
{
layerId = m002;
shapes = (
{
closed = 1;
nodes = (
(359,953,ls),
(395,953,o),
(417,968,o),
(421,1007,cs),
(454,1372,ls),
(458,1411,o),
(430,1429,o),
(391,1429,cs),
(182,1429,ls),
(143,1429,o),
(115,1411,o),
(119,1372,cs),
(153,1007,ls),
(156,968,o),
(178,953,o),
(214,953,cs)
);
}
);
width = 573;
}
);
unicode = 39;
},
{
glyphname = spadeBlackSuit;
lastChange = "2025-03-02 15:42:17 +0000";
layers = (
{
layerId = m01;
shapes = (
{
closed = 1;
nodes = (
(735,6,ls),
(796,6,o),
(827,32,o),
(827,80,cs),
(827,108,ls),
(827,125,o),
(823,138,o),
(814,154,cs),
(767,241,o),
(736,335,o),
(724,433,c),
(776,399,o),
(841,387,o),
(914,387,cs),
(1080,387,o),
(1221,502,o),
(1221,691,cs),
(1221,901,o),
(1108,1064,o),
(679,1407,cs),
(644,1436,o),
(606,1436,o),
(570,1407,cs),
(141,1064,o),
(30,901,o),
(30,691,cs),
(30,502,o),
(169,387,o),
(336,387,cs),
(408,387,o),
(474,398,o),
(527,433,c),
(515,335,o),
(484,241,o),
(436,154,cs),
(427,138,o),
(423,125,o),
(423,108,cs),
(423,80,ls),
(423,32,o),
(455,6,o),
(515,6,cs)
);
}
);
width = 1251;
},
{
layerId = m002;
shapes = (
{
closed = 1;
nodes = (
(806,6,ls),
(866,6,o),
(900,32,o),
(900,80,cs),
(900,108,ls),
(900,125,o),
(896,138,o),
(887,154,cs),
(842,235,o),
(810,324,o),
(797,415,c),
(847,396,o),
(904,390,o),
(961,390,cs),
(1130,390,o),
(1273,505,o),
(1273,694,cs),
(1273,918,o),
(1158,1067,o),
(703,1410,cs),
(665,1437,o),
(630,1437,o),
(593,1410,cs),
(137,1067,o),
(22,918,o),
(22,694,cs),
(22,505,o),
(165,390,o),
(334,390,cs),
(391,390,o),
(448,396,o),
(498,415,c),
(485,324,o),
(454,236,o),
(408,154,cs),
(399,138,o),
(395,125,o),
(395,108,cs),
(395,80,ls),
(395,32,o),
(429,6,o),
(489,6,cs)
);
}
);
width = 1295;
}
);
unicode = 9824;
},
{
glyphname = heartWhiteSuit;
lastChange = "2025-03-02 15:42:17 +0000";
layers = (
{
layerId = m01;
shapes = (
{
closed = 1;
nodes = (
(606,60,o),
(645,60,o),
(680,95,cs),
(1116,523,o),
(1230,728,o),
(1230,989,cs),
(1230,1225,o),
(1088,1370,o),
(919,1370,cs),
(798,1370,o),
(700,1332,o),
(641,1197,cs),
(630,1171,o),
(621,1171,o),
(609,1197,cs),
(551,1332,o),
(452,1370,o),
(331,1370,cs),
(163,1370,o),
(20,1225,o),
(20,989,cs),
(20,728,o),
(135,523,o),
(570,95,cs)
);
},
{
closed = 1;
nodes = (
(380,512,o),
(197,740,o),
(197,1001,cs),
(197,1119,o),
(283,1196,o),
(367,1196,cs),
(512,1196,o),
(570,1014,o),
(609,946,cs),
(615,934,o),
(636,934,o),
(643,946,cs),
(681,1014,o),
(740,1196,o),
(884,1196,cs),
(969,1196,o),
(1053,1119,o),
(1053,1001,cs),
(1053,740,o),
(871,512,o),
(653,298,cs),
(635,280,o),
(616,280,o),
(597,298,cs)
);
}
);
width = 1251;
},
{
layerId = m002;
shapes = (
{
closed = 1;
nodes = (
(630,60,o),
(665,60,o),
(703,94,cs),
(1157,522,o),
(1271,708,o),
(1271,988,cs),
(1271,1225,o),
(1129,1370,o),
(960,1370,cs),
(839,1370,o),
(722,1332,o),
(663,1196,cs),
(652,1170,o),
(643,1170,o),
(632,1196,cs),
(573,1332,o),
(456,1370,o),
(335,1370,cs),
(167,1370,o),
(24,1225,o),
(24,988,cs),
(24,708,o),
(139,522,o),
(593,94,cs)
);
},
{
closed = 1;
nodes = (
(463,558,o),
(308,692,o),
(308,906,cs),
(308,996,o),
(372,1071,o),
(454,1071,cs),
(563,1071,o),
(597,952,o),
(636,884,cs),
(640,875,o),
(656,875,o),
(661,884,cs),
(699,952,o),
(698,1071,o),
(842,1071,cs),
(924,1071,o),
(987,996,o),
(987,906,cs),
(987,692,o),
(832,558,o),
(669,397,cs),
(655,384,o),
(641,384,o),
(627,397,cs)
);
}
);
width = 1295;
}
);
unicode = 9825;
},
{
glyphname = diamondWhiteSuit;
lastChange = "2025-03-02 15:42:17 +0000";
layers = (
{
layerId = m01;
shapes = (
{
closed = 1;
nodes = (
(682,0,ls),
(709,0,o),
(724,11,o),
(741,34,cs),
(1194,663,ls),
(1219,698,o),
(1219,731,o),
(1194,766,cs),
(741,1395,ls),
(724,1418,o),
(709,1429,o),
(682,1429,cs),
(578,1429,ls),
(551,1429,o),
(536,1418,o),
(519,1395,cs),
(57,766,ls),
(32,731,o),
(32,698,o),
(57,663,cs),
(519,34,ls),
(536,11,o),
(551,0,o),
(578,0,cs)
);
},
{
closed = 1;
nodes = (
(607,164,o),
(595,172,o),
(582,191,cs),
(227,674,ls),
(207,702,o),
(207,728,o),
(227,756,cs),
(582,1238,ls),
(595,1257,o),
(607,1265,o),
(628,1265,cs),
(630,1265,ls),
(651,1265,o),
(663,1257,o),
(676,1238,cs),
(1024,756,ls),
(1044,727,o),
(1044,703,o),
(1024,674,cs),
(676,191,ls),
(663,172,o),
(651,164,o),
(630,164,cs),
(628,164,ls)
);
}
);
width = 1251;
},
{
layerId = m002;
shapes = (
{
closed = 1;
nodes = (
(678,0,ls),
(706,0,o),
(722,11,o),
(740,34,cs),
(1217,663,ls),
(1243,698,o),
(1243,731,o),
(1217,766,cs),
(740,1395,ls),
(722,1418,o),
(706,1429,o),
(678,1429,cs),
(627,1429,ls),
(598,1429,o),
(583,1418,o),
(566,1395,cs),
(78,766,ls),
(52,731,o),
(52,698,o),
(78,663,cs),
(566,34,ls),
(583,11,o),
(598,0,o),
(627,0,cs)
);
},
{
closed = 1;
nodes = (
(610,335,o),
(600,343,o),
(585,362,cs),
(343,674,ls),
(323,701,o),
(323,729,o),
(343,756,cs),
(585,1067,ls),
(600,1086,o),
(610,1094,o),
(632,1094,cs),
(671,1094,ls),
(692,1094,o),
(704,1085,o),
(717,1067,cs),
(952,756,ls),
(972,728,o),
(972,702,o),
(952,674,cs),
(717,362,ls),
(703,343,o),
(692,335,o),
(671,335,cs),
(632,335,ls)
);
}
);
width = 1295;
}
);
unicode = 9826;
},
{
glyphname = clubBlackSuit;
lastChange = "2025-03-02 15:42:17 +0000";
layers = (
{
layerId = m01;
shapes = (
{
closed = 1;
nodes = (
(715,0,ls),
(763,0,o),
(789,26,o),
(789,74,cs),
(789,102,ls),
(789,119,o),
(786,132,o),
(779,149,cs),
(730,261,o),
(702,385,o),
(700,517,c),
(755,455,o),
(834,417,o),
(923,417,cs),
(1088,417,o),
(1221,550,o),
(1221,715,cs),
(1221,879,o),
(1088,1012,o),
(923,1012,cs),
(915,1012,o),
(907,1012,o),
(898,1011,c),
(914,1048,o),
(923,1089,o),
(923,1131,cs),
(923,1296,o),
(790,1429,o),
(625,1429,cs),
(461,1429,o),
(328,1296,o),
(328,1131,cs),
(328,1089,o),
(337,1048,o),
(353,1011,c),
(343,1012,o),
(336,1012,o),
(328,1012,cs),
(163,1012,o),
(30,879,o),
(30,715,cs),
(30,550,o),
(163,417,o),
(328,417,cs),
(417,417,o),
(496,455,o),
(551,517,c),
(549,385,o),
(521,261,o),
(472,149,cs),
(464,132,o),
(462,119,o),
(462,102,cs),
(462,74,ls),
(462,26,o),
(488,0,o),
(536,0,cs)
);
}
);
width = 1251;
},
{
layerId = m002;
shapes = (
{
closed = 1;
nodes = (
(774,0,ls),
(823,0,o),
(849,26,o),
(849,74,cs),
(849,102,ls),
(849,119,o),
(846,132,o),
(838,149,cs),
(799,237,o),
(774,334,o),
(764,436,c),
(817,393,o),
(886,367,o),
(960,367,cs),
(1133,367,o),
(1273,506,o),
(1273,679,cs),
(1273,852,o),
(1133,992,o),
(960,992,cs),
(952,992,o),
(944,992,o),
(934,991,c),
(951,1029,o),
(960,1072,o),
(960,1117,cs),
(960,1290,o),
(821,1429,o),
(648,1429,cs),
(475,1429,o),
(335,1290,o),
(335,1117,cs),
(335,1072,o),
(345,1029,o),
(361,991,c),
(352,992,o),
(343,992,o),
(335,992,cs),
(162,992,o),
(22,852,o),
(22,679,cs),
(22,506,o),
(162,367,o),
(335,367,cs),
(409,367,o),
(478,393,o),
(531,436,c),
(521,334,o),
(496,237,o),
(457,149,cs),
(449,132,o),
(447,119,o),
(447,102,cs),
(447,74,ls),
(447,26,o),
(473,0,o),
(521,0,cs)
);
}
);
width = 1295;
}
);
unicode = 9827;
},
{
glyphname = spadeWhiteSuit;
lastChange = "2025-03-02 15:42:17 +0000";
layers = (
{
layerId = m01;
shapes = (
{
closed = 1;
nodes = (
(735,6,ls),
(796,6,o),
(827,32,o),
(827,80,cs),
(827,108,ls),
(827,125,o),
(823,138,o),
(814,154,cs),
(767,241,o),
(736,335,o),
(724,433,c),
(776,399,o),
(841,387,o),
(914,387,cs),
(1080,387,o),
(1221,502,o),
(1221,691,cs),
(1221,901,o),
(1108,1064,o),
(679,1407,cs),
(644,1436,o),
(606,1436,o),
(570,1407,cs),
(141,1064,o),
(30,901,o),
(30,691,cs),
(30,502,o),
(169,387,o),
(336,387,cs),
(408,387,o),
(474,398,o),
(527,433,c),
(515,335,o),
(484,241,o),
(436,154,cs),
(427,138,o),
(423,125,o),
(423,108,cs),
(423,80,ls),
(423,32,o),
(455,6,o),
(515,6,cs)
);
},
{
closed = 1;
nodes = (
(592,138,o),
(582,146,o),
(586,158,cs),
(613,236,ls),
(617,248,o),
(620,253,o),
(625,253,cs),
(631,253,o),
(634,248,o),
(637,236,cs),
(664,158,ls),
(669,146,o),
(659,138,o),
(644,138,cs),
(607,138,ls)
);
},
{
closed = 1;
nodes = (
(353,550,o),
(247,604,o),
(247,728,cs),
(247,884,o),
(302,944,o),
(589,1201,cs),
(614,1224,o),
(637,1224,o),
(662,1201,cs),
(949,944,o),
(1004,868,o),
(1004,728,cs),
(1004,618,o),
(922,550,o),
(822,550,cs),
(741,550,o),
(675,569,o),
(636,643,cs),
(629,657,o),
(622,657,o),
(615,643,cs),
(576,569,o),
(511,550,o),
(430,550,cs)
);
}
);
width = 1251;
},
{
layerId = m002;
shapes = (
{
closed = 1;
nodes = (
(803,6,ls),
(863,6,o),
(895,32,o),
(895,80,cs),
(895,108,ls),
(895,125,o),
(892,138,o),
(882,154,cs),
(839,235,o),
(808,324,o),
(795,415,c),
(843,396,o),
(900,390,o),
(956,390,cs),
(1120,390,o),
(1273,505,o),
(1273,694,cs),
(1273,918,o),
(1159,1067,o),
(702,1410,cs),
(665,1437,o),
(630,1437,o),
(594,1410,cs),
(135,1067,o),
(22,918,o),
(22,694,cs),
(22,505,o),
(174,390,o),
(340,390,cs),
(395,390,o),
(452,396,o),
(502,415,c),
(488,324,o),
(457,236,o),
(413,154,cs),
(404,138,o),
(400,125,o),
(400,108,cs),
(400,80,ls),
(400,32,o),
(433,6,o),
(492,6,cs)
);
},
{
closed = 1;
nodes = (
(620,160,o),
(612,166,o),
(615,173,cs),
(640,221,ls),
(643,228,o),
(644,231,o),
(648,231,cs),
(651,231,o),
(652,228,o),
(655,221,cs),
(680,173,ls),
(683,166,o),
(676,160,o),
(667,160,cs),
(628,160,ls)
);
},
{
closed = 1;
nodes = (
(363,570,o),
(279,639,o),
(279,753,cs),
(279,878,o),
(348,949,o),
(615,1155,cs),
(636,1171,o),
(659,1171,o),
(680,1155,cs),
(948,949,o),
(1016,878,o),
(1016,753,cs),
(1016,639,o),
(932,570,o),
(832,570,cs),
(761,570,o),
(691,588,o),
(656,653,cs),
(649,666,o),
(646,666,o),
(639,653,cs),
(604,588,o),
(534,570,o),
(463,570,cs)
);
}
);
width = 1295;
}
);
unicode = 9828;
},
{
glyphname = heartBlackSuit;
lastChange = "2025-03-02 15:42:17 +0000";
layers = (
{
layerId = m01;
shapes = (
{
closed = 1;
nodes = (
(606,60,o),
(645,60,o),
(680,95,cs),
(1116,523,o),
(1230,728,o),
(1230,989,cs),
(1230,1225,o),
(1088,1370,o),
(919,1370,cs),
(798,1370,o),
(700,1332,o),
(641,1197,cs),
(630,1171,o),
(621,1171,o),
(609,1197,cs),
(551,1332,o),
(452,1370,o),
(331,1370,cs),
(163,1370,o),
(20,1225,o),
(20,989,cs),
(20,728,o),
(135,523,o),
(570,95,cs)
);
}
);
width = 1251;
},
{
layerId = m002;
shapes = (
{
closed = 1;
nodes = (
(630,60,o),
(665,60,o),
(703,94,cs),
(1157,522,o),
(1271,708,o),
(1271,988,cs),
(1271,1225,o),
(1129,1370,o),
(960,1370,cs),
(839,1370,o),
(722,1332,o),
(663,1196,cs),
(652,1170,o),
(643,1170,o),
(632,1196,cs),
(573,1332,o),
(456,1370,o),
(335,1370,cs),
(167,1370,o),
(24,1225,o),
(24,988,cs),
(24,708,o),
(139,522,o),
(593,94,cs)
);
}
);
width = 1295;
}
);
unicode = 9829;
},
{
glyphname = diamondBlackSuit;
lastChange = "2025-03-02 15:42:17 +0000";
layers = (
{
layerId = m01;
shapes = (
{
closed = 1;
nodes = (
(654,0,ls),
(681,0,o),
(696,11,o),
(713,34,cs),
(1166,663,ls),
(1191,698,o),
(1191,731,o),
(1166,766,cs),
(713,1395,ls),
(696,1418,o),
(681,1429,o),
(654,1429,cs),
(606,1429,ls),
(579,1429,o),
(564,1418,o),
(547,1395,cs),
(85,766,ls),
(60,731,o),
(60,698,o),
(85,663,cs),
(547,34,ls),
(564,11,o),
(579,0,o),
(606,0,cs)
);
}
);
width = 1251;
},
{
layerId = m002;
shapes = (
{
closed = 1;
nodes = (
(678,0,ls),
(706,0,o),
(722,11,o),
(740,34,cs),
(1217,663,ls),
(1243,698,o),
(1243,731,o),
(1217,766,cs),
(740,1395,ls),
(722,1418,o),
(706,1429,o),
(678,1429,cs),
(627,1429,ls),
(598,1429,o),
(583,1418,o),
(566,1395,cs),
(78,766,ls),
(52,731,o),
(52,698,o),
(78,663,cs),
(566,34,ls),
(583,11,o),
(598,0,o),
(627,0,cs)
);
}
);
width = 1295;
}
);
unicode = 9830;
},
{
glyphname = clubWhiteSuit;
lastChange = "2025-03-02 15:42:17 +0000";
layers = (
{
layerId = m01;
shapes = (
{
closed = 1;
nodes = (
(461,1444,o),
(328,1305,o),
(328,1131,c),
(328,1087,o),
(337,1044,o),
(353,1006,c),
(343,1007,o),
(336,1007,o),
(328,1007,c),
(163,1007,o),
(30,867,o),
(30,694,c),
(30,521,o),
(163,381,o),
(328,381,c),
(398,381,o),
(464,408,o),
(515,451,c),
(504,349,o),
(474,252,o),
(435,164,c),
(427,147,o),
(424,134,o),
(424,117,c),
(424,89,l),
(424,41,o),
(450,15,o),
(499,15,c),
(752,15,l),
(800,15,o),
(826,41,o),
(826,89,c),
(826,117,l),
(826,134,o),
(823,147,o),
(816,164,c),
(777,252,o),
(746,349,o),
(736,451,c),
(786,408,o),
(852,381,o),
(923,381,c),
(1088,381,o),
(1221,521,o),
(1221,694,c),
(1221,867,o),
(1088,1007,o),
(923,1007,c),
(915,1007,o),
(907,1007,o),
(898,1006,c),
(914,1044,o),
(923,1087,o),
(923,1131,c),
(923,1305,o),
(790,1444,o),
(625,1444,c)
);
},
{
closed = 1;
nodes = (
(634,226,o),
(644,194,o),
(655,164,c),
(595,164,l),
(607,194,o),
(616,226,o),
(625,260,c)
);
},
{
closed = 1;
nodes = (
(667,1295,o),
(706,1278,o),
(735,1247,c),
(765,1216,o),
(782,1175,o),
(782,1131,c),
(782,1108,o),
(777,1085,o),
(768,1065,c),
(700,902,ls),
(683,862,o),
(702,835,o),
(743,839,cs),
(913,857,l),
(914,858,o),
(918,858,o),
(923,858,c),
(965,858,o),
(1004,840,o),
(1033,810,c),
(1063,779,o),
(1079,738,o),
(1079,694,c),
(1079,649,o),
(1063,609,o),
(1033,578,c),
(1004,547,o),
(965,530,o),
(923,530,c),
(887,530,o),
(853,542,o),
(825,566,c),
(663,707,ls),
(636,730,o),
(614,730,o),
(588,707,cs),
(424,566,l),
(397,542,o),
(363,530,o),
(328,530,c),
(285,530,o),
(246,547,o),
(217,578,c),
(188,609,o),
(171,649,o),
(171,694,c),
(171,738,o),
(188,779,o),
(217,810,c),
(246,840,o),
(285,858,o),
(328,858,c),
(332,858,o),
(337,858,o),
(338,857,c),
(503,840,ls),
(544,836,o),
(562,863,o),
(546,903,cs),
(484,1063,l),
(474,1086,o),
(469,1109,o),
(469,1131,c),
(469,1175,o),
(486,1216,o),
(515,1247,c),
(543,1278,o),
(582,1295,o),
(625,1295,c)
);
}
);
width = 1251;
},
{
layerId = m002;
shapes = (
{
closed = 1;
nodes = (
(475,1444,o),
(335,1305,o),
(335,1131,c),
(335,1087,o),
(345,1044,o),
(361,1006,c),
(352,1007,o),
(343,1007,o),
(335,1007,c),
(162,1007,o),
(22,867,o),
(22,694,c),
(22,521,o),
(162,381,o),
(335,381,c),
(409,381,o),
(478,408,o),
(531,451,c),
(521,349,o),
(496,252,o),
(457,164,c),
(449,147,o),
(447,134,o),
(447,117,c),
(447,89,l),
(447,41,o),
(473,15,o),
(521,15,c),
(774,15,l),
(823,15,o),
(849,41,o),
(849,89,c),
(849,117,l),
(849,134,o),
(846,147,o),
(838,164,c),
(799,252,o),
(774,349,o),
(764,451,c),
(817,408,o),
(886,381,o),
(960,381,c),
(1133,381,o),
(1273,521,o),
(1273,694,c),
(1273,867,o),
(1133,1007,o),
(960,1007,c),
(952,1007,o),
(944,1007,o),
(934,1006,c),
(951,1044,o),
(960,1087,o),
(960,1131,c),
(960,1305,o),
(821,1444,o),
(648,1444,c)
);
},
{
closed = 1;
nodes = (
(656,226,o),
(666,194,o),
(677,164,c),
(617,164,l),
(629,194,o),
(638,226,o),
(648,260,c)
);
},
{
closed = 1;
nodes = (
(680,1170,o),
(711,1157,o),
(734,1133,c),
(757,1111,o),
(770,1080,o),
(770,1047,c),
(770,1030,o),
(767,1012,o),
(760,997,c),
(706,875,ls),
(689,835,o),
(697,823,o),
(741,828,cs),
(874,841,l),
(876,842,o),
(878,842,o),
(882,842,c),
(915,842,o),
(945,829,o),
(969,806,c),
(992,783,o),
(1005,752,o),
(1005,719,c),
(1005,686,o),
(992,655,o),
(969,632,c),
(945,609,o),
(915,596,o),
(882,596,c),
(853,596,o),
(827,606,o),
(806,622,c),
(677,729,ls),
(657,745,o),
(638,745,o),
(619,729,cs),
(489,622,l),
(468,606,o),
(441,596,o),
(413,596,c),
(380,596,o),
(349,609,o),
(326,632,c),
(303,655,o),
(290,686,o),
(290,719,c),
(290,752,o),
(303,783,o),
(326,806,c),
(349,829,o),
(380,842,o),
(413,842,c),
(417,842,o),
(421,842,o),
(422,841,c),
(552,829,ls),
(596,824,o),
(602,836,o),
(585,876,cs),
(536,996,l),
(529,1013,o),
(525,1030,o),
(525,1047,c),
(525,1080,o),
(538,1111,o),
(560,1133,c),
(583,1157,o),
(614,1170,o),
(648,1170,c)
);
}
);
width = 1295;
}
);
unicode = 9831;
},
{
glyphname = checkmark;
kernLeft = v;
kernRight = V;
lastChange = "2025-03-02 15:42:17 +0000";
layers = (
{
layerId = m01;
shapes = (
{
closed = 1;
nodes = (
(558,0,ls),
(600,0,o),
(629,19,o),
(645,58,cs),
(1180,1364,ls),
(1196,1402,o),
(1179,1429,o),
(1137,1429,cs),
(1079,1429,ls),
(1048,1429,o),
(1027,1414,o),
(1015,1385,cs),
(535,214,l),
(256,895,ls),
(240,934,o),
(212,953,o),
(170,953,cs),
(143,953,ls),
(94,953,o),
(73,917,o),
(94,866,cs),
(425,58,ls),
(441,19,o),
(470,0,o),
(512,0,cs)
);
}
);
width = 1251;
},
{
layerId = m002;
shapes = (
{
closed = 1;
nodes = (
(659,0,ls),
(701,0,o),
(730,20,o),
(745,58,cs),
(1271,1343,ls),
(1292,1394,o),
(1269,1429,o),
(1213,1429,cs),
(971,1429,ls),
(930,1429,o),
(902,1411,o),
(886,1372,cs),
(585,636,l),
(480,895,ls),
(463,936,o),
(436,953,o),
(395,953,cs),
(143,953,ls),
(94,953,o),
(73,917,o),
(94,866,cs),
(425,58,ls),
(441,19,o),
(470,0,o),
(512,0,cs)
);
}
);
width = 1344;
}
);
unicode = 10003;
},
{
glyphname = at;
kernLeft = O;
kernRight = O;
lastChange = "2025-03-02 15:42:17 +0000";
layers = (
{
layerId = m01;
shapes = (
{
closed = 1;
nodes = (
(82,692,ls),
(82,177,o),
(398,-30,o),
(808,-30,cs),
(1143,-30,ls),
(1289,-30,o),
(1424,-3,o),
(1536,54,cs),
(1583,78,o),
(1586,121,o),
(1548,158,cs),
(1534,172,ls),
(1503,204,o),
(1472,206,o),
(1432,187,cs),
(1348,151,o),
(1244,134,o),
(1123,134,cs),
(827,134,ls),
(465,134,o),
(261,278,o),
(261,697,cs),
(261,733,ls),
(261,1152,o),
(465,1295,o),
(827,1295,cs),
(1123,1295,ls),
(1485,1295,o),
(1690,1152,o),
(1690,733,cs),
(1690,697,ls),
(1690,582,o),
(1671,475,o),
(1525,452,c),
(1525,1073,ls),
(1525,1118,o),
(1502,1142,o),
(1457,1142,cs),
(1430,1142,ls),
(1385,1142,o),
(1361,1118,o),
(1361,1073,cs),
(1361,1005,l),
(1286,1117,o),
(1180,1161,o),
(1087,1161,cs),
(863,1161,ls),
(657,1161,o),
(424,1091,o),
(424,729,cs),
(424,701,ls),
(424,351,o),
(657,268,o),
(863,268,cs),
(1087,268,ls),
(1180,268,o),
(1286,314,o),
(1361,425,c),
(1361,357,ls),
(1361,313,o),
(1385,288,o),
(1430,288,cs),
(1457,288,l),
(1461,288,ls),
(1772,293,o),
(1868,508,o),
(1868,692,cs),
(1868,737,ls),
(1868,1252,o),
(1552,1459,o),
(1143,1459,cs),
(808,1459,ls),
(398,1459,o),
(82,1252,o),
(82,737,cs)
);
},
{
closed = 1;
nodes = (
(588,726,ls),
(588,967,o),
(701,1027,o),
(869,1027,cs),
(1080,1027,ls),
(1249,1027,o),
(1352,908,o),
(1361,743,c),
(1361,687,l),
(1352,521,o),
(1249,402,o),
(1080,402,cs),
(869,402,ls),
(701,402,o),
(588,465,o),
(588,703,cs)
);
}
);
width = 1950;
},
{
layerId = m002;
shapes = (
{
closed = 1;
nodes = (
(82,692,ls),
(82,140,o),
(398,-67,o),
(986,-67,cs),
(1088,-67,ls),
(1234,-67,o),
(1471,-33,o),
(1584,24,cs),
(1630,48,o),
(1661,91,o),
(1624,128,cs),
(1479,273,ls),
(1448,304,o),
(1417,306,o),
(1377,288,cs),
(1293,251,o),
(1189,234,o),
(1071,234,cs),
(1003,234,ls),
(718,234,o),
(484,332,o),
(484,697,cs),
(484,733,ls),
(484,1113,o),
(718,1195,o),
(1003,1195,cs),
(1071,1195,ls),
(1356,1195,o),
(1589,1113,o),
(1589,834,cs),
(1589,822,ls),
(1589,716,o),
(1522,673,o),
(1470,676,c),
(1470,987,ls),
(1470,1032,o),
(1447,1056,o),
(1402,1056,cs),
(1174,1056,ls),
(1160,1056,o),
(1147,1052,o),
(1147,1052,cs),
(1147,1052,l),
(1084,1075,o),
(1073,1076,o),
(1057,1076,cs),
(1016,1076,ls),
(836,1076,o),
(603,1005,o),
(603,729,cs),
(603,701,ls),
(603,436,o),
(836,354,o),
(1016,354,cs),
(1057,354,ls),
(1073,354,o),
(1084,355,o),
(1147,377,c),
(1147,377,ls),
(1147,377,o),
(1160,374,o),
(1174,374,cs),
(1402,374,l),
(1470,374,ls),
(1887,374,o),
(1958,607,o),
(1958,800,cs),
(1958,845,ls),
(1958,1290,o),
(1641,1496,o),
(1088,1496,cs),
(986,1496,ls),
(398,1496,o),
(82,1290,o),
(82,737,cs)
);
},
{
closed = 1;
nodes = (
(938,726,ls),
(938,790,o),
(973,808,o),
(1024,808,cs),
(1049,808,ls),
(1100,808,o),
(1135,790,o),
(1135,726,c),
(1135,703,l),
(1135,639,o),
(1100,622,o),
(1049,622,cs),
(1024,622,ls),
(973,622,o),
(938,642,o),
(938,703,cs)
);
}
);
width = 2040;
}
);
unicode = 64;
},
{
glyphname = ampersand;
kernLeft = O;
kernRight = O;
lastChange = "2025-03-02 15:42:17 +0000";
layers = (
{
layerId = m01;
shapes = (
{
closed = 1;
nodes = (
(1061,-33,ls),
(1359,-33,o),
(1563,8,o),
(1677,104,c),
(1867,9,ls),
(1900,-7,o),
(1929,-2,o),
(1948,32,cs),
(1968,65,ls),
(1988,99,o),
(1981,129,o),
(1946,147,cs),
(1771,234,l),
(1782,269,o),
(1787,316,o),
(1787,358,cs),
(1787,491,ls),
(1787,540,o),
(1760,566,o),
(1712,566,cs),
(1682,566,ls),
(1634,566,o),
(1608,540,o),
(1608,491,cs),
(1608,363,ls),
(1608,349,o),
(1608,328,o),
(1607,316,c),
(570,835,l),
(483,870,o),
(447,930,o),
(447,1025,cs),
(447,1062,ls),
(447,1253,o),
(569,1307,o),
(920,1307,cs),
(985,1307,ls),
(1336,1307,o),
(1459,1253,o),
(1459,1062,cs),
(1459,997,ls),
(1459,949,o),
(1485,923,o),
(1533,923,cs),
(1563,923,ls),
(1612,923,o),
(1638,949,o),
(1638,997,cs),
(1638,1065,ls),
(1638,1339,o),
(1403,1456,o),
(1005,1456,cs),
(901,1456,ls),
(502,1456,o),
(268,1339,o),
(268,1065,cs),
(268,1021,ls),
(268,898,o),
(318,803,o),
(406,740,c),
(215,681,o),
(119,575,o),
(119,403,cs),
(119,358,ls),
(119,85,o),
(354,-33,o),
(845,-33,cs)
);
},
{
closed = 1;
nodes = (
(421,116,o),
(298,171,o),
(298,363,cs),
(298,399,ls),
(298,540,o),
(375,608,o),
(629,628,c),
(1511,187,l),
(1427,145,o),
(1279,116,o),
(1041,116,cs),
(864,116,ls)
);
}
);
width = 2098;
},
{
layerId = m002;
shapes = (
{
closed = 1;
nodes = (
(1061,-30,ls),
(1359,-30,o),
(1565,-24,o),
(1679,72,c),
(1803,9,ls),
(1847,-12,o),
(1882,0,o),
(1904,43,cs),
(1987,208,ls),
(2008,251,o),
(1995,288,o),
(1954,308,cs),
(1816,377,l),
(1816,407,o),
(1816,496,o),
(1816,538,cs),
(1816,621,ls),
(1816,669,o),
(1790,695,o),
(1742,695,cs),
(1489,695,ls),
(1440,695,o),
(1414,669,o),
(1414,621,cs),
(1414,604,ls),
(1414,604,o),
(1414,578,o),
(1414,578,c),
(899,836,l),
(737,917,o),
(670,963,o),
(670,1011,cs),
(670,1018,ls),
(670,1070,o),
(737,1124,o),
(920,1124,cs),
(1015,1124,ls),
(1198,1124,o),
(1265,1070,o),
(1265,1018,cs),
(1265,982,ls),
(1265,933,o),
(1292,907,o),
(1340,907,cs),
(1593,907,ls),
(1641,907,o),
(1667,933,o),
(1667,982,cs),
(1667,1068,ls),
(1667,1342,o),
(1433,1459,o),
(1035,1459,cs),
(901,1459,ls),
(502,1459,o),
(268,1342,o),
(268,1068,cs),
(268,1024,ls),
(268,901,o),
(318,806,o),
(361,778,c),
(215,684,o),
(119,578,o),
(119,406,cs),
(119,361,ls),
(119,87,o),
(354,-30,o),
(845,-30,cs)
);
},
{
closed = 1;
nodes = (
(644,305,o),
(521,360,o),
(521,425,cs),
(521,462,ls),
(521,528,o),
(590,575,o),
(668,577,c),
(1206,308,l),
(1199,306,o),
(1186,305,o),
(1023,305,cs),
(855,305,ls)
);
}
);
width = 2116;
}
);
unicode = 38;
},
{
glyphname = paragraph;
kernLeft = O;
kernRight = H;
lastChange = "2025-03-02 15:42:17 +0000";
layers = (
{
anchors = (
{
name = bottom;
pos = (279,0);
},
{
name = bottomleft;
pos = (1318,-89);
},
{
name = center;
pos = (1481,715);
},
{
name = top;
pos = (279,1429);
}
);
layerId = m01;
shapes = (
{
closed = 1;
nodes = (
(1016,0,o),
(1042,26,o),
(1042,74,cs),
(1042,1280,l),
(1265,1280,l),
(1265,74,ls),
(1265,26,o),
(1292,0,o),
(1340,0,cs),
(1370,0,ls),
(1418,0,o),
(1444,26,o),
(1444,74,cs),
(1444,1355,ls),
(1444,1403,o),
(1418,1429,o),
(1370,1429,cs),
(603,1429,ls),
(275,1429,o),
(119,1351,o),
(119,997,cs),
(119,968,ls),
(119,614,o),
(275,536,o),
(603,536,cs),
(863,536,l),
(863,74,ls),
(863,26,o),
(890,0,o),
(938,0,cs),
(968,0,ls)
);
},
{
closed = 1;
nodes = (
(616,685,ls),
(380,685,o),
(298,721,o),
(298,970,cs),
(298,995,ls),
(298,1253,o),
(380,1280,o),
(616,1280,cs),
(863,1280,l),
(863,685,l)
);
}
);
width = 1563;
},
{
anchors = (
{
name = bottom;
pos = (287,0);
},
{
name = bottomleft;
pos = (1325,-89);
},
{
name = center;
pos = (1489,715);
},
{
name = top;
pos = (287,1429);
}
);
layerId = m002;
shapes = (
{
closed = 1;
nodes = (
(1076,0,o),
(1102,26,o),
(1102,74,cs),
(1102,1094,l),
(1221,1094,l),
(1221,74,ls),
(1221,26,o),
(1247,0,o),
(1295,0,cs),
(1548,0,ls),
(1597,0,o),
(1623,26,o),
(1623,74,cs),
(1623,1355,ls),
(1623,1403,o),
(1597,1429,o),
(1548,1429,cs),
(603,1429,ls),
(275,1429,o),
(119,1305,o),
(119,951,cs),
(119,903,ls),
(119,549,o),
(275,424,o),
(603,424,cs),
(700,424,l),
(700,74,ls),
(700,26,o),
(726,0,o),
(774,0,cs),
(1027,0,ls)
);
},
{
closed = 1;
nodes = (
(635,759,ls),
(584,759,o),
(521,796,o),
(521,905,cs),
(521,948,ls),
(521,1067,o),
(584,1094,o),
(635,1094,cs),
(700,1094,l),
(700,759,l)
);
}
);
width = 1742;
}
);
unicode = 182;
},
{
glyphname = section;
kernLeft = O;
kernRight = O;
lastChange = "2025-03-02 15:42:17 +0000";
layers = (
{
layerId = m01;
shapes = (
{
closed = 1;
nodes = (
(851,0,ls),
(1225,0,o),
(1382,78,o),
(1382,268,cs),
(1382,298,ls),
(1382,393,o),
(1345,456,o),
(1268,498,c),
(1345,541,o),
(1382,614,o),
(1382,700,cs),
(1382,741,ls),
(1382,933,o),
(1196,994,o),
(879,997,cs),
(663,998,ls),
(366,1001,o),
(284,1032,o),
(284,1134,cs),
(284,1158,ls),
(284,1259,o),
(366,1295,o),
(663,1295,cs),
(866,1295,ls),
(1102,1295,o),
(1193,1272,o),
(1217,1165,cs),
(1227,1118,o),
(1248,1094,o),
(1294,1094,cs),
(1310,1094,ls),
(1357,1094,o),
(1389,1122,o),
(1382,1171,cs),
(1352,1367,o),
(1196,1429,o),
(879,1429,cs),
(650,1429,ls),
(276,1429,o),
(120,1351,o),
(120,1161,cs),
(120,1131,ls),
(120,1037,o),
(157,973,o),
(234,931,c),
(157,889,o),
(120,815,o),
(120,730,cs),
(120,689,ls),
(120,505,o),
(306,435,o),
(622,432,cs),
(838,430,ls),
(1136,427,o),
(1218,397,o),
(1218,295,cs),
(1218,271,ls),
(1218,170,o),
(1136,134,o),
(838,134,cs),
(636,134,ls),
(400,134,o),
(309,157,o),
(285,264,cs),
(274,311,o),
(254,335,o),
(207,335,cs),
(192,335,ls),
(145,335,o),
(113,307,o),
(120,258,cs),
(150,62,o),
(306,0,o),
(622,0,cs)
);
},
{
closed = 1;
nodes = (
(663,568,ls),
(366,568,o),
(284,607,o),
(284,703,cs),
(284,727,ls),
(284,830,o),
(353,862,o),
(650,862,cs),
(838,862,ls),
(1136,862,o),
(1218,823,o),
(1218,726,cs),
(1218,703,ls),
(1218,599,o),
(1149,568,o),
(851,568,cs)
);
}
);
width = 1502;
},
{
layerId = m002;
shapes = (
{
closed = 1;
nodes = (
(851,0,ls),
(1225,0,o),
(1382,100,o),
(1382,290,cs),
(1382,320,ls),
(1382,415,o),
(1345,491,o),
(1268,533,c),
(1345,575,o),
(1382,656,o),
(1382,742,cs),
(1382,783,ls),
(1382,975,o),
(1225,1042,o),
(851,1048,cs),
(663,1051,ls),
(505,1053,o),
(470,1072,o),
(470,1092,cs),
(470,1119,ls),
(470,1140,o),
(505,1161,o),
(706,1161,cs),
(816,1161,ls),
(974,1161,o),
(1027,1147,o),
(1031,1128,cs),
(1037,1099,o),
(1062,1094,o),
(1108,1094,cs),
(1310,1094,ls),
(1357,1094,o),
(1389,1122,o),
(1382,1171,cs),
(1352,1367,o),
(1196,1429,o),
(879,1429,cs),
(650,1429,ls),
(276,1429,o),
(120,1329,o),
(120,1139,cs),
(120,1109,ls),
(120,1014,o),
(157,938,o),
(234,896,c),
(157,854,o),
(120,786,o),
(120,688,cs),
(120,647,ls),
(120,454,o),
(276,387,o),
(650,381,cs),
(838,379,ls),
(997,376,o),
(1032,357,o),
(1032,337,cs),
(1032,310,ls),
(1032,289,o),
(997,268,o),
(796,268,cs),
(686,268,ls),
(528,268,o),
(475,282,o),
(471,301,cs),
(465,330,o),
(440,335,o),
(394,335,cs),
(192,335,ls),
(145,335,o),
(113,307,o),
(120,258,cs),
(150,62,o),
(306,0,o),
(622,0,cs)
);
},
{
closed = 1;
nodes = (
(663,649,ls),
(505,649,o),
(470,680,o),
(470,702,cs),
(470,728,ls),
(470,748,o),
(500,781,o),
(658,781,cs),
(846,781,ls),
(1004,781,o),
(1032,749,o),
(1032,728,cs),
(1032,702,ls),
(1032,681,o),
(1010,649,o),
(851,649,cs)
);
}
);
width = 1502;
}
);
unicode = 167;
},
{
glyphname = copyright;
kernLeft = O;
kernRight = O;
lastChange = "2025-03-02 15:42:17 +0000";
layers = (
{
layerId = m01;
shapes = (
{
closed = 1;
nodes = (
(1061,-30,ls),
(1470,-30,o),
(1787,177,o),
(1787,692,cs),
(1787,737,ls),
(1787,1252,o),
(1470,1459,o),
(1061,1459,cs),
(845,1459,ls),
(435,1459,o),
(119,1252,o),
(119,737,cs),
(119,692,ls),
(119,177,o),
(435,-30,o),
(845,-30,cs)
);
},
{
closed = 1;
nodes = (
(502,119,o),
(298,278,o),
(298,697,cs),
(298,733,ls),
(298,1152,o),
(502,1310,o),
(864,1310,cs),
(1041,1310,ls),
(1403,1310,o),
(1608,1152,o),
(1608,733,cs),
(1608,697,ls),
(1608,278,o),
(1403,119,o),
(1041,119,cs),
(864,119,ls)
);
},
{
closed = 1;
nodes = (
(1049,264,ls),
(1252,264,o),
(1408,327,o),
(1438,522,cs),
(1445,571,o),
(1415,599,o),
(1366,599,cs),
(1350,599,ls),
(1304,599,o),
(1283,575,o),
(1273,529,cs),
(1249,422,o),
(1158,398,o),
(1036,398,cs),
(861,398,ls),
(699,398,o),
(617,435,o),
(617,703,cs),
(617,727,ls),
(617,998,o),
(699,1035,o),
(861,1035,cs),
(1036,1035,ls),
(1158,1035,o),
(1249,1011,o),
(1273,904,cs),
(1283,858,o),
(1304,834,o),
(1350,834,cs),
(1366,834,ls),
(1415,834,o),
(1445,862,o),
(1438,911,cs),
(1408,1106,o),
(1252,1169,o),
(1049,1169,cs),
(848,1169,ls),
(609,1169,o),
(453,1091,o),
(453,730,cs),
(453,700,ls),
(453,342,o),
(609,264,o),
(848,264,cs)
);
}
);
width = 1906;
},
{
layerId = m002;
shapes = (
{
closed = 1;
nodes = (
(1061,-30,ls),
(1470,-30,o),
(1787,177,o),
(1787,692,cs),
(1787,737,ls),
(1787,1252,o),
(1470,1459,o),
(1061,1459,cs),
(845,1459,ls),
(435,1459,o),
(119,1252,o),
(119,737,cs),
(119,692,ls),
(119,177,o),
(435,-30,o),
(845,-30,cs)
);
},
{
closed = 1;
nodes = (
(659,238,o),
(454,397,o),
(454,697,cs),
(454,733,ls),
(454,1033,o),
(659,1191,o),
(860,1191,cs),
(1046,1191,ls),
(1247,1191,o),
(1452,1033,o),
(1452,733,cs),
(1452,697,ls),
(1452,397,o),
(1247,238,o),
(1046,238,cs),
(860,238,ls)
);
},
{
closed = 1;
nodes = (
(1020,357,ls),
(1200,357,o),
(1310,494,o),
(1329,636,cs),
(1332,667,o),
(1315,685,o),
(1283,685,cs),
(1111,685,ls),
(1081,685,o),
(1065,671,o),
(1061,656,cs),
(1055,636,o),
(1026,625,o),
(956,625,cs),
(945,625,ls),
(869,625,o),
(840,636,o),
(840,705,cs),
(840,721,ls),
(840,793,o),
(869,804,o),
(945,804,cs),
(956,804,ls),
(1026,804,o),
(1055,793,o),
(1061,773,cs),
(1065,758,o),
(1081,744,o),
(1111,744,cs),
(1283,744,ls),
(1315,744,o),
(1332,762,o),
(1329,794,cs),
(1310,935,o),
(1200,1072,o),
(1020,1072,cs),
(881,1072,ls),
(692,1072,o),
(573,955,o),
(573,723,cs),
(573,703,ls),
(573,475,o),
(692,357,o),
(881,357,cs)
);
}
);
width = 1906;
}
);
unicode = 169;
},
{
glyphname = registered;
kernLeft = O;
kernRight = O;
lastChange = "2025-03-02 15:42:17 +0000";
layers = (
{
layerId = m01;
shapes = (
{
closed = 1;
nodes = (
(119,692,ls),
(119,177,o),
(435,-30,o),
(845,-30,cs),
(1061,-30,ls),
(1470,-30,o),
(1787,177,o),
(1787,692,cs),
(1787,737,ls),
(1787,1252,o),
(1470,1459,o),
(1061,1459,cs),
(845,1459,ls),
(435,1459,o),
(119,1252,o),
(119,737,cs)
);
},
{
closed = 1;
nodes = (
(298,1152,o),
(502,1310,o),
(864,1310,cs),
(1041,1310,ls),
(1403,1310,o),
(1608,1152,o),
(1608,733,cs),
(1608,697,ls),
(1608,278,o),
(1403,119,o),
(1041,119,cs),
(864,119,ls),
(502,119,o),
(298,278,o),
(298,697,cs),
(298,733,ls)
);
},
{
closed = 1;
nodes = (
(647,252,ls),
(686,252,o),
(707,274,o),
(707,313,cs),
(707,578,l),
(916,578,l),
(1216,289,ls),
(1239,267,o),
(1258,252,o),
(1290,252,cs),
(1348,252,ls),
(1393,252,o),
(1412,291,o),
(1374,327,cs),
(1101,582,l),
(1329,596,o),
(1406,677,o),
(1406,876,cs),
(1406,881,ls),
(1406,1107,o),
(1278,1179,o),
(987,1179,cs),
(604,1179,ls),
(565,1179,o),
(543,1158,o),
(543,1118,cs),
(543,313,ls),
(543,274,o),
(565,252,o),
(604,252,cs)
);
},
{
closed = 1;
nodes = (
(707,1045,l),
(977,1045,ls),
(1175,1045,o),
(1242,1015,o),
(1242,879,cs),
(1242,877,ls),
(1242,742,o),
(1175,712,o),
(977,712,cs),
(707,712,l)
);
}
);
width = 1906;
},
{
layerId = m002;
shapes = (
{
closed = 1;
nodes = (
(119,692,ls),
(119,177,o),
(435,-30,o),
(845,-30,cs),
(1061,-30,ls),
(1470,-30,o),
(1787,177,o),
(1787,692,cs),
(1787,737,ls),
(1787,1252,o),
(1470,1459,o),
(1061,1459,cs),
(845,1459,ls),
(435,1459,o),
(119,1252,o),
(119,737,cs)
);
},
{
closed = 1;
nodes = (
(454,1033,o),
(659,1191,o),
(860,1191,cs),
(1046,1191,ls),
(1247,1191,o),
(1452,1033,o),
(1452,733,cs),
(1452,697,ls),
(1452,397,o),
(1247,238,o),
(1046,238,cs),
(860,238,ls),
(659,238,o),
(454,397,o),
(454,697,cs),
(454,733,ls)
);
},
{
closed = 1;
nodes = (
(783,357,ls),
(820,357,o),
(839,377,o),
(839,413,cs),
(839,506,l),
(953,506,l),
(1037,395,ls),
(1052,373,o),
(1064,357,o),
(1092,357,cs),
(1258,357,ls),
(1295,357,o),
(1319,381,o),
(1295,413,cs),
(1193,553,l),
(1203,560,o),
(1292,605,o),
(1292,774,cs),
(1292,804,ls),
(1292,1027,o),
(1203,1072,o),
(1001,1072,cs),
(672,1072,ls),
(636,1072,o),
(616,1059,o),
(616,1016,cs),
(616,413,ls),
(616,377,o),
(636,357,o),
(672,357,cs)
);
},
{
closed = 1;
nodes = (
(839,849,l),
(973,849,ls),
(1054,849,o),
(1069,823,o),
(1069,797,cs),
(1069,781,ls),
(1069,755,o),
(1054,730,o),
(973,730,cs),
(839,730,l)
);
}
);
width = 1906;
}
);
unicode = 174;
},
{
glyphname = trademark;
kernLeft = H;
kernRight = H;
lastChange = "2025-03-02 15:42:17 +0000";
layers = (
{
layerId = m01;
shapes = (
{
closed = 1;
nodes = (
(119,1347,ls),
(119,1306,o),
(145,1280,o),
(186,1280,cs),
(532,1280,l),
(532,610,ls),
(532,562,o),
(558,536,o),
(607,536,cs),
(636,536,ls),
(685,536,o),
(711,562,o),
(711,610,cs),
(711,1280,l),
(1057,1280,ls),
(1098,1280,o),
(1124,1306,o),
(1124,1347,cs),
(1124,1362,ls),
(1124,1403,o),
(1098,1429,o),
(1057,1429,cs),
(186,1429,ls),
(145,1429,o),
(119,1403,o),
(119,1362,cs)
);
},
{
closed = 1;
nodes = (
(1288,610,ls),
(1288,562,o),
(1314,536,o),
(1362,536,cs),
(1392,536,ls),
(1440,536,o),
(1466,562,o),
(1466,610,cs),
(1466,1280,l),
(1485,1280,l),
(1836,616,ls),
(1855,580,o),
(1885,566,o),
(1925,566,cs),
(2009,566,ls),
(2049,566,o),
(2079,580,o),
(2098,616,cs),
(2449,1280,l),
(2468,1280,l),
(2468,610,ls),
(2468,562,o),
(2494,536,o),
(2542,536,cs),
(2572,536,ls),
(2620,536,o),
(2646,562,o),
(2646,610,cs),
(2646,1355,ls),
(2646,1403,o),
(2620,1429,o),
(2572,1429,cs),
(2407,1429,ls),
(2367,1429,o),
(2337,1415,o),
(2318,1379,cs),
(1967,715,l),
(1616,1379,ls),
(1597,1415,o),
(1567,1429,o),
(1527,1429,cs),
(1362,1429,ls),
(1314,1429,o),
(1288,1403,o),
(1288,1355,cs)
);
}
);
width = 2765;
},
{
layerId = m002;
shapes = (
{
closed = 1;
nodes = (
(119,1273,ls),
(119,1232,o),
(145,1206,o),
(186,1206,cs),
(488,1206,l),
(488,610,ls),
(488,562,o),
(514,536,o),
(562,536,cs),
(681,536,ls),
(730,536,o),
(756,562,o),
(756,610,cs),
(756,1206,l),
(1057,1206,ls),
(1098,1206,o),
(1124,1232,o),
(1124,1273,cs),
(1124,1362,ls),
(1124,1403,o),
(1098,1429,o),
(1057,1429,cs),
(186,1429,ls),
(145,1429,o),
(119,1403,o),
(119,1362,cs)
);
},
{
closed = 1;
nodes = (
(1288,610,ls),
(1288,562,o),
(1314,536,o),
(1362,536,cs),
(1481,536,ls),
(1530,536,o),
(1556,562,o),
(1556,610,cs),
(1556,1206,l),
(1559,1206,l),
(1751,616,ls),
(1764,577,o),
(1800,566,o),
(1841,566,cs),
(2094,566,ls),
(2134,566,o),
(2170,577,o),
(2183,616,cs),
(2376,1206,l),
(2378,1206,l),
(2378,610,ls),
(2378,562,o),
(2404,536,o),
(2453,536,cs),
(2572,536,ls),
(2620,536,o),
(2646,562,o),
(2646,610,cs),
(2646,1355,ls),
(2646,1403,o),
(2620,1429,o),
(2572,1429,cs),
(2233,1429,ls),
(2193,1429,o),
(2156,1416,o),
(2144,1379,cs),
(1967,834,l),
(1790,1379,ls),
(1778,1416,o),
(1741,1429,o),
(1701,1429,cs),
(1362,1429,ls),
(1314,1429,o),
(1288,1403,o),
(1288,1355,cs)
);
}
);
width = 2765;
}
);
unicode = 8482;
},
{
glyphname = brokenbar;
kernLeft = l;
kernRight = l;
lastChange = "2025-03-02 15:42:17 +0000";
layers = (
{
layerId = m01;
shapes = (
{
closed = 1;
nodes = (
(227,0,ls),
(263,0,o),
(283,20,o),
(283,56,cs),
(283,569,ls),
(283,606,o),
(263,625,o),
(227,625,cs),
(175,625,ls),
(139,625,o),
(119,606,o),
(119,569,cs),
(119,56,ls),
(119,20,o),
(139,0,o),
(175,0,cs)
);
},
{
closed = 1;
nodes = (
(227,804,ls),
(263,804,o),
(283,823,o),
(283,860,cs),
(283,1373,ls),
(283,1410,o),
(263,1429,o),
(227,1429,cs),
(175,1429,ls),
(139,1429,o),
(119,1410,o),
(119,1373,cs),
(119,860,ls),
(119,823,o),
(139,804,o),
(175,804,cs)
);
}
);
width = 402;
},
{
layerId = m002;
shapes = (
{
closed = 1;
nodes = (
(432,0,ls),
(468,0,o),
(488,20,o),
(488,56,cs),
(488,569,ls),
(488,606,o),
(468,625,o),
(432,625,cs),
(175,625,ls),
(139,625,o),
(119,606,o),
(119,569,cs),
(119,56,ls),
(119,20,o),
(139,0,o),
(175,0,cs)
);
},
{
closed = 1;
nodes = (
(432,804,ls),
(468,804,o),
(488,823,o),
(488,860,cs),
(488,1373,ls),
(488,1410,o),
(468,1429,o),
(432,1429,cs),
(175,1429,ls),
(139,1429,o),
(119,1410,o),
(119,1373,cs),
(119,860,ls),
(119,823,o),
(139,804,o),
(175,804,cs)
);
}
);
width = 607;
}
);
unicode = 166;
},
{
glyphname = dagger;
kernLeft = l;
kernRight = l;
lastChange = "2025-03-02 15:42:17 +0000";
layers = (
{
layerId = m01;
shapes = (
{
closed = 1;
nodes = (
(439,339,ls),
(488,339,o),
(514,365,o),
(514,413,cs),
(514,1094,l),
(670,1094,ls),
(718,1094,o),
(744,1120,o),
(744,1154,cs),
(744,1169,ls),
(744,1202,o),
(718,1228,o),
(670,1228,cs),
(514,1228,l),
(514,1355,ls),
(514,1403,o),
(488,1429,o),
(439,1429,cs),
(424,1429,ls),
(376,1429,o),
(350,1403,o),
(350,1355,cs),
(350,1228,l),
(194,1228,ls),
(145,1228,o),
(119,1202,o),
(119,1169,cs),
(119,1154,ls),
(119,1120,o),
(145,1094,o),
(194,1094,cs),
(350,1094,l),
(350,413,ls),
(350,365,o),
(376,339,o),
(424,339,cs)
);
}
);
width = 863;
},
{
layerId = m002;
shapes = (
{
closed = 1;
nodes = (
(525,339,ls),
(573,339,o),
(599,365,o),
(599,413,cs),
(599,1042,l),
(670,1042,ls),
(718,1042,o),
(744,1068,o),
(744,1102,cs),
(744,1251,ls),
(744,1284,o),
(718,1310,o),
(670,1310,cs),
(599,1310,l),
(599,1355,ls),
(599,1403,o),
(573,1429,o),
(525,1429,cs),
(339,1429,ls),
(290,1429,o),
(264,1403,o),
(264,1355,cs),
(264,1310,l),
(194,1310,ls),
(145,1310,o),
(119,1284,o),
(119,1251,cs),
(119,1102,ls),
(119,1068,o),
(145,1042,o),
(194,1042,cs),
(264,1042,l),
(264,413,ls),
(264,365,o),
(290,339,o),
(339,339,cs)
);
}
);
width = 863;
}
);
unicode = 8224;
},
{
glyphname = daggerdbl;
kernLeft = l;
kernRight = l;
lastChange = "2025-03-02 15:42:17 +0000";
layers = (
{
layerId = m01;
shapes = (
{
closed = 1;
nodes = (
(439,339,ls),
(488,339,o),
(514,365,o),
(514,413,cs),
(514,796,l),
(670,796,ls),
(718,796,o),
(744,823,o),
(744,856,cs),
(744,871,ls),
(744,904,o),
(718,930,o),
(670,930,cs),
(514,930,l),
(514,1094,l),
(670,1094,ls),
(718,1094,o),
(744,1120,o),
(744,1154,cs),
(744,1169,ls),
(744,1202,o),
(718,1228,o),
(670,1228,cs),
(514,1228,l),
(514,1355,ls),
(514,1403,o),
(488,1429,o),
(439,1429,cs),
(424,1429,ls),
(376,1429,o),
(350,1403,o),
(350,1355,cs),
(350,1228,l),
(194,1228,ls),
(145,1228,o),
(119,1202,o),
(119,1169,cs),
(119,1154,ls),
(119,1120,o),
(145,1094,o),
(194,1094,cs),
(350,1094,l),
(350,930,l),
(194,930,ls),
(145,930,o),
(119,904,o),
(119,871,cs),
(119,856,ls),
(119,823,o),
(145,796,o),
(194,796,cs),
(350,796,l),
(350,413,ls),
(350,365,o),
(376,339,o),
(424,339,cs)
);
}
);
width = 863;
},
{
layerId = m002;
shapes = (
{
closed = 1;
nodes = (
(525,339,ls),
(573,339,o),
(599,365,o),
(599,413,cs),
(599,715,l),
(670,715,ls),
(718,715,o),
(744,741,o),
(744,774,cs),
(744,923,ls),
(744,957,o),
(718,983,o),
(670,983,cs),
(599,983,l),
(599,1042,l),
(670,1042,ls),
(718,1042,o),
(744,1068,o),
(744,1102,cs),
(744,1251,ls),
(744,1284,o),
(718,1310,o),
(670,1310,cs),
(599,1310,l),
(599,1355,ls),
(599,1403,o),
(573,1429,o),
(525,1429,cs),
(339,1429,ls),
(290,1429,o),
(264,1403,o),
(264,1355,cs),
(264,1310,l),
(194,1310,ls),
(145,1310,o),
(119,1284,o),
(119,1251,cs),
(119,1102,ls),
(119,1068,o),
(145,1042,o),
(194,1042,cs),
(264,1042,l),
(264,983,l),
(194,983,ls),
(145,983,o),
(119,957,o),
(119,923,cs),
(119,774,ls),
(119,741,o),
(146,715,o),
(194,715,cs),
(264,715,l),
(264,413,ls),
(264,365,o),
(290,339,o),
(339,339,cs)
);
}
);
width = 863;
}
);
unicode = 8225;
},
{
glyphname = numero;
lastChange = "2025-03-02 15:42:17 +0000";
layers = (
{
layerId = m01;
shapes = (
{
closed = 1;
nodes = (
(238,0,ls),
(287,0,o),
(313,26,o),
(313,74,cs),
(313,1265,l),
(339,1265,l),
(1288,38,ls),
(1311,7,o),
(1342,0,o),
(1380,0,cs),
(1504,0,ls),
(1552,0,o),
(1578,26,o),
(1578,74,cs),
(1578,1355,ls),
(1578,1403,o),
(1552,1429,o),
(1504,1429,cs),
(1489,1429,ls),
(1440,1429,o),
(1414,1403,o),
(1414,1355,cs),
(1414,164,l),
(1388,164,l),
(439,1391,ls),
(416,1422,o),
(385,1429,o),
(347,1429,cs),
(223,1429,ls),
(175,1429,o),
(149,1403,o),
(149,1355,cs),
(149,74,ls),
(149,26,o),
(175,0,o),
(223,0,cs)
);
},
{
alignment = -1;
pos = (1600,0);
ref = zerosuperior;
},
{
closed = 1;
nodes = (
(1710,335,ls),
(1710,299,o),
(1730,279,o),
(1766,279,cs),
(2600,279,ls),
(2636,279,o),
(2656,299,o),
(2656,335,cs),
(2656,372,ls),
(2656,408,o),
(2636,428,o),
(2600,428,cs),
(1766,428,ls),
(1730,428,o),
(1710,408,o),
(1710,372,cs)
);
}
);
width = 2765;
},
{
layerId = m002;
shapes = (
{
closed = 1;
nodes = (
(443,0,ls),
(491,0,o),
(517,26,o),
(517,74,cs),
(517,1048,l),
(517,1048,l),
(942,38,ls),
(957,4,o),
(996,0,o),
(1034,0,cs),
(1504,0,ls),
(1552,0,o),
(1578,26,o),
(1578,74,cs),
(1578,1355,ls),
(1578,1403,o),
(1552,1429,o),
(1504,1429,cs),
(1284,1429,ls),
(1236,1429,o),
(1210,1403,o),
(1210,1355,cs),
(1210,381,l),
(1210,381,l),
(785,1391,ls),
(770,1426,o),
(731,1429,o),
(693,1429,cs),
(223,1429,ls),
(175,1429,o),
(149,1403,o),
(149,1355,cs),
(149,74,ls),
(149,26,o),
(175,0,o),
(223,0,cs)
);
},
{
alignment = -1;
pos = (1600,0);
ref = zerosuperior;
},
{
closed = 1;
nodes = (
(1707,216,ls),
(1707,180,o),
(1726,160,o),
(1762,160,cs),
(2604,160,ls),
(2640,160,o),
(2659,180,o),
(2659,216,cs),
(2659,372,ls),
(2659,408,o),
(2640,428,o),
(2604,428,cs),
(1762,428,ls),
(1726,428,o),
(1707,408,o),
(1707,372,cs)
);
}
);
width = 2765;
}
);
unicode = 8470;
},
{
glyphname = cent;
kernLeft = c;
kernRight = c;
lastChange = "2025-03-02 15:42:17 +0000";
layers = (
{
layerId = m01;
shapes = (
{
ref = c;
},
{
closed = 1;
nodes = (
(645,-104,ls),
(645,-153,o),
(671,-179,o),
(719,-179,cs),
(734,-179,ls),
(783,-179,o),
(809,-153,o),
(809,-104,cs),
(809,1176,ls),
(809,1225,o),
(783,1251,o),
(734,1251,cs),
(719,1251,ls),
(671,1251,o),
(645,1225,o),
(645,1176,cs)
);
}
);
width = 1452;
},
{
layerId = m002;
shapes = (
{
ref = c;
},
{
closed = 1;
nodes = (
(569,-104,ls),
(569,-153,o),
(596,-179,o),
(644,-179,cs),
(830,-179,ls),
(878,-179,o),
(904,-153,o),
(904,-104,cs),
(904,1176,ls),
(904,1225,o),
(878,1251,o),
(830,1251,cs),
(644,1251,ls),
(596,1251,o),
(569,1225,o),
(569,1176,cs)
);
}
);
width = 1455;
}
);
unicode = 162;
},
{
glyphname = currency;
kernLeft = z;
kernRight = z;
lastChange = "2025-03-02 15:42:17 +0000";
layers = (
{
anchors = (
{
name = bottom;
pos = (692,257);
},
{
name = center;
pos = (692,715);
},
{
name = ogonek;
pos = (1184,262);
},
{
name = top;
pos = (692,1171);
},
{
name = topleft;
pos = (89,1171);
},
{
name = topright;
pos = (1294,1171);
}
);
layerId = m01;
shapes = (
{
closed = 1;
nodes = (
(145,74,o),
(181,74,o),
(216,107,cs),
(391,282,l),
(459,252,o),
(566,238,o),
(651,238,cs),
(738,238,ls),
(823,238,o),
(930,252,o),
(997,282,c),
(1172,107,ls),
(1198,82,o),
(1243,74,o),
(1278,107,cs),
(1302,131,ls),
(1335,166,o),
(1327,210,o),
(1302,236,cs),
(1143,395,l),
(1198,468,o),
(1230,569,o),
(1230,700,cs),
(1230,729,ls),
(1230,860,o),
(1198,960,o),
(1143,1034,c),
(1302,1193,ls),
(1327,1219,o),
(1335,1264,o),
(1302,1298,cs),
(1278,1322,ls),
(1243,1356,o),
(1198,1347,o),
(1172,1322,cs),
(997,1147,l),
(930,1177,o),
(823,1191,o),
(738,1191,cs),
(651,1191,ls),
(566,1191,o),
(459,1177,o),
(392,1146,c),
(216,1322,ls),
(181,1356,o),
(145,1356,o),
(111,1322,cs),
(87,1298,ls),
(53,1264,o),
(53,1227,o),
(87,1193,cs),
(247,1033,l),
(191,960,o),
(158,860,o),
(158,729,cs),
(158,700,ls),
(158,569,o),
(191,468,o),
(246,395,c),
(87,236,ls),
(53,202,o),
(53,166,o),
(87,131,cs),
(111,107,ls)
);
},
{
closed = 1;
nodes = (
(468,402,o),
(337,495,o),
(337,703,cs),
(337,726,ls),
(337,934,o),
(469,1027,o),
(636,1027,cs),
(754,1027,ls),
(921,1027,o),
(1051,934,o),
(1051,726,cs),
(1051,703,ls),
(1051,495,o),
(921,402,o),
(754,402,cs),
(636,402,ls)
);
}
);
width = 1385;
},
{
anchors = (
{
name = bottom;
pos = (758,257);
},
{
name = center;
pos = (758,715);
},
{
name = ogonek;
pos = (1250,262);
},
{
name = top;
pos = (758,1171);
},
{
name = topleft;
pos = (155,1171);
},
{
name = topright;
pos = (1360,1171);
}
);
layerId = m002;
shapes = (
{
closed = 1;
nodes = (
(276,7,o),
(314,7,o),
(348,42,cs),
(523,217,l),
(591,186,o),
(656,172,o),
(742,172,cs),
(779,172,ls),
(864,172,o),
(930,186,o),
(997,217,c),
(1172,42,ls),
(1198,16,o),
(1244,7,o),
(1278,42,cs),
(1433,197,ls),
(1467,231,o),
(1459,276,o),
(1433,302,cs),
(1274,462,l),
(1320,534,o),
(1336,606,o),
(1336,700,cs),
(1336,729,ls),
(1336,813,o),
(1320,894,o),
(1274,968,c),
(1433,1127,ls),
(1459,1153,o),
(1467,1198,o),
(1433,1232,cs),
(1278,1387,ls),
(1244,1422,o),
(1198,1413,o),
(1172,1387,cs),
(997,1212,l),
(930,1243,o),
(864,1257,o),
(779,1257,cs),
(742,1257,ls),
(656,1257,o),
(591,1243,o),
(523,1212,c),
(348,1387,ls),
(314,1422,o),
(276,1422,o),
(243,1387,cs),
(87,1232,ls),
(53,1198,o),
(53,1161,o),
(87,1127,cs),
(247,968,l),
(200,894,o),
(184,813,o),
(184,729,cs),
(184,700,ls),
(184,606,o),
(200,534,o),
(247,462,c),
(87,302,ls),
(53,268,o),
(53,231,o),
(87,197,cs),
(243,42,ls)
);
},
{
closed = 1;
nodes = (
(592,540,o),
(526,586,o),
(526,703,cs),
(526,726,ls),
(526,843,o),
(593,890,o),
(702,890,cs),
(820,890,ls),
(930,890,o),
(995,843,o),
(995,726,cs),
(995,703,ls),
(995,586,o),
(930,540,o),
(820,540,cs),
(702,540,ls)
);
}
);
width = 1517;
}
);
unicode = 164;
},
{
glyphname = dollar;
kernLeft = O;
kernRight = O;
lastChange = "2025-03-02 15:42:17 +0000";
layers = (
{
layerId = m01;
shapes = (
{
ref = S;
},
{
closed = 1;
nodes = (
(738,-104,ls),
(738,-153,o),
(764,-179,o),
(812,-179,cs),
(842,-179,ls),
(890,-179,o),
(917,-153,o),
(917,-104,cs),
(917,1533,ls),
(917,1582,o),
(890,1608,o),
(842,1608,cs),
(812,1608,ls),
(764,1608,o),
(738,1582,o),
(738,1533,cs)
);
},
{
closed = 1;
nodes = (
(1080,-104,ls),
(1080,-153,o),
(1106,-179,o),
(1155,-179,cs),
(1185,-179,ls),
(1233,-179,o),
(1259,-153,o),
(1259,-104,cs),
(1259,1533,ls),
(1259,1582,o),
(1233,1608,o),
(1185,1608,cs),
(1155,1608,ls),
(1106,1608,o),
(1080,1582,o),
(1080,1533,cs)
);
}
);
width = 1988;
},
{
layerId = m002;
shapes = (
{
ref = S;
},
{
closed = 1;
nodes = (
(615,-104,ls),
(615,-153,o),
(641,-179,o),
(689,-179,cs),
(909,-179,ls),
(957,-179,o),
(984,-153,o),
(984,-104,cs),
(984,1533,ls),
(984,1582,o),
(957,1608,o),
(909,1608,cs),
(689,1608,ls),
(641,1608,o),
(615,1582,o),
(615,1533,cs)
);
},
{
closed = 1;
nodes = (
(1073,-104,ls),
(1073,-153,o),
(1099,-179,o),
(1147,-179,cs),
(1367,-179,ls),
(1415,-179,o),
(1441,-153,o),
(1441,-104,cs),
(1441,1533,ls),
(1441,1582,o),
(1415,1608,o),
(1367,1608,cs),
(1147,1608,ls),
(1099,1608,o),
(1073,1582,o),
(1073,1533,cs)
);
}
);
width = 1997;
}
);
unicode = 36;
},
{
glyphname = euro;
kernLeft = O;
kernRight = O;
lastChange = "2025-03-02 15:42:17 +0000";
layers = (
{
layerId = m01;
shapes = (
{
closed = 1;
nodes = (
(230,685,ls),
(230,169,o),
(546,-30,o),
(866,-30,cs),
(1171,-30,ls),
(1471,-30,o),
(1573,11,o),
(1705,139,cs),
(1739,173,o),
(1734,211,o),
(1697,243,cs),
(1680,257,ls),
(1644,288,o),
(1611,283,o),
(1576,248,cs),
(1480,156,o),
(1422,119,o),
(1152,119,cs),
(886,119,ls),
(613,119,o),
(408,256,o),
(408,689,cs),
(408,733,ls),
(408,1167,o),
(613,1310,o),
(886,1310,cs),
(1152,1310,ls),
(1422,1310,o),
(1480,1273,o),
(1577,1181,cs),
(1612,1146,o),
(1643,1141,o),
(1680,1172,cs),
(1697,1186,ls),
(1734,1218,o),
(1739,1256,o),
(1705,1291,cs),
(1573,1418,o),
(1471,1459,o),
(1171,1459,cs),
(866,1459,ls),
(546,1459,o),
(230,1252,o),
(230,737,cs)
);
},
{
closed = 1;
nodes = (
(1301,476,ls),
(1343,476,o),
(1371,494,o),
(1388,539,cs),
(1398,563,ls),
(1414,606,o),
(1393,625,o),
(1337,625,cs),
(160,625,ls),
(118,625,o),
(92,608,o),
(74,563,cs),
(65,539,ls),
(48,496,o),
(68,476,o),
(124,476,cs)
);
},
{
closed = 1;
nodes = (
(1430,804,ls),
(1472,804,o),
(1500,822,o),
(1518,866,cs),
(1527,890,ls),
(1544,933,o),
(1522,953,o),
(1466,953,cs),
(174,953,ls),
(132,953,o),
(106,935,o),
(88,890,cs),
(79,866,ls),
(62,823,o),
(82,804,o),
(138,804,cs)
);
}
);
width = 1847;
},
{
layerId = m002;
shapes = (
{
closed = 1;
nodes = (
(273,685,ls),
(273,169,o),
(589,-30,o),
(909,-30,cs),
(1281,-30,ls),
(1581,-30,o),
(1615,68,o),
(1747,195,cs),
(1782,230,o),
(1778,267,o),
(1740,300,cs),
(1571,443,ls),
(1533,475,o),
(1501,469,o),
(1466,435,cs),
(1371,342,o),
(1312,305,o),
(1135,305,cs),
(1022,305,ls),
(842,305,o),
(675,442,o),
(675,689,cs),
(675,733,ls),
(675,981,o),
(842,1124,o),
(1022,1124,cs),
(1135,1124,ls),
(1312,1124,o),
(1371,1087,o),
(1467,995,cs),
(1502,960,o),
(1533,954,o),
(1571,986,cs),
(1740,1130,ls),
(1778,1162,o),
(1782,1199,o),
(1747,1234,cs),
(1615,1361,o),
(1488,1459,o),
(1188,1459,cs),
(909,1459,ls),
(589,1459,o),
(273,1252,o),
(273,737,cs)
);
},
{
closed = 1;
nodes = (
(1063,400,ls),
(1104,400,o),
(1132,417,o),
(1150,462,cs),
(1206,606,ls),
(1223,649,o),
(1201,668,o),
(1145,668,cs),
(207,668,ls),
(165,668,o),
(139,651,o),
(121,606,cs),
(65,462,ls),
(48,419,o),
(68,400,o),
(124,400,cs)
);
},
{
closed = 1;
nodes = (
(1146,761,ls),
(1188,761,o),
(1216,778,o),
(1234,823,cs),
(1290,967,ls),
(1306,1011,o),
(1285,1029,o),
(1229,1029,cs),
(233,1029,ls),
(191,1029,o),
(165,1012,o),
(147,967,cs),
(91,823,ls),
(74,780,o),
(94,761,o),
(150,761,cs)
);
}
);
width = 1890;
}
);
unicode = 8364;
},
{
glyphname = sterling;
kernLeft = f;
kernRight = H;
lastChange = "2025-03-02 15:42:17 +0000";
layers = (
{
layerId = m01;
shapes = (
{
closed = 1;
nodes = (
(1640,0,ls),
(1680,0,o),
(1699,26,o),
(1699,67,cs),
(1699,82,ls),
(1699,123,o),
(1680,149,o),
(1640,149,cs),
(467,149,l),
(502,246,o),
(508,369,o),
(508,566,c),
(1126,566,ls),
(1167,566,o),
(1193,592,o),
(1193,633,cs),
(1193,648,ls),
(1193,689,o),
(1167,715,o),
(1126,715,cs),
(508,715,l),
(508,1226,o),
(632,1280,o),
(963,1280,cs),
(979,1280,ls),
(1292,1280,o),
(1413,1226,o),
(1432,939,cs),
(1435,890,o),
(1460,863,o),
(1507,863,cs),
(1537,863,ls),
(1586,863,o),
(1613,890,o),
(1610,941,cs),
(1584,1313,o),
(1378,1429,o),
(998,1429,cs),
(944,1429,ls),
(564,1429,o),
(329,1313,o),
(329,715,c),
(128,715,ls),
(87,715,o),
(61,689,o),
(61,648,cs),
(61,633,ls),
(61,592,o),
(87,566,o),
(128,566,cs),
(329,566,l),
(329,309,o),
(327,164,o),
(227,150,cs),
(224,150,o),
(221,149,o),
(218,149,c),
(169,149,o),
(151,123,o),
(151,82,cs),
(151,67,ls),
(151,26,o),
(169,0,o),
(218,0,cs)
);
}
);
width = 1822;
},
{
layerId = m002;
shapes = (
{
closed = 1;
nodes = (
(1640,0,ls),
(1680,0,o),
(1699,26,o),
(1699,67,cs),
(1699,268,ls),
(1699,309,o),
(1680,335,o),
(1640,335,cs),
(725,335,l),
(729,362,o),
(731,431,o),
(731,473,c),
(1126,473,ls),
(1167,473,o),
(1193,499,o),
(1193,540,cs),
(1193,741,ls),
(1193,782,o),
(1167,808,o),
(1126,808,cs),
(731,808,l),
(731,1040,o),
(799,1094,o),
(963,1094,cs),
(1035,1094,ls),
(1180,1094,o),
(1246,1040,o),
(1265,939,cs),
(1274,890,o),
(1292,863,o),
(1340,863,cs),
(1593,863,ls),
(1641,863,o),
(1669,890,o),
(1666,941,cs),
(1640,1313,o),
(1434,1429,o),
(1054,1429,cs),
(944,1429,ls),
(564,1429,o),
(329,1313,o),
(329,808,c),
(128,808,ls),
(87,808,o),
(61,782,o),
(61,741,cs),
(61,540,ls),
(61,499,o),
(87,473,o),
(128,473,cs),
(329,473,l),
(327,364,o),
(326,350,o),
(324,334,cs),
(324,334,o),
(218,335,o),
(218,335,c),
(169,335,o),
(151,309,o),
(151,268,cs),
(151,67,ls),
(151,26,o),
(169,0,o),
(218,0,cs)
);
}
);
width = 1822;
}
);
unicode = 163;
},
{
glyphname = won;
kernLeft = W;
kernRight = W;
lastChange = "2025-03-02 15:42:17 +0000";
layers = (
{
layerId = m01;
shapes = (
{
ref = W;
},
{
closed = 1;
nodes = (
(87,860,ls),
(87,823,o),
(107,804,o),
(136,804,cs),
(2920,804,ls),
(2958,804,o),
(2978,823,o),
(2978,860,cs),
(2978,897,ls),
(2978,933,o),
(2958,953,o),
(2920,953,cs),
(136,953,ls),
(107,953,o),
(87,933,o),
(87,897,cs)
);
},
{
closed = 1;
nodes = (
(87,532,ls),
(87,496,o),
(107,476,o),
(136,476,cs),
(2920,476,ls),
(2958,476,o),
(2978,496,o),
(2978,532,cs),
(2978,569,ls),
(2978,606,o),
(2958,625,o),
(2920,625,cs),
(136,625,ls),
(107,625,o),
(87,606,o),
(87,569,cs)
);
}
);
width = 3065;
},
{
layerId = m002;
shapes = (
{
ref = W;
},
{
closed = 1;
nodes = (
(87,819,ls),
(87,783,o),
(107,763,o),
(136,763,cs),
(2920,763,ls),
(2958,763,o),
(2978,783,o),
(2978,819,cs),
(2978,1009,ls),
(2978,1045,o),
(2958,1064,o),
(2920,1064,cs),
(136,1064,ls),
(107,1064,o),
(87,1045,o),
(87,1009,cs)
);
},
{
closed = 1;
nodes = (
(87,398,ls),
(87,362,o),
(107,342,o),
(136,342,cs),
(2920,342,ls),
(2958,342,o),
(2978,362,o),
(2978,398,cs),
(2978,588,ls),
(2978,624,o),
(2958,644,o),
(2920,644,cs),
(136,644,ls),
(107,644,o),
(87,624,o),
(87,588,cs)
);
}
);
width = 3065;
}
);
unicode = 8361;
},
